<?xml version="1.0" encoding="UTF-8" standalone="no"?>
<!-- Created with Inkscape (http://www.inkscape.org/) -->

<svg
   xmlns:dc="http://purl.org/dc/elements/1.1/"
   xmlns:cc="http://creativecommons.org/ns#"
   xmlns:rdf="http://www.w3.org/1999/02/22-rdf-syntax-ns#"
   xmlns:svg="http://www.w3.org/2000/svg"
   xmlns="http://www.w3.org/2000/svg"
   xmlns:sodipodi="http://sodipodi.sourceforge.net/DTD/sodipodi-0.dtd"
   xmlns:inkscape="http://www.inkscape.org/namespaces/inkscape"
   version="1.1"
   width="85.601158"
   height="60"
   id="svg2"
   sodipodi:docname="favicon.svg"
   inkscape:version="0.92.1 r15371">
  <sodipodi:namedview
     pagecolor="#ffffff"
     bordercolor="#666666"
     borderopacity="1"
     objecttolerance="10"
     gridtolerance="10"
     guidetolerance="10"
     inkscape:pageopacity="0"
     inkscape:pageshadow="2"
     inkscape:window-width="1920"
     inkscape:window-height="1057"
     id="namedview4544"
     showgrid="false"
     inkscape:zoom="4.3358779"
     inkscape:cx="158.60459"
     inkscape:cy="-5.4520002"
     inkscape:window-x="-8"
     inkscape:window-y="-8"
     inkscape:window-maximized="1"
     inkscape:current-layer="layer1" />
  <defs
     id="defs4" />
  <metadata
     id="metadata7">
    <rdf:RDF>
      <cc:Work
         rdf:about="">
        <dc:format>image/svg+xml</dc:format>
        <dc:type
           rdf:resource="http://purl.org/dc/dcmitype/StillImage" />
        <dc:title></dc:title>
      </cc:Work>
    </rdf:RDF>
  </metadata>
  <g
     transform="translate(1.7922396e-7,-992.36218)"
     id="layer1">
    <g
       transform="matrix(0.5620239,0,0,0.58592463,-79.75897,632.26634)"
       id="g3060">
      <path
         d="m 284.97806,654.71145 -7.13875,-8.15138 11.014,4.14313 z m -14.18562,8.2615 5.31425,-15.30488 6.1625,8.57163 z m -9.6035,13.18787 8.08237,-8.39412 6.969,-3.68 z m -9.46513,6.48888 -3.43275,3.61912 -23.6485,20.3475 2.98738,-5.41525 1.242,-2.25 20.63837,-17.055 8.96525,-6.918 z m -31.63262,23.70187 c -0.6955,1.25825 -1.379,2.56075 -2.06,3.819 -0.68,-1.259 -1.3635,-2.5625 -2.05975,-3.8215 -1.20263,-2.21275 -2.43175,-4.27462 -3.662,-6.44987 1.12,-5.131 2.1845,-10.27525 3.162,-15.44138 0.51812,-2.71062 0.98962,-5.43262 1.4525,-8.157 0.24437,-1.35887 0.44,-2.67625 0.66,-4.04075 0.16275,-1.02375 0.6435,-2.86375 0.6435,-2.86375 0.12012,0.92663 0.36287,1.88925 0.501,2.81375 0.21012,1.3635 0.393,2.72163 0.6255,4.07975 0.44112,2.72163 0.889,5.428 1.38187,8.13788 0.93075,5.15625 1.94738,10.27237 3.01963,15.39387 -1.23,2.18738 -2.4605,4.31763 -3.66425,6.53 z m -32.32275,-20.08275 -3.43238,-3.61912 -6.75137,-7.67163 8.96487,6.918 20.63838,17.055 1.24187,2.25 2.987,5.41525 z m -27.94888,-22.18212 6.969,3.68 8.08225,8.39412 z m 0.13288,-16.41863 5.31537,15.30488 -11.47712,-6.73325 z m -12.746,3.03513 11.014,-4.14313 -7.13863,8.15138 z m 15.536,-19.99913 0.69237,-0.80825 7.268,-0.5895 0.0118,0.1225 -10.1215,14.422 -0.12187,0.0493 -12.35763,3.8735 14.62888,-17.0695 z m 11.63025,-7.229 -3.80625,4.43475 -5.94075,0.48188 z m 6.2135,-2.2415 9.01425,-1.468 c 3.18187,-0.50737 6.357,-1.05837 9.53425,-1.59912 3.17725,-0.53463 17.83275,-2.948 19.03825,-2.9515 1.19725,0.004 15.7415,2.41575 18.895,2.9505 3.1525,0.541 6.30425,1.092 9.46137,1.599 l 8.94363,1.46737 6.13312,6.74213 -4.76325,3.67125 -3.03737,2.104 -8.60488,0.54575 c -3.03837,0.17812 -6.07462,0.411 -9.10987,0.63 l -18.06125,1.32338 -18.06025,-1.32276 c -5.90525,-0.43149 -11.81875,-0.81137 -17.72863,-1.1905 l -3.07625,-2.13025 -4.71162,-3.6315 z m 90.84762,7.15813 -5.94037,-0.48188 -3.80375,-4.43262 z m -13.13012,6.63487 0.69062,-0.5035 6.20888,-4.0535 6.81912,10.97788 z m -11.89813,14.46588 7.7355,-11.79775 18.4365,7.62525 -5.10062,19.0495 -0.022,0.002 -21.04938,-14.8795 z m 1.8975,20.283 1.36238,-0.15975 14.27175,-0.84375 -0.3965,0.45 -14.5885,11.97075 -18.635,14.2745 z m -4.22712,0.27387 -17.26238,26.7045 c -1.15437,-4.309 -2.3435,-8.6095 -3.60312,-12.89412 -0.77388,-2.6425 -1.59313,-5.27563 -2.41838,-7.90613 -0.4,-1.31925 -0.85075,-2.62525 -1.2745,-3.938 -0.28275,-0.86637 -0.58712,-1.7285 -0.88825,-2.58987 z m 0.16537,-22.08575 -0.541,0.74088 -17.74387,-8.86888 10.43225,-0.85075 c 3.03487,-0.22712 6.06825,-0.5475 9.09987,-0.81562 l 6.299,-0.53863 z m 2.30175,17.984 -24.10187,0.70163 20.89562,-15.03388 2.06538,7.02313 z m -0.63462,-7.40337 -0.80363,-5.00988 18.1995,11.23688 -14.3075,1.378 -1.39287,0.0894 -1.6955,-7.69437 z m -52.05363,-7.42425 24.17463,-10.598 24.17562,10.598 -24.17562,15.49837 z m -1.87087,18.92937 1.44812,-0.0354 2.54338,0.004 c 1.24837,-0.0429 2.49637,-0.0974 3.7435,-0.158 l 17.987,-0.44113 c -0.31013,0.86175 -0.62363,1.72275 -0.91463,2.58975 -0.43725,1.311 -0.89925,2.61388 -1.312,3.931 -0.8515,2.62913 -1.69412,5.25363 -2.49062,7.89625 -1.30463,4.29938 -2.53625,8.6095 -3.73463,12.933 l -17.27012,-26.719 z m -12.24775,-0.82737 c 1.17637,0.13075 2.3545,0.23925 3.53162,0.37637 1.54275,0.16263 3.088,0.26288 4.6335,0.38475 l 17.84125,25.48413 -18.6345,-14.2745 -14.58887,-11.97075 -0.39613,-0.45 z m 12.95787,-20.684 -7.08987,-10.75575 c 4.68787,0.41425 9.37525,0.85425 14.06662,1.2015 l 10.43363,0.85075 z m -4.16625,17.37212 c -1.64725,-0.11912 -3.29525,-0.23137 -4.94537,-0.31362 -1.30888,-0.0506 -2.6175,-0.11625 -3.927,-0.1605 l -6.9,-0.66475 18.1995,-11.23688 -0.80363,5.00988 z m 2.12988,-7.27162 2.23437,-6.90125 20.72663,14.912 -13.8805,-0.40463 c -1.25088,-0.067 -2.50238,-0.12725 -3.7535,-0.17512 l -3.67438,-0.11013 c -0.93012,-0.0188 -1.86062,-0.0228 -2.79075,-0.0284 l 1.13813,-7.2925 z m -27.389,-15.952 7.58762,-12.21688 6.07563,3.96638 1.298,0.94775 z m 17.30937,-4.9825 8.73888,12.02775 -20.71238,14.64025 -0.0216,-0.002 -5.3115,-19.83588 17.30662,-6.82962 z m 92.73963,-6.99988 14.62862,17.0695 -12.65312,-4.12612 -9.94825,-14.21863 0.0125,-0.1225 7.26812,0.5895 0.69263,0.80825 z m 1.95175,-1.94987 -16.67025,-8.40713 -35.70625,-4.93875 c -0.36213,-0.069 -0.72463,-0.13925 -1.0875,-0.2065 -1.199,-0.22187 -2.40338,-0.41175 -3.60425,-0.61975 l -0.0282,-0.005 -0.0274,0.005 c -1.21075,0.20725 -2.42362,0.399 -3.6315,0.61975 -0.36887,0.0673 -0.73737,0.13813 -1.10625,0.20763 l -35.94675,4.93762 -16.67062,8.40713 -18.87663,22.41287 8.2035,7.79638 34.88063,27.24975 33.06975,30.76612 32.99412,-30.76612 34.88075,-27.22713 7.51425,-6.9835 0.76575,-0.658 -18.95312,-22.59037 z"
         id="path2997"
         style="fill:#e60c80;fill-opacity:1;fill-rule:nonzero;stroke:none"
         inkscape:connector-curvature="0" />
      <g
         transform="matrix(1.25,0,0,-1.25,78.402188,1064.6097)"
         id="g2999" />
    </g>
  </g>
</svg>
