<?xml version="1.0" encoding="UTF-8" standalone="no"?>
<!-- Created with Inkscape (http://www.inkscape.org/) -->

<svg
   xmlns:dc="http://purl.org/dc/elements/1.1/"
   xmlns:cc="http://creativecommons.org/ns#"
   xmlns:rdf="http://www.w3.org/1999/02/22-rdf-syntax-ns#"
   xmlns:svg="http://www.w3.org/2000/svg"
   xmlns="http://www.w3.org/2000/svg"
   version="1.1"
   width="262"
   height="60"
   id="svg2">
  <defs
     id="defs4" />
  <metadata
     id="metadata7">
    <rdf:RDF>
      <cc:Work
         rdf:about="">
        <dc:format>image/svg+xml</dc:format>
        <dc:type
           rdf:resource="http://purl.org/dc/dcmitype/StillImage" />
        <dc:title></dc:title>
      </cc:Work>
    </rdf:RDF>
  </metadata>
  <g
     transform="translate(0,-992.36218)"
     id="layer1">
    <g
       transform="matrix(0.5620239,0,0,0.58592463,-79.75897,632.26634)"
       id="g3060">
      <path
         d="m 284.97806,654.71145 -7.13875,-8.15138 11.014,4.14313 -3.87525,4.00825 z m -14.18562,8.2615 5.31425,-15.30488 6.1625,8.57163 -11.47675,6.73325 z m -9.6035,13.18787 8.08237,-8.39412 6.969,-3.68 -15.05137,12.07412 z m -9.46513,6.48888 -3.43275,3.61912 -23.6485,20.3475 2.98738,-5.41525 1.242,-2.25 20.63837,-17.055 8.96525,-6.918 -6.75175,7.67163 z m -31.63262,23.70187 c -0.6955,1.25825 -1.379,2.56075 -2.06,3.819 -0.68,-1.259 -1.3635,-2.5625 -2.05975,-3.8215 -1.20263,-2.21275 -2.43175,-4.27462 -3.662,-6.44987 1.12,-5.131 2.1845,-10.27525 3.162,-15.44138 0.51812,-2.71062 0.98962,-5.43262 1.4525,-8.157 0.24437,-1.35887 0.44,-2.67625 0.66,-4.04075 0.16275,-1.02375 0.6435,-2.86375 0.6435,-2.86375 0.12012,0.92663 0.36287,1.88925 0.501,2.81375 0.21012,1.3635 0.393,2.72163 0.6255,4.07975 0.44112,2.72163 0.889,5.428 1.38187,8.13788 0.93075,5.15625 1.94738,10.27237 3.01963,15.39387 -1.23,2.18738 -2.4605,4.31763 -3.66425,6.53 z m -32.32275,-20.08275 -3.43238,-3.61912 -6.75137,-7.67163 8.96487,6.918 20.63838,17.055 1.24187,2.25 2.987,5.41525 -23.64837,-20.3475 z m -27.94888,-22.18212 6.969,3.68 8.08225,8.39412 -15.05125,-12.07412 z m 0.13288,-16.41863 5.31537,15.30488 -11.47712,-6.73325 6.16175,-8.57163 z m -12.746,3.03513 11.014,-4.14313 -7.13863,8.15138 -3.87537,-4.00825 z m 15.536,-19.99913 0.69237,-0.80825 7.268,-0.5895 0.0118,0.1225 -10.1215,14.422 -0.12187,0.0493 -12.35763,3.8735 14.62888,-17.0695 z m 11.63025,-7.229 -3.80625,4.43475 -5.94075,0.48188 9.747,-4.91663 z m 6.2135,-2.2415 9.01425,-1.468 c 3.18187,-0.50737 6.357,-1.05837 9.53425,-1.59912 3.17725,-0.53463 17.83275,-2.948 19.03825,-2.9515 1.19725,0.004 15.7415,2.41575 18.895,2.9505 3.1525,0.541 6.30425,1.092 9.46137,1.599 l 8.94363,1.46737 6.13312,6.74213 -4.76325,3.67125 -3.03737,2.104 -8.60488,0.54575 c -3.03837,0.17812 -6.07462,0.411 -9.10987,0.63 l -18.06125,1.32338 -18.06025,-1.32276 c -5.90525,-0.43149 -11.81875,-0.81137 -17.72863,-1.1905 l -3.07625,-2.13025 -4.71162,-3.6315 6.1335,-6.73975 z m 90.84762,7.15813 -5.94037,-0.48188 -3.80375,-4.43262 9.74412,4.9145 z m -13.13012,6.63487 0.69062,-0.5035 6.20888,-4.0535 6.81912,10.97788 -13.71862,-6.42088 z m -11.89813,14.46588 7.7355,-11.79775 18.4365,7.62525 -5.10062,19.0495 -0.022,0.002 -21.04938,-14.8795 z m 1.8975,20.283 1.36238,-0.15975 14.27175,-0.84375 -0.3965,0.45 -14.5885,11.97075 -18.635,14.2745 17.98587,-25.69175 z m -4.22712,0.27387 -17.26238,26.7045 c -1.15437,-4.309 -2.3435,-8.6095 -3.60312,-12.89412 -0.77388,-2.6425 -1.59313,-5.27563 -2.41838,-7.90613 -0.4,-1.31925 -0.85075,-2.62525 -1.2745,-3.938 -0.28275,-0.86637 -0.58712,-1.7285 -0.88825,-2.58987 l 25.44663,0.62362 z m 0.16537,-22.08575 -0.541,0.74088 -17.74387,-8.86888 10.43225,-0.85075 c 3.03487,-0.22712 6.06825,-0.5475 9.09987,-0.81562 l 6.299,-0.53863 -7.54625,10.333 z m 2.30175,17.984 -24.10187,0.70163 20.89562,-15.03388 2.06538,7.02313 1.14087,7.30912 z m -0.63462,-7.40337 -0.80363,-5.00988 18.1995,11.23688 -14.3075,1.378 -1.39287,0.0894 -1.6955,-7.69437 z m -52.05363,-7.42425 24.17463,-10.598 24.17562,10.598 -24.17562,15.49837 -24.17463,-15.49837 z m -1.87087,18.92937 1.44812,-0.0354 2.54338,0.004 c 1.24837,-0.0429 2.49637,-0.0974 3.7435,-0.158 l 17.987,-0.44113 c -0.31013,0.86175 -0.62363,1.72275 -0.91463,2.58975 -0.43725,1.311 -0.89925,2.61388 -1.312,3.931 -0.8515,2.62913 -1.69412,5.25363 -2.49062,7.89625 -1.30463,4.29938 -2.53625,8.6095 -3.73463,12.933 l -17.27012,-26.719 z m -12.24775,-0.82737 c 1.17637,0.13075 2.3545,0.23925 3.53162,0.37637 1.54275,0.16263 3.088,0.26288 4.6335,0.38475 l 17.84125,25.48413 -18.6345,-14.2745 -14.58887,-11.97075 -0.39613,-0.45 7.61313,0.45 z m 12.95787,-20.684 -7.08987,-10.75575 c 4.68787,0.41425 9.37525,0.85425 14.06662,1.2015 l 10.43363,0.85075 -17.41038,8.7035 z m -4.16625,17.37212 c -1.64725,-0.11912 -3.29525,-0.23137 -4.94537,-0.31362 -1.30888,-0.0506 -2.6175,-0.11625 -3.927,-0.1605 l -6.9,-0.66475 18.1995,-11.23688 -0.80363,5.00988 -1.6235,7.36587 z m 2.12988,-7.27162 2.23437,-6.90125 20.72663,14.912 -13.8805,-0.40463 c -1.25088,-0.067 -2.50238,-0.12725 -3.7535,-0.17512 l -3.67438,-0.11013 c -0.93012,-0.0188 -1.86062,-0.0228 -2.79075,-0.0284 l 1.13813,-7.2925 z m -27.389,-15.952 7.58762,-12.21688 6.07563,3.96638 1.298,0.94775 -14.96125,7.30275 z m 17.30937,-4.9825 8.73888,12.02775 -20.71238,14.64025 -0.0216,-0.002 -5.3115,-19.83588 17.30662,-6.82962 z m 92.73963,-6.99988 14.62862,17.0695 -12.65312,-4.12612 -9.94825,-14.21863 0.0125,-0.1225 7.26812,0.5895 0.69263,0.80825 z m 1.95175,-1.94987 -16.67025,-8.40713 -35.70625,-4.93875 c -0.36213,-0.069 -0.72463,-0.13925 -1.0875,-0.2065 -1.199,-0.22187 -2.40338,-0.41175 -3.60425,-0.61975 l -0.0282,-0.005 -0.0274,0.005 c -1.21075,0.20725 -2.42362,0.399 -3.6315,0.61975 -0.36887,0.0673 -0.73737,0.13813 -1.10625,0.20763 l -35.94675,4.93762 -16.67062,8.40713 -18.87663,22.41287 8.2035,7.79638 34.88063,27.24975 33.06975,30.76612 32.99412,-30.76612 34.88075,-27.22713 7.51425,-6.9835 0.76575,-0.658 -18.95312,-22.59037 z"
         id="path2997"
         style="fill:#e60c80;fill-opacity:1;fill-rule:nonzero;stroke:none" />
      <g
         transform="matrix(1.25,0,0,-1.25,78.402188,1064.6097)"
         id="g2999">
        <path
           d="m 411.5633,350.5045 3.892,0 c 0.7895,0 1.4102,-0.2262 1.8048,-0.5644 0.3952,-0.3948 0.62,-0.9034 0.7898,-1.58 0.1122,-0.6772 0.2262,-1.5242 0.2262,-2.4262 0,-0.9028 0,-1.9199 -0.0576,-2.9917 l 0,-2.8774 0,-2.3709 c 0,-0.7333 0,-1.2416 -0.0564,-1.6926 l 0,-0.5644 0,-0.3951 c -0.0558,-0.2821 -0.0558,-0.5647 -0.1687,-0.9592 -0.0561,-0.3385 -0.2259,-0.7331 -0.3945,-1.0718 -0.2262,-0.3957 -0.5086,-0.6781 -0.847,-0.9029 -0.3385,-0.2826 -0.7892,-0.396 -1.3527,-0.396 l -3.8359,0 0,18.7926 z m 11.5067,-4.5142 c 0,1.3541 -0.2823,2.4832 -0.7891,3.3852 -0.4525,0.8467 -1.1297,1.5236 -1.9188,2.0324 -0.7895,0.5068 -1.5792,0.8464 -2.482,1.0154 -0.902,0.2259 -1.7476,0.3384 -2.5385,0.282 l -8.7426,0 -0.0561,-47.9679 4.964,0 0,21.1627 0,3.2726 0.5071,0 6.8814,-24.4353 4.8518,0 c 0,0.0565 -0.1139,0.3946 -0.3387,1.1291 -0.2262,0.7336 -0.5083,1.6928 -0.8467,2.9344 -0.3949,1.2416 -0.7898,2.5954 -1.2408,4.1196 -0.5071,1.5236 -0.9589,3.1039 -1.4663,4.7401 -0.5083,1.6364 -0.9593,3.1603 -1.4103,4.6843 -0.451,1.5236 -0.9017,2.878 -1.2401,4.0634 -0.396,1.1838 -0.6772,2.1436 -0.9034,2.7644 2.2,0.3957 3.8925,1.0726 5.0201,2.0882 1.1282,1.0154 1.6929,2.4271 1.749,4.176 l 0,10.5534 z m -33.2793,6.715 0,-1.2974 0,-3.6689 0,-5.3611 c 0.0564,-2.0311 0.0564,-4.2319 0.0564,-6.5464 l 0,-7.1098 0,-7.054 0,-6.5464 0,-5.3611 0,-3.6684 0,-1.3544 0.7331,0 1.8051,0 2.5384,0 2.7079,0 2.5384,0 1.8049,0 0.733,0 0,0.3946 0,0.847 0,0.847 0,0.3949 -0.5647,0 -1.4663,0 -1.8612,0 -1.9174,0 -1.4678,0 -0.5632,0 0,0.9028 0,2.5396 0,3.4988 0,4.0059 c 0,1.4114 -0.0564,2.7652 -0.0564,4.0632 l 0,3.4988 0,2.4831 0,0.9596 0.5635,0 1.3541,0 1.7487,0 1.8051,0 1.3541,0 0.5633,0 0,0.3957 0,0.7894 0,0.8467 0,0.3952 -0.5633,0 -1.3541,0 -1.8051,0 -1.7487,0 -1.3541,0 -0.5635,0 0,0.7903 0,2.1435 0,2.9917 0,3.3863 0,3.4413 0,2.9916 0,2.0883 0,0.7895 0.5635,0 1.5239,0 1.9174,0 1.8612,0 1.5228,0 0.5643,0 0,0.3948 0,0.8467 0,0.9034 0,0.3382 -12.9733,0 z m -21.6598,0 0.0564,-47.9679 4.9076,0 0,0.2263 0,0.9028 0,2.3136 0,4.2319 0,6.8289 0,9.989 7.1637,0 0,-24.4925 4.9065,0 0,47.9679 -4.9065,0 0,-21.0498 -7.1637,0 0,21.0498 -4.964,0 z m -21.8846,-2.4831 5.9786,0 0,-45.4848 4.9637,0 0,45.4848 6.0919,0 0,2.4831 -17.0342,0 0,-2.4831 z m -6.3181,2.4831 0,-34.0852 -12.1267,34.0852 -2.482,0 0,-47.9679 2.482,0 0,34.424 12.1831,-34.424 2.4256,0 0,47.9679 -2.482,0 z m -27.6381,-7.1671 3.4974,-29.4576 -0.5083,0 -1.353,0 -1.7484,0 -1.6928,0 -1.3541,0 -0.5069,0 3.2151,29.4576 0.451,0 z m -2.4259,7.1671 c 0,0 -0.0561,-0.451 -0.1125,-1.2974 -0.1123,-0.9034 -0.2257,-2.0888 -0.3946,-3.6689 -0.1698,-1.5239 -0.3946,-3.3287 -0.6208,-5.3611 -0.2248,-2.0311 -0.451,-4.2319 -0.7331,-6.5464 -0.2253,-2.3133 -0.5074,-4.6828 -0.7897,-7.1098 -0.282,-2.3709 -0.5068,-4.7404 -0.7894,-7.054 -0.2262,-2.3145 -0.5083,-4.5154 -0.7334,-6.5464 -0.2259,-2.0324 -0.3945,-3.8372 -0.5646,-5.3611 -0.1684,-1.5801 -0.3382,-2.7655 -0.3946,-3.6684 -0.1123,-0.8458 -0.1684,-1.2979 -0.1684,-1.3544 l 0.3946,0 0.902,0 0.9028,0 0.451,0 c 0,0.0565 0,0.2827 0.0561,0.6772 0.0564,0.4519 0.1701,0.9593 0.2262,1.6362 0.1126,0.6772 0.2248,1.3552 0.3385,2.1447 0.1125,0.7333 0.2248,1.4678 0.2823,2.0886 0.1123,0.6769 0.2248,1.2418 0.2812,1.6364 0.0562,0.451 0.0562,0.6766 0.0562,0.6766 l 0.5646,0 1.4664,0 1.8612,0 1.8048,0 1.467,0 0.5643,0 c 0,0 0,-0.2256 0.0562,-0.6766 0.0561,-0.3946 0.1686,-0.9595 0.2259,-1.6364 0.0564,-0.6208 0.1689,-1.3553 0.2812,-2.0886 0.0564,-0.7895 0.1698,-1.4675 0.2262,-2.1447 0.1125,-0.6769 0.1684,-1.1843 0.2262,-1.6362 0.0561,-0.3945 0.0561,-0.6207 0.0561,-0.6772 l 0.5071,0 1.0718,0 1.3541,0 1.1276,0 0.451,0 c 0,0.0565 -0.0561,0.5086 -0.1683,1.3544 -0.1137,0.9029 -0.2827,2.0883 -0.4525,3.6684 -0.1683,1.5239 -0.3945,3.3287 -0.6757,5.3611 -0.2262,2.031 -0.5083,4.2319 -0.7906,6.5464 -0.2812,2.3136 -0.6197,4.6831 -0.902,7.054 -0.282,2.427 -0.6208,4.7965 -0.9028,7.1098 -0.2812,2.3145 -0.5636,4.5153 -0.7895,6.5464 -0.2823,2.0324 -0.451,3.8372 -0.6772,5.3611 -0.1686,1.5801 -0.3387,2.7655 -0.451,3.6689 -0.1125,0.8464 -0.1686,1.2974 -0.1686,1.2974 l -5.9233,0 z m -20.0234,-2.2008 4.5131,0 c 0.7894,0 1.3527,-0.2262 1.7472,-0.5644 0.3949,-0.3948 0.6772,-0.9034 0.7909,-1.58 0.1689,-0.6772 0.2248,-1.4667 0.2248,-2.4262 l 0,-2.9917 0,-2.8774 c 0,-0.847 0,-1.6365 -0.0559,-2.3709 l 0,-1.6362 0,-0.6208 c 0,0 0,-0.1128 -0.0564,-0.3951 0,-0.2259 -0.0564,-0.5647 -0.1125,-0.9028 -0.1137,-0.3385 -0.2262,-0.7336 -0.4521,-1.1282 -0.1687,-0.3396 -0.4507,-0.6208 -0.7895,-0.9029 -0.3384,-0.2262 -0.7894,-0.3387 -1.3541,-0.396 l -4.4555,0 0,18.7926 z m 12.0702,-4.5142 c 0,1.3541 -0.225,2.4832 -0.6196,3.3852 -0.3946,0.8467 -1.0157,1.5236 -1.6923,2.0324 -0.7333,0.5068 -1.5792,0.8464 -2.4823,1.0154 -0.902,0.2259 -1.8612,0.3384 -2.8766,0.282 l -9.3062,0 -0.0572,-47.9679 4.9076,0 0,24.4925 4.5695,0 c 2.5381,0 4.4555,0.5071 5.6959,1.5228 1.2416,1.0726 1.8612,2.5968 1.8612,4.6842 l 0,10.5534 z m -35.0266,-41.2529 4.9629,0 -8.1782,32.6177 7.897,15.5203 -2.4823,0 -9.4759,-18.6239 0,18.6239 -4.9076,0 0,-48.138 4.9076,0 0,24.6609 0.7897,1.5806 6.4868,-26.2415 z m -19.3478,47.9679 0,-34.0852 -12.1266,34.0852 -2.4821,0 0,-47.9679 2.4821,0 0,34.424 12.2402,-34.424 2.4245,0 0,47.9679 -2.5381,0 z m -24.7054,-48.0801 4.9643,0 0,48.0801 -4.9643,0 0,-48.0801 z m -16.075,45.8793 4.4555,0 c 0.7897,0 1.3544,-0.2262 1.749,-0.5644 0.3946,-0.3948 0.6772,-0.9034 0.8456,-1.58 0.1136,-0.6772 0.17,-1.4667 0.17,-2.4262 l 0,-2.9917 0,-2.8774 0,-2.3709 c -0.0564,-0.6769 -0.0564,-1.2416 -0.0564,-1.6362 l 0,-0.6208 0,-0.3951 c -0.0572,-0.2259 -0.1136,-0.5647 -0.1698,-0.9028 -0.0561,-0.3385 -0.2259,-0.7336 -0.451,-1.1282 -0.1697,-0.3396 -0.4509,-0.6208 -0.7894,-0.9029 -0.3385,-0.2262 -0.7906,-0.3387 -1.3538,-0.396 l -4.3997,0 0,18.7926 z m 12.0702,-4.5142 c -0.0561,1.3541 -0.2256,2.4832 -0.6766,3.3852 -0.3952,0.8467 -0.9581,1.5236 -1.6917,2.0324 -0.7331,0.5068 -1.5801,0.8464 -2.4818,1.0154 -0.9031,0.2259 -1.8612,0.3384 -2.8768,0.282 l -9.3073,0 -0.0561,-47.9679 4.9065,0 0,24.4925 4.5691,0 c 2.5384,0 4.4558,0.5071 5.6974,1.5228 1.2407,1.0726 1.9173,2.5968 1.9173,4.6842 l 0,10.5534 z"
           id="path3001"
           style="fill:#2b2b2a;fill-opacity:1;fill-rule:nonzero;stroke:none" />
        <path
           d="m 201.7718,298.0389 1.9978,0 0,-10.1421 5.5262,0 0,10.1421 1.9973,0 0,-10.1421 1.2872,0 0,-4.9841 -1.6421,0 0,3.3406 -9.1664,0 0,11.7856 z"
           id="path3003"
           style="fill:#2b2b2a;fill-opacity:1;fill-rule:nonzero;stroke:none" />
        <path
           d="m 222.5789,293.2787 6.5801,0 c -0.0887,0.9904 -0.3399,1.7348 -0.7535,2.2297 -0.6378,0.7705 -1.4618,1.1546 -2.4749,1.1546 -0.9176,0 -1.6889,-0.3076 -2.3133,-0.9213 -0.6256,-0.6137 -0.9715,-1.4352 -1.0384,-2.463 z m 6.5585,-3.2295 2.0634,-0.2557 c -0.3251,-1.2056 -0.9281,-2.1413 -1.8085,-2.8075 -0.8805,-0.6652 -2.0047,-0.9989 -3.3732,-0.9989 -1.7238,0 -3.0909,0.5309 -4.1004,1.5922 -1.0097,1.0622 -1.5145,2.5512 -1.5145,4.4677 0,1.9817 0.5097,3.5215 1.5313,4.616 1.0202,1.0941 2.3442,1.6421 3.9724,1.6421 1.5764,0 2.8633,-0.5358 3.8622,-1.609 0.999,-1.0726 1.4979,-2.5823 1.4979,-4.5272 0,-0.1185 -0.004,-0.2965 -0.0111,-0.5323 l -8.7891,0 c 0.0743,-1.2955 0.4399,-2.287 1.0993,-2.9736 0.6576,-0.6902 1.4797,-1.0335 2.463,-1.0335 0.733,0 1.3575,0.1928 1.8754,0.578 0.5179,0.3838 0.9284,0.9984 1.2319,1.8417"
           id="path3005"
           style="fill:#2b2b2a;fill-opacity:1;fill-rule:nonzero;stroke:none" />
        <path
           d="m 240.0347,298.0389 1.9976,0 0,-4.9054 5.5369,0 0,4.9054 1.9978,0 0,-11.7856 -1.9978,0 0,5.2271 -5.5369,0 0,-5.2271 -1.9976,0 0,11.7856 z"
           id="path3007"
           style="fill:#2b2b2a;fill-opacity:1;fill-rule:nonzero;stroke:none" />
        <path
           d="m 257.8124,298.0389 9.576,0 0,-1.6529 -3.7953,0 0,-10.1327 -1.9856,0 0,10.1327 -3.7951,0 0,1.6529 z"
           id="path3009"
           style="fill:#2b2b2a;fill-opacity:1;fill-rule:nonzero;stroke:none" />
        <path
           d="m 277.4208,292.0805 c 0,-1.518 0.3062,-2.6377 0.921,-3.3636 0.6137,-0.7248 1.3575,-1.0874 2.2309,-1.0874 0.8875,0 1.6483,0.3759 2.2799,1.1268 0.6327,0.7514 0.9484,1.9139 0.9484,3.4903 0,1.5023 -0.3087,2.6257 -0.9258,3.3735 -0.6182,0.7475 -1.3563,1.1205 -2.2141,1.1205 -0.8507,0 -1.6038,-0.3982 -2.2584,-1.1934 -0.6553,-0.7956 -0.9819,-1.9499 -0.9819,-3.4667 z m -1.8085,-10.3419 0,16.3 1.8193,0 0,-1.5313 c 0.4294,0.5996 0.9139,1.0491 1.4542,1.3482 0.5397,0.3005 1.1939,0.4499 1.9644,0.4499 1.006,0 1.8935,-0.2597 2.6626,-0.7765 0.769,-0.5176 1.3504,-1.2486 1.7427,-2.1914 0.3909,-0.9437 0.5888,-1.9783 0.5888,-3.1028 0,-1.2056 -0.218,-2.2907 -0.6497,-3.257 -0.4332,-0.9638 -1.0625,-1.7059 -1.8862,-2.2187 -0.8258,-0.5145 -1.6926,-0.7716 -2.6031,-0.7716 -0.6661,0 -1.2631,0.1397 -1.7915,0.4224 -0.5289,0.2809 -0.9643,0.6363 -1.3042,1.0647 l 0,-5.7359 -1.9973,0 z"
           id="path3011"
           style="fill:#2b2b2a;fill-opacity:1;fill-rule:nonzero;stroke:none" />
        <path
           d="m 300.8687,298.0389 1.9976,0 0,-5.0944 c 0.6364,0 1.0814,0.1233 1.3374,0.3676 0.2548,0.2438 0.6304,0.9545 1.1256,2.13 0.3923,0.932 0.7107,1.5468 0.9544,1.8419 0.2441,0.2957 0.5253,0.4955 0.8434,0.5996 0.3183,0.104 0.8288,0.1553 1.5321,0.1553 l 0.3997,0 0,-1.6529 -0.5551,0.0108 c -0.5261,0 -0.8625,-0.078 -1.0097,-0.2322 -0.1553,-0.1638 -0.3931,-0.6483 -0.7103,-1.4547 -0.3036,-0.7699 -0.5814,-1.3022 -0.8326,-1.5979 -0.2511,-0.2954 -0.64,-0.5669 -1.165,-0.8099 0.8578,-0.2293 1.7011,-1.0287 2.5299,-2.3969 l 2.1864,-3.6519 -2.1971,0 -2.1303,3.6519 c -0.4379,0.7319 -0.8183,1.2155 -1.1438,1.4473 -0.3251,0.2333 -0.714,0.3493 -1.165,0.3493 l 0,-5.4485 -1.9976,0 0,11.7856 z"
           id="path3013"
           style="fill:#2b2b2a;fill-opacity:1;fill-rule:nonzero;stroke:none" />
        <path
           d="m 318.9461,292.0805 c 0,-1.518 0.3073,-2.6377 0.9218,-3.3636 0.6129,-0.7248 1.3567,-1.0874 2.2298,-1.0874 0.8878,0 1.6486,0.3759 2.2799,1.1268 0.6327,0.7514 0.9499,1.9139 0.9499,3.4903 0,1.5023 -0.3099,2.6257 -0.9272,3.3735 -0.6183,0.7475 -1.3553,1.1205 -2.2142,1.1205 -0.8501,0 -1.6035,-0.3982 -2.2581,-1.1934 -0.6553,-0.7956 -0.9819,-1.9499 -0.9819,-3.4667 z m -1.8099,-10.3419 0,16.3 1.8204,0 0,-1.5313 c 0.4297,0.5996 0.9142,1.0491 1.4547,1.3482 0.5395,0.3005 1.1948,0.4499 1.9627,0.4499 1.0075,0 1.8947,-0.2597 2.664,-0.7765 0.7691,-0.5176 1.3502,-1.2486 1.7425,-2.1914 0.3926,-0.9437 0.5888,-1.9783 0.5888,-3.1028 0,-1.2056 -0.2177,-2.2907 -0.6495,-3.257 -0.4328,-0.9638 -1.0621,-1.7059 -1.8864,-2.2187 -0.8263,-0.5145 -1.6926,-0.7716 -2.6028,-0.7716 -0.6661,0 -1.2642,0.1397 -1.7918,0.4224 -0.5286,0.2809 -0.964,0.6363 -1.305,1.0647 l 0,-5.7359 -1.9976,0 z"
           id="path3015"
           style="fill:#2b2b2a;fill-opacity:1;fill-rule:nonzero;stroke:none" />
        <path
           d="m 343.6152,292.1695 c -0.7246,-0.2968 -1.8133,-0.548 -3.2641,-0.7549 -0.8192,-0.1185 -1.4009,-0.2526 -1.7416,-0.3997 -0.3396,-0.1482 -0.6018,-0.3659 -0.7883,-0.6494 -0.184,-0.2849 -0.2764,-0.6018 -0.2764,-0.9487 0,-0.5321 0.2012,-0.9757 0.6052,-1.3312 0.4034,-0.3552 0.993,-0.5323 1.7694,-0.5323 0.7699,0 1.4533,0.1661 2.0537,0.5034 0.5981,0.3376 1.0383,0.7979 1.3192,1.3819 0.2154,0.4518 0.3229,1.1171 0.3229,1.9973 l 0,0.7336 z m 0.1664,-4.462 c -0.739,-0.6288 -1.4522,-1.0727 -2.1365,-1.3323 -0.6851,-0.2585 -1.4185,-0.3878 -2.2017,-0.3878 -1.2957,0 -2.2909,0.3172 -2.986,0.9488 -0.6948,0.6327 -1.0428,1.4414 -1.0428,2.4247 0,0.5774 0.1303,1.1041 0.3937,1.5823 0.2616,0.4762 0.6052,0.8589 1.0321,1.148 0.4243,0.2886 0.9042,0.5063 1.4366,0.6546 0.3923,0.1031 0.9833,0.2035 1.775,0.299 1.6135,0.1939 2.8004,0.4221 3.5632,0.6891 0.007,0.2724 0.0108,0.4476 0.0108,0.5213 0,0.8136 -0.1877,1.3864 -0.567,1.7201 -0.5096,0.451 -1.2676,0.6772 -2.2736,0.6772 -0.9392,0 -1.6331,-0.1661 -2.0801,-0.4941 -0.4487,-0.3288 -0.7801,-0.9128 -0.9944,-1.7487 l -1.9519,0.2667 c 0.1771,0.8363 0.4691,1.5109 0.8756,2.0251 0.4068,0.5142 0.9949,0.9102 1.7643,1.188 0.769,0.2772 1.6602,0.4159 2.6747,0.4159 1.0061,0 1.8227,-0.1183 2.4531,-0.3549 0.6279,-0.237 1.0911,-0.5347 1.3865,-0.8938 0.2953,-0.3589 0.5034,-0.8121 0.6208,-1.3601 0.0671,-0.3396 0.0992,-0.953 0.0992,-1.8408 l 0,-2.6626 c 0,-1.8578 0.0442,-3.0333 0.1292,-3.5249 0.0839,-0.4918 0.2537,-0.9629 0.5049,-1.4139 l -2.0863,0 c -0.2067,0.4139 -0.3407,0.8995 -0.3994,1.4531"
           id="path3017"
           style="fill:#2b2b2a;fill-opacity:1;fill-rule:nonzero;stroke:none" />
        <path
           d="m 362.7351,290.5713 1.9653,-0.256 c -0.2154,-1.3538 -0.7656,-2.4125 -1.6483,-3.1793 -0.8853,-0.7656 -1.9712,-1.148 -3.2585,-1.148 -1.6123,0 -2.9092,0.5261 -3.8885,1.5809 -0.9811,1.0539 -1.4701,2.5656 -1.4701,4.5323 0,1.2739 0.2092,2.3865 0.6327,3.3409 0.4198,0.9544 1.0633,1.6707 1.9247,2.1469 0.8612,0.4788 1.7989,0.7166 2.8131,0.7166 1.2799,0 2.3267,-0.324 3.1403,-0.9714 0.8132,-0.6483 1.3356,-1.5656 1.5644,-2.7567 l -1.9417,-0.3005 c -0.1851,0.7918 -0.5117,1.3873 -0.9819,1.7873 -0.4712,0.3994 -1.0381,0.5989 -1.7045,0.5989 -1.006,0 -1.8227,-0.3611 -2.452,-1.0825 -0.6279,-0.7211 -0.9425,-1.8621 -0.9425,-3.4231 0,-1.5826 0.3027,-2.7332 0.9088,-3.4512 0.6077,-0.7175 1.3997,-1.0763 2.376,-1.0763 0.7846,0 1.4386,0.2404 1.9638,0.7225 0.5253,0.4797 0.8589,1.2189 0.9989,2.2187"
           id="path3019"
           style="fill:#2b2b2a;fill-opacity:1;fill-rule:nonzero;stroke:none" />
        <path
           d="m 374.0332,292.146 c 0,-1.5095 0.3274,-2.6385 0.9865,-3.39 0.6593,-0.7512 1.4867,-1.1254 2.4857,-1.1254 0.9915,0 1.817,0.3768 2.476,1.1314 0.6568,0.7548 0.987,1.9057 0.987,3.452 0,1.4559 -0.3313,2.56 -0.9929,3.3111 -0.6628,0.7509 -1.4857,1.1279 -2.4701,1.1279 -0.999,0 -1.8264,-0.3744 -2.4857,-1.1219 -0.6591,-0.7475 -0.9865,-1.8757 -0.9865,-3.3851 z m -2.0537,0 c 0,2.1829 0.606,3.8001 1.8204,4.8503 1.0131,0.872 2.2484,1.3088 3.7055,1.3088 1.6208,0 2.9449,-0.5312 3.9736,-1.5922 1.0275,-1.0611 1.5417,-2.5288 1.5417,-4.3994 0,-1.5166 -0.2273,-2.7105 -0.6828,-3.5802 -0.4544,-0.8685 -1.116,-1.544 -1.9857,-2.0239 -0.8697,-0.4808 -1.8182,-0.7211 -2.8468,-0.7211 -1.6495,0 -2.9829,0.5286 -4,1.5859 -1.0177,1.0574 -1.5259,2.5824 -1.5259,4.5718"
           id="path3021"
           style="fill:#2b2b2a;fill-opacity:1;fill-rule:nonzero;stroke:none" />
        <path
           d="m 390.6006,298.0389 9.5774,0 0,-1.6529 -3.7967,0 0,-10.1327 -1.9857,0 0,10.1327 -3.795,0 0,1.6529 z"
           id="path3023"
           style="fill:#2b2b2a;fill-opacity:1;fill-rule:nonzero;stroke:none" />
        <path
           d="m 419.618,298.0395 1.9976,0 0,-11.7854 -1.9976,0 0,11.7854 z m -9.1769,-10.1432 2.0968,0 c 1.2659,0 2.1688,0.1556 2.7082,0.4663 0.5394,0.3101 0.811,0.7956 0.811,1.4547 0,0.5082 -0.201,0.9641 -0.6004,1.3637 -0.3994,0.3994 -1.2824,0.599 -2.6518,0.599 l -2.3638,0 0,-3.8837 z m -1.9973,10.1432 1.9973,0 0,-4.6061 2.5299,0 c 1.6509,0 2.9197,-0.3208 3.8121,-0.9595 0.8912,-0.6398 1.3373,-1.5213 1.3373,-2.6473 0,-0.983 -0.3719,-1.8249 -1.1148,-2.5236 -0.7438,-0.6996 -1.933,-1.0489 -3.568,-1.0489 l -4.9938,0 0,11.7854 z"
           id="path3025"
           style="fill:#2b2b2a;fill-opacity:1;fill-rule:nonzero;stroke:none" />
      </g>
    </g>
  </g>
</svg>
