<svg 
 xmlns="http://www.w3.org/2000/svg"
 xmlns:xlink="http://www.w3.org/1999/xlink"
 width="35px" height="31px">
<path fill-rule="evenodd"  fill="rgb(223, 61, 123)"
 d="M34.991,9.782 C34.992,9.754 34.992,9.727 34.989,9.699 C34.987,9.675 34.984,9.652 34.978,9.628 C34.971,9.601 34.963,9.575 34.952,9.548 C34.947,9.534 34.946,9.520 34.939,9.507 C34.935,9.497 34.926,9.490 34.921,9.480 C34.916,9.470 34.914,9.460 34.908,9.450 C29.074,0.265 29.074,0.265 29.074,0.265 C29.048,0.223 29.016,0.185 28.980,0.152 C28.980,0.151 28.979,0.151 28.979,0.151 C28.929,0.104 28.869,0.071 28.805,0.044 C28.797,0.041 28.792,0.034 28.783,0.031 C28.777,0.028 28.770,0.030 28.763,0.028 C28.705,0.008 28.644,-0.005 28.580,-0.005 C6.414,-0.005 6.414,-0.005 6.414,-0.005 C6.351,-0.005 6.290,0.008 6.233,0.027 C6.226,0.029 6.220,0.028 6.214,0.030 C6.205,0.033 6.200,0.040 6.192,0.043 C6.131,0.068 6.074,0.100 6.025,0.144 C6.022,0.147 6.018,0.148 6.015,0.151 C5.978,0.184 5.946,0.222 5.920,0.264 C0.086,9.450 0.086,9.450 0.086,9.450 C0.080,9.459 0.078,9.469 0.073,9.479 C0.068,9.489 0.059,9.497 0.055,9.506 C0.048,9.520 0.047,9.534 0.041,9.547 C0.031,9.574 0.022,9.601 0.016,9.628 C0.010,9.651 0.006,9.675 0.004,9.699 C-0.000,9.727 -0.001,9.755 0.000,9.782 C0.002,9.807 0.004,9.829 0.008,9.853 C0.013,9.881 0.020,9.908 0.030,9.934 C0.037,9.957 0.045,9.979 0.056,10.001 C0.061,10.011 0.063,10.022 0.069,10.033 C0.078,10.049 0.092,10.062 0.103,10.078 C0.111,10.090 0.115,10.103 0.125,10.114 C17.036,30.773 17.036,30.773 17.036,30.773 C17.037,30.774 17.038,30.776 17.039,30.777 C17.042,30.781 17.042,30.781 17.042,30.781 C17.044,30.783 17.047,30.784 17.048,30.786 C17.096,30.843 17.156,30.886 17.220,30.920 C17.238,30.930 17.254,30.937 17.272,30.945 C17.343,30.974 17.418,30.995 17.496,30.995 C17.562,30.995 17.629,30.984 17.696,30.960 C17.706,30.957 17.712,30.949 17.722,30.945 C17.752,30.932 17.775,30.913 17.802,30.896 C17.846,30.869 17.888,30.840 17.922,30.803 C17.930,30.794 17.943,30.790 17.950,30.781 C34.867,10.114 34.867,10.114 34.867,10.114 C34.876,10.103 34.881,10.089 34.890,10.078 C34.901,10.062 34.914,10.049 34.923,10.033 C34.929,10.022 34.931,10.011 34.936,10.001 C34.947,9.979 34.955,9.957 34.963,9.934 C34.971,9.908 34.979,9.881 34.984,9.853 C34.988,9.829 34.990,9.807 34.991,9.782 ZM27.740,1.144 L24.905,8.633 L18.722,1.144 L27.740,1.144 ZM11.139,9.181 L17.496,1.481 L23.854,9.181 L11.139,9.181 ZM7.247,1.144 L16.270,1.144 L10.046,8.683 L7.247,1.144 ZM17.394,28.473 L10.657,10.329 L24.263,10.329 L17.394,28.473 ZM33.360,9.181 L25.942,9.181 L28.712,1.863 L33.360,9.181 ZM8.988,9.181 L1.632,9.181 L6.274,1.871 L8.988,9.181 ZM15.738,27.358 L1.798,10.329 L9.415,10.329 L15.738,27.358 ZM25.507,10.329 L33.193,10.329 L18.894,27.798 L25.507,10.329 Z"/>
</svg>