<svg xmlns="http://www.w3.org/2000/svg" width="112" height="82"><path d="M89.977 26.076a1.56 1.56 0 0 0-.08-.806c-.014-.036-.017-.075-.034-.11-.012-.025-.033-.045-.046-.07-.014-.027-.02-.054-.035-.08L74.779.714a1.547 1.547 0 0 0-.242-.3c-.001 0-.003 0-.004-.002a1.469 1.469 0 0 0-.446-.281c-.02-.01-.034-.028-.057-.037-.016-.006-.034-.003-.05-.008A1.457 1.457 0 0 0 73.507 0H16.496a1.45 1.45 0 0 0-.465.085c-.017.005-.033.001-.048.008-.023.008-.036.026-.057.035-.156.065-.303.15-.43.265-.008.008-.019.013-.026.019-.093.088-.176.19-.245.3L.222 25.01c-.015.024-.021.053-.035.078-.013.026-.034.046-.046.072-.017.035-.02.073-.035.11a1.507 1.507 0 0 0-.03 1.023c.02.059.04.117.068.174.013.028.018.058.033.085.024.044.06.078.087.119.02.032.033.067.058.097l43.493 54.645a.062.062 0 0 0 .009.011l.008.01c.004.007.012.009.016.014.123.15.276.264.443.356.045.024.087.045.133.065.182.077.374.132.575.132.17 0 .343-.03.514-.092.026-.01.042-.03.068-.042.076-.031.136-.083.205-.127.114-.073.22-.15.31-.248.02-.022.052-.033.071-.057l43.51-54.667c.024-.03.036-.067.059-.097.028-.041.062-.074.086-.119.015-.027.02-.057.033-.085a1.53 1.53 0 0 0 .068-.174c.021-.072.042-.142.054-.216m0 0z" fill="#ececec" fill-rule="evenodd"/><g fill="#df3d7b"><path d="M72.949 82a7.815 7.815 0 0 1-5.574-2.346 8.003 8.003 0 0 1-2.312-5.638c0-2.2.884-4.197 2.312-5.642a7.816 7.816 0 0 1 5.574-2.34c2.174 0 4.146.895 5.574 2.34a8.007 8.007 0 0 1 2.312 5.642 8.004 8.004 0 0 1-2.312 5.638A7.818 7.818 0 0 1 72.949 82zm0-11c-.825 0-1.569.337-2.105.88l-.005.005a3.02 3.02 0 0 0-.87 2.131c0 .835.335 1.59.875 2.137.536.544 1.28.88 2.105.88.824 0 1.568-.336 2.105-.88a3.03 3.03 0 0 0 .874-2.137c0-.83-.335-1.585-.874-2.13-.02-.02-.038-.04-.056-.061a2.95 2.95 0 0 0-2.05-.824m15.109-7.67c-.31 0-.629-.064-.934-.191a2.463 2.463 0 0 1-.796-.53l-.006-.005a18.876 18.876 0 0 0-6.128-4.164 18.7 18.7 0 0 0-7.247-1.444c-2.534 0-4.986.497-7.247 1.445a18.846 18.846 0 0 0-6.125 4.157l-.005.006a2.426 2.426 0 0 1-1.73.727 2.43 2.43 0 0 1-1.73-.727l-.002-.002-.002.002a2.492 2.492 0 0 1-.719-1.756c0-.636.24-1.271.719-1.756A23.77 23.77 0 0 1 63.9 53.83a23.52 23.52 0 0 1 9.046-1.799c3.174 0 6.259.628 9.117 1.827a23.768 23.768 0 0 1 7.725 5.239l.002-.002a2.49 2.49 0 0 1 .719 1.756c0 .634-.24 1.27-.719 1.755-.228.232-.502.41-.8.535a2.418 2.418 0 0 1-.933.192"/><path d="M98.804 53.16a2.466 2.466 0 0 1-1.73-.726l-.004-.003-.002.002-.001-.002A33.795 33.795 0 0 0 72.95 42.333a33.8 33.8 0 0 0-24.117 10.098l-.002.002a2.427 2.427 0 0 1-3.464 0l-.003-.002-.002.002a1.34 1.34 0 0 1-.096-.107 2.487 2.487 0 0 1-.623-1.649c0-.632.24-1.266.718-1.75l.003-.002-.003-.003A38.65 38.65 0 0 1 72.95 37.378a38.664 38.664 0 0 1 27.59 11.544c.479.485.719 1.12.719 1.756 0 .632-.24 1.266-.719 1.75l-.002.003.002.002a1.334 1.334 0 0 1-.114.103 2.46 2.46 0 0 1-1.622.623"/><path d="M109.547 43.346a2.47 2.47 0 0 1-1.73-.726l-.003-.003-.002.003c-9.61-9.726-22.237-14.59-34.864-14.59-12.626 0-25.252 4.863-34.863 14.59a2.432 2.432 0 0 1-3.47 0 2.491 2.491 0 0 1-.718-1.756c0-.636.24-1.272.718-1.756 10.57-10.698 24.45-16.045 38.332-16.045 13.883 0 27.766 5.349 38.335 16.045.034.034.065.07.095.106.415.47.623 1.06.623 1.65 0 .631-.24 1.266-.718 1.75l-.003.003.003.002c-.23.231-.502.41-.8.535a2.424 2.424 0 0 1-.934.191"/></g></svg>