<svg xmlns="http://www.w3.org/2000/svg" width="115" height="82"><path d="M305.413 400.58a1.947 1.947 0 0 1 .019.519 1.903 1.903 0 0 1-.124.51c-.018.046-.021.094-.043.139-.015.033-.042.058-.06.09-.017.034-.025.069-.044.101l-19.368 30.99c-.09.141-.194.27-.312.382l-.006.004a1.928 1.928 0 0 1-.576.358c-.027.011-.044.035-.073.046-.021.008-.045.004-.066.01-.196.066-.397.11-.608.11h-73.6a1.89 1.89 0 0 1-.6-.108c-.022-.006-.043-.002-.062-.01-.029-.01-.047-.033-.074-.045a1.923 1.923 0 0 1-.555-.338c-.01-.01-.024-.016-.034-.024a1.946 1.946 0 0 1-.315-.383l-19.368-30.99c-.02-.03-.028-.067-.045-.1-.017-.033-.045-.058-.06-.09-.021-.045-.025-.094-.044-.14a1.918 1.918 0 0 1 .048-1.529c.017-.035.023-.073.042-.108.031-.056.078-.099.113-.151.027-.041.042-.085.075-.124L245.82 330a.051.051 0 0 1 .012-.013l.01-.014c.006-.008.015-.01.02-.017a1.91 1.91 0 0 1 .572-.454c.058-.03.113-.058.173-.083.234-.099.482-.168.741-.168.221 0 .444.038.665.118.033.011.054.038.087.052.099.04.176.107.265.163.147.093.285.19.4.316.026.028.067.042.092.073l56.168 69.726c.031.039.047.085.076.124.037.052.081.095.112.15.02.036.025.074.043.11.035.073.062.145.087.222.027.091.054.18.07.275m0 0z" fill="#ececec" fill-rule="evenodd" stroke="#ececec" stroke-width=".216" stroke-miterlimit="22.926" transform="matrix(.76576 0 0 -.78243 -144.836 339.539)"/><path d="M106.941 43.062c.297-1.414.58-2.829.836-4.288.108-.617.014-2.543-1.874-2.543h-57.49c-1.875 0-1.983 1.926-1.875 2.543 3.035 16.613 7.795 30.186 13.567 38.929h-9.103c-1.052 0-1.901.948-1.901 2.121 0 1.174.85 2.122 1.901 2.122h52.311c1.052 0 1.902-.948 1.902-2.122 0-1.173-.85-2.121-1.902-2.121h-9.102c1.699-2.574 3.317-5.583 4.828-8.969 6.702-.226 13.485-5.492 15.522-12.204 1.402-4.65-.216-13.227-7.62-13.468zm-17.612 34.64H64.987c-5.948-7.523-10.95-20.63-14.228-37.213h52.797c-3.263 16.583-8.267 29.675-14.227 37.214zm21.618-22.541c-1.322 4.319-5.624 8.05-10.034 9.074 1.929-5.041 3.655-10.76 5.111-17.02 5.287.076 5.57 5.84 4.923 7.946M67.684 18.255c-1.052 0-1.902.948-1.902 2.122v8.457c-.013 1.174.837 2.122 1.902 2.122 1.052 0 1.901-.948 1.901-2.122v-8.457c0-1.174-.85-2.122-1.901-2.122m9.467-4.228c-1.052 0-1.901.948-1.901 2.122v8.457c0 1.173.85 2.121 1.901 2.121 1.052 0 1.901-.948 1.901-2.121v-8.457c.014-1.174-.85-2.122-1.901-2.122m8.786 4.228c-1.052 0-1.901.948-1.901 2.122v8.457c0 1.174.85 2.122 1.901 2.122 1.052 0 1.902-.948 1.902-2.122v-8.457c0-1.174-.85-2.122-1.902-2.122" fill="#df3d7b" fill-rule="evenodd"/></svg>