<svg xmlns="http://www.w3.org/2000/svg" width="117" height="82"><path d="M498.72 214.787a2.192 2.192 0 0 1 .02.52 1.891 1.891 0 0 1-.124.51c-.018.045-.022.094-.043.138-.016.033-.043.058-.06.091-.018.033-.025.068-.045.1l-19.368 30.99c-.09.142-.194.27-.312.382l-.006.004c-.167.157-.364.27-.575.358-.027.012-.045.035-.074.047-.021.008-.044.004-.065.01-.196.065-.398.11-.609.11h-73.6c-.208 0-.408-.045-.6-.108-.021-.006-.042-.002-.062-.01-.029-.01-.046-.034-.073-.045a1.93 1.93 0 0 1-.556-.339c-.01-.01-.023-.015-.033-.023a1.947 1.947 0 0 1-.316-.384l-19.368-30.989c-.02-.03-.027-.068-.045-.1-.017-.033-.044-.059-.06-.092-.021-.044-.025-.093-.044-.139a1.89 1.89 0 0 1-.124-.511 1.508 1.508 0 0 1-.012-.281 1.73 1.73 0 0 1 .097-.513 1.98 1.98 0 0 1 .087-.223c.018-.035.024-.074.043-.109.03-.056.077-.098.112-.15.027-.042.043-.086.076-.125l56.146-69.699a.051.051 0 0 1 .012-.013l.01-.014c.006-.008.016-.01.021-.017.159-.192.357-.337.571-.453a2.04 2.04 0 0 1 .173-.084c.234-.098.482-.168.742-.168.22 0 .443.039.664.118.033.012.054.039.087.052.099.04.176.107.265.163.148.093.285.19.4.316.026.029.067.042.092.073l56.168 69.726c.032.039.047.085.076.124.037.052.081.095.112.151.02.035.026.074.043.109.035.073.062.145.087.222.027.091.055.18.07.275m0 0z" fill="#ececec" fill-rule="evenodd" stroke="#ececec" stroke-width=".216" stroke-miterlimit="22.926" transform="matrix(.77312 0 0 -.7767 -295.7 192.744)"/><path d="M489.033 174.625c-5.829 0-10.572 4.742-10.572 10.571v73.693c0 5.829 4.743 10.572 10.572 10.572h73.693c5.828 0 10.571-4.743 10.571-10.572v-73.693c0-5.829-4.743-10.571-10.571-10.571h-73.693zm73.693 98.94h-73.693c-8.093 0-14.677-6.583-14.677-14.676v-73.693c0-8.092 6.584-14.677 14.677-14.677h73.693c8.092 0 14.676 6.585 14.676 14.677v73.693c0 8.093-6.584 14.677-14.676 14.677z" fill="#df3d7b" fill-rule="evenodd" stroke="#df3d7b" stroke-width=".27" stroke-linecap="round" stroke-linejoin="round" stroke-miterlimit="22.926" transform="matrix(.6185 0 0 .62137 -240.185 -88.068)"/><path d="M513.214 192.34v31.865h14.475c8.947 0 14.274-4.925 14.274-15.38v-1.206c0-10.454-5.327-15.279-14.274-15.279h-14.475zm-6.634-3.719c0-1.307 1.106-2.312 2.815-2.412h18.495c11.66 0 20.707 5.73 20.707 21.31v1.005c0 15.58-9.147 21.41-20.908 21.41h-14.475v27.14c0 1.71-1.709 2.614-3.317 2.614-1.709 0-3.317-.904-3.317-2.613V188.62zm-21.786 38.977a2.26 2.26 0 0 1-2.26-2.26v-.904a2.26 2.26 0 0 1 4.52 0v.904a2.26 2.26 0 0 1-2.26 2.26zm0 26.442a2.26 2.26 0 0 1-2.26-2.26v-18.306a2.26 2.26 0 0 1 4.52 0v18.306a2.26 2.26 0 0 1-2.26 2.26z" fill="#df3d7b" fill-rule="evenodd" stroke="#df3d7b" stroke-width=".27" stroke-linecap="round" stroke-linejoin="round" stroke-miterlimit="22.926" transform="matrix(.6185 0 0 .62137 -240.185 -88.068)"/></svg>