<svg xmlns="http://www.w3.org/2000/svg" width="128" height="82"><path d="M497.5 400.58a2.192 2.192 0 0 1 .02.52 1.917 1.917 0 0 1-.124.51c-.018.045-.022.093-.043.138-.016.033-.043.058-.06.09-.018.034-.026.069-.045.101l-19.368 30.99c-.09.141-.194.27-.312.382l-.006.004a1.923 1.923 0 0 1-.575.358c-.028.011-.045.035-.074.046-.021.008-.045.004-.066.01-.196.066-.397.11-.608.11h-73.6a1.89 1.89 0 0 1-.6-.108c-.021-.006-.043-.002-.062-.01-.03-.01-.046-.033-.074-.045a1.928 1.928 0 0 1-.555-.338c-.01-.01-.024-.016-.033-.024a1.95 1.95 0 0 1-.316-.383l-19.368-30.99c-.02-.03-.027-.067-.045-.1-.017-.033-.044-.058-.06-.09-.021-.045-.025-.094-.044-.14a1.904 1.904 0 0 1-.124-.512 1.508 1.508 0 0 1-.012-.28 1.73 1.73 0 0 1 .097-.513 2 2 0 0 1 .087-.224c.017-.035.023-.073.043-.108.03-.056.077-.099.112-.151.027-.041.043-.085.075-.124L437.907 330a.051.051 0 0 1 .012-.013l.01-.014c.006-.008.015-.01.021-.017.159-.192.356-.337.571-.454a2.04 2.04 0 0 1 .173-.083c.234-.099.482-.168.741-.168.221 0 .444.038.665.118.033.011.054.038.087.052.099.04.176.107.265.163.148.093.285.19.4.316.026.028.067.042.092.073l56.168 69.726c.031.039.047.085.076.124.037.052.081.095.112.15.02.036.025.074.043.11.034.073.062.145.087.222.027.091.054.18.07.275m0 0z" fill="#ececec" fill-rule="evenodd" stroke="#ececec" stroke-width=".216" stroke-miterlimit="22.926" transform="matrix(.75982 0 0 -.78243 -289.669 339.534)"/><path d="M114.037 78.354H91.453c-1.83 0-3.347-.366-4.604-.98a1.724 1.724 0 0 0-.175-.108c-1.949-1.02-3.243-2.632-4.102-4.343-1.41-2.852-1.697-6.121-1.735-7.927-.002-.15-.005-.3-.005-.45 0-.191.003-.38.007-.567.046-1.765.331-4.804 1.596-7.526.016-.035.032-.07.05-.105l.028-.058a12.203 12.203 0 0 1 .398-.745l.022-.038c1.359-2.301 3.339-3.845 5.829-4.461l.029-.006a9.852 9.852 0 0 1 .712-.144l.16-.026c.138-.021.277-.04.42-.056l.045-.006a11.581 11.581 0 0 1 .416-.037l.12-.008c.092-.007.185-.01.278-.014l.112-.005c.131-.004.264-.006.398-.006h22.585a11.842 11.842 0 0 1 1.664.111c.012.002.025.001.037.003 8.244 1.146 8.92 10.652 8.92 13.694 0 3.239-.766 13.808-10.621 13.808zM68.195 77.08l-.41-6.043H78.3l.002.01c.077.284.158.565.246.841l.008.027c.085.266.174.528.269.785.07.191.145.377.22.564.02.047.038.097.058.145.092.222.188.438.288.653l.008.016a14.767 14.767 0 0 0 1.838 3.002H68.195zM60.51 17.154h37.568l-2.63 24.662h-2.57l1.789-16.77c.052-.485-.1-.97-.416-1.335a1.649 1.649 0 0 0-1.244-.572H65.582a1.65 1.65 0 0 0-1.244.572c-.316.364-.468.85-.416 1.336l3.479 32.607c.093.872.808 1.532 1.66 1.532h8.967a23.994 23.994 0 0 0-.338 2.034c-.016.131-.03.265-.044.397-.014.134-.029.267-.041.402-.014.152-.025.307-.036.46-.009.121-.019.241-.026.362-.01.181-.018.365-.025.549-.004.098-.01.195-.013.294a28.265 28.265 0 0 0 0 1.678c.003.106.008.21.012.313a25.28 25.28 0 0 0 .117 1.687l.007.078H65.876L60.51 17.154zm15.517 23.084h-7.125l-.55-5.158h11.015c.922 0 1.67-.77 1.67-1.72s-.748-1.72-1.67-1.72H67.985l-.54-5.062h23.7l-1.626 15.238h-1.98c-.923 0-1.67.77-1.67 1.72 0 .949.747 1.719 1.67 1.719h.356v2.466a12.098 12.098 0 0 0-5.625 3.152 13.648 13.648 0 0 0-2.18 2.824l-.034.059a15.738 15.738 0 0 0-.64 1.22c-.025.052-.048.105-.072.158-.062.135-.122.272-.181.41-.029.068-.059.134-.087.202h-8.519L69.27 43.678h6.758c.922 0 1.67-.77 1.67-1.72s-.748-1.72-1.67-1.72zm38.227 7.061h-23.02v-2.044h23.02v2.044zm10.39 5.24c-1.783-2.467-4.183-4.097-7.05-4.818v-2.466h.356c.923 0 1.67-.77 1.67-1.72s-.747-1.72-1.67-1.72H98.808l2.795-26.193c.051-.485-.1-.971-.417-1.335a1.648 1.648 0 0 0-1.243-.572H58.647c-.474 0-.927.208-1.243.572a1.749 1.749 0 0 0-.417 1.335l5.732 53.726c.093.872.808 1.532 1.66 1.532h.048l.544 8.04c.061.9.789 1.6 1.666 1.6h18.896c1.754.84 3.742 1.273 5.92 1.273h22.584c4.461 0 8.13-1.812 10.608-5.24 2.194-3.034 3.353-7.186 3.353-12.007s-1.16-8.974-3.353-12.007" fill="#df3d7b" fill-rule="evenodd"/></svg>