<svg xmlns="http://www.w3.org/2000/svg" width="120" height="82"><path d="M711.335 400.58a2.192 2.192 0 0 1 .02.52 1.917 1.917 0 0 1-.124.51c-.018.045-.022.093-.044.138-.015.033-.042.058-.06.09-.017.034-.025.069-.044.101l-19.368 30.99c-.09.141-.194.27-.312.382l-.006.004a1.936 1.936 0 0 1-.575.358c-.028.011-.045.035-.074.046-.021.008-.045.004-.066.01-.196.066-.397.11-.608.11h-73.6a1.89 1.89 0 0 1-.6-.108c-.021-.006-.043-.002-.062-.01-.03-.01-.046-.033-.074-.045a1.928 1.928 0 0 1-.556-.338c-.01-.01-.023-.016-.032-.024a1.95 1.95 0 0 1-.316-.383l-19.368-30.99c-.02-.03-.027-.067-.045-.1-.017-.033-.044-.058-.06-.09-.021-.045-.025-.094-.045-.14a1.904 1.904 0 0 1-.123-.512 1.508 1.508 0 0 1-.012-.28 1.73 1.73 0 0 1 .097-.513c.025-.076.052-.15.087-.224.017-.035.023-.073.042-.108.031-.056.078-.099.113-.151.027-.041.042-.085.075-.124L651.742 330a.051.051 0 0 1 .012-.013l.01-.014c.006-.008.015-.01.02-.017a1.93 1.93 0 0 1 .572-.454 2.04 2.04 0 0 1 .173-.083c.234-.099.482-.168.741-.168.221 0 .444.038.665.118.033.011.054.038.087.052.099.04.176.107.265.163.147.093.285.19.4.316.026.028.067.042.092.073l56.168 69.726c.031.039.047.085.076.124.037.052.081.095.112.15.02.036.025.074.043.11.034.073.062.145.087.222.027.091.054.18.07.275m0 0z" fill="#ececec" fill-rule="evenodd" stroke="#ececec" stroke-width=".216" stroke-miterlimit="22.926" transform="matrix(.77221 0 0 -.78242 -459.515 339.535)"/><path d="M118.34 13.746a22.895 22.895 0 0 0-12.837 3.93l-5.596 3.77c-.878-.334-2.162-.876-3.704-1.527-6.402-2.702-17.11-7.221-23.52-7.23h-.013l-.923-.007c-.329 0-.673.007-1.017.022l-.055.002c-.316.014-.647.037-.986.066l-.017.002-.055.005c-.307.027-.63.063-.966.107l-.075.01c-.306.041-.622.09-.936.147l-.087.015c-.306.056-.619.119-.928.188l-.073.016c-.309.07-.62.147-.924.23l-.054.014a22.94 22.94 0 0 0-.93.276l-.024.007c-8.722 2.796-14.589 10.378-14.6 18.871v.046c.007 5.228 2.236 10.11 5.982 13.743l11.963 34.338c.237.68.872 1.136 1.584 1.136h17.829c3.39 0 6.15-2.795 6.15-6.231V64.496c0-2.787 2.238-5.055 4.989-5.055 2.75 0 4.989 2.268 4.989 5.055v3.292c0 .94.752 1.702 1.68 1.702.927 0 1.68-.762 1.68-1.702v-3.292c0-4.664-3.746-8.46-8.35-8.46-4.603 0-8.348 3.796-8.348 8.46v11.196c0 1.559-1.252 2.827-2.79 2.827h-5.206l1.545-5.147c1.27-4.231.224-8.883-2.733-12.139a9.09 9.09 0 0 1-1.065-1.435 9.228 9.228 0 0 1-.997-7.152l.263-.977c5.796-1.49 12.486-4.312 17.018-6.224 1.542-.651 2.826-1.193 3.704-1.527l5.596 3.77a22.899 22.899 0 0 0 12.837 3.93c.927 0 1.68-.762 1.68-1.702V15.449a1.69 1.69 0 0 0-1.68-1.702zM78.66 78.518h-7.923l-9.954-28.574a22.377 22.377 0 0 0 2.006.953 22.213 22.213 0 0 0 1.833.678l.016.005.006.002c.083.027.168.052.252.078.225.068.452.135.678.197l.02.006.033.01.023.005c.297.08.6.155.908.225l.067.015c.311.07.624.133.928.188l.083.015c.314.055.63.105.94.147l.083.01c.327.043.65.08.96.108l.038.003.034.003c.344.03.666.051.985.065l.047.002a31.904 31.904 0 0 0 1.033.023l.916-.008h.012c.106 0 .215-.005.323-.008.77-.017 1.6-.09 2.51-.225a12.67 12.67 0 0 0 .812 7.734 9.113 9.113 0 0 0-3.049 6.787c0 4.016 2.626 7.466 6.267 8.607l-.886 2.95zm.049-14.757l.085.104.104.126.086.113c.032.04.064.082.094.123.03.038.056.077.084.116l.09.125.078.117.085.128.075.12c.027.044.055.087.081.131l.07.121c.026.045.053.089.078.134l.065.121.074.138.06.123c.024.047.048.093.07.14.02.04.037.081.056.121l.066.147c.018.04.034.08.05.12l.064.15.046.122c.02.05.04.101.058.152l.043.123.053.154a6.575 6.575 0 0 1 .087.28l.034.12.045.162.03.12.04.165.024.119.036.168.02.118c.011.057.022.114.031.17l.017.118c.009.058.018.115.025.173l.014.117a9.934 9.934 0 0 1 .043.467l.007.12.008.173c.002.04.002.08.002.12l.003.174-.001.12c0 .059 0 .116-.003.175l-.005.122a5.065 5.065 0 0 1-.008.172l-.01.123a7.076 7.076 0 0 1-.013.171l-.013.124a4.917 4.917 0 0 1-.02.17l-.017.127-.024.166-.022.13-.03.162-.027.132c-.01.053-.021.107-.033.16l-.032.133c-.013.052-.025.105-.039.157l-.037.136-.033.117c-2.257-.714-3.883-2.857-3.883-5.35 0-1.44.555-2.815 1.508-3.844.118.143.24.283.364.42.067.074.132.149.196.224zM98.273 30.98h-16.81c-.82-5.884-5.82-10.426-11.85-10.426-6.6 0-11.969 5.44-11.969 12.128 0 6.687 5.37 12.127 11.97 12.127 6.029 0 11.029-4.541 11.848-10.425h16.81v6.523c-.896.353-2.037.835-3.362 1.394-4.682 1.977-11.757 4.961-17.404 6.289-.02.004-.04.005-.06.01-1.42.331-2.675.54-3.749.625l-.136.01a13.703 13.703 0 0 1-.894.034h-.05l-.87.008a20.285 20.285 0 0 1-.88-.02l-.043-.001a20.86 20.86 0 0 1-.857-.057l-.033-.003-.02-.001a20.347 20.347 0 0 1-.825-.092l-.068-.01a19.98 19.98 0 0 1-.81-.126l-.068-.012c-.26-.047-.528-.101-.796-.16l-.06-.014c-.267-.06-.533-.127-.794-.197l-.017-.005-.028-.008-.22-.062a19.428 19.428 0 0 1-.575-.173l-.02-.007a20.056 20.056 0 0 1-1.156-.413c-.097-.038-.194-.075-.29-.115l-.126-.053a18.683 18.683 0 0 1-5.476-3.51c-.014-.014-.03-.026-.044-.038-3.23-3.028-5.155-7.122-5.16-11.496v-.042c.008-7 4.932-13.281 12.257-15.63.006 0 .011-.003.016-.004.259-.082.526-.161.806-.238l.033-.01c.262-.07.528-.136.799-.198l.055-.012c.267-.06.535-.114.797-.161l.07-.012c.274-.049.545-.091.807-.127l.07-.009c.283-.037.56-.068.836-.093l.05-.004a20.108 20.108 0 0 1 1.778-.078l.85.007.062.001c5.734 0 16.069 4.362 22.243 6.968 1.325.559 2.466 1.04 3.362 1.395v6.523zm-20.05 1.701c0 4.81-3.863 8.724-8.61 8.724s-8.61-3.914-8.61-8.724c0-4.81 3.863-8.723 8.61-8.723s8.61 3.913 8.61 8.723zm38.437 15.46a19.59 19.59 0 0 1-9.297-3.289l-5.69-3.834v-6.635h5.394c.928 0 1.68-.762 1.68-1.702s-.752-1.702-1.68-1.702h-5.395v-6.635l5.69-3.834a19.592 19.592 0 0 1 9.298-3.288V48.14zm-9.828 24.88a1.726 1.726 0 0 0-.713-1.082 1.707 1.707 0 0 0-.605-.254 1.646 1.646 0 0 0-.971.097 1.699 1.699 0 0 0-.755.627 1.803 1.803 0 0 0-.25.612 1.693 1.693 0 0 0 .25 1.277 1.732 1.732 0 0 0 .464.471 1.68 1.68 0 0 0 .933.286 1.665 1.665 0 0 0 1.552-1.05 1.747 1.747 0 0 0 .13-.652c0-.11-.013-.223-.035-.332" fill="#df3d7b" fill-rule="evenodd"/><path d="M113.905 32.35a1.717 1.717 0 0 0-.714-1.084 1.723 1.723 0 0 0-.605-.255 1.646 1.646 0 0 0-1.26.254 1.7 1.7 0 0 0-.716 1.084 1.7 1.7 0 0 0 0 .664 1.772 1.772 0 0 0 .25.613c.063.094.133.18.21.259a1.695 1.695 0 0 0 1.188.498 1.634 1.634 0 0 0 .642-.13 1.71 1.71 0 0 0 .546-.368 1.68 1.68 0 0 0 .458-.872 1.695 1.695 0 0 0 0-.664" fill="#df3d7b" fill-rule="evenodd"/></svg>