<svg xmlns="http://www.w3.org/2000/svg" width="120" height="82"><path d="M284.885 214.787a2.192 2.192 0 0 1 .02.52 1.891 1.891 0 0 1-.124.51c-.018.045-.022.094-.043.138-.016.033-.043.058-.06.091-.018.033-.025.068-.045.1l-19.368 30.99c-.09.142-.194.27-.312.382l-.006.004c-.167.157-.364.27-.575.358-.027.012-.045.035-.074.047-.021.008-.044.004-.066.01-.195.065-.397.11-.608.11h-73.6c-.208 0-.408-.045-.6-.108-.021-.006-.042-.002-.062-.01-.029-.01-.046-.034-.073-.045a1.93 1.93 0 0 1-.556-.339c-.01-.01-.023-.015-.033-.023a1.947 1.947 0 0 1-.316-.384l-19.368-30.989c-.02-.03-.027-.068-.045-.1-.017-.033-.044-.059-.06-.092-.021-.044-.025-.093-.044-.139a1.89 1.89 0 0 1-.124-.511 1.508 1.508 0 0 1-.012-.281 1.73 1.73 0 0 1 .097-.513 1.98 1.98 0 0 1 .087-.223c.018-.035.023-.074.043-.109.03-.056.077-.098.112-.15.027-.042.043-.086.076-.125l56.146-69.699a.051.051 0 0 1 .012-.013l.01-.014c.006-.008.016-.01.021-.017.159-.192.356-.337.571-.453a2.04 2.04 0 0 1 .173-.084c.234-.098.482-.168.742-.168.22 0 .443.039.664.118.033.012.054.039.087.052.099.04.176.107.265.163.148.093.285.19.4.316.026.029.067.042.092.073l56.168 69.726c.032.039.047.085.076.124.037.052.081.095.112.151.02.035.026.074.043.109.035.073.062.145.087.222.027.091.055.18.07.275m0 0z" fill="#ececec" fill-rule="evenodd" stroke="#ececec" stroke-width=".216" stroke-miterlimit="22.926" transform="matrix(.81119 0 0 -.77595 -136.785 192.55)"/><g fill="#df3d7b" fill-rule="evenodd"><path d="M109.912 79.056c-3.242 0-6.026-2.075-6.772-5.047a1.382 1.382 0 0 0-.068-.201 6.204 6.204 0 0 1-.145-1.32c0-.717.124-1.426.368-2.105.276-.773-.162-1.61-.98-1.872s-1.707.152-1.984.924a9.02 9.02 0 0 0-.533 3.054c0 .412.032.823.088 1.231-2.816 1.866-6.027 2.85-9.345 2.85-3.328 0-6.547-.989-9.368-2.865a9.04 9.04 0 0 0 .085-1.216c0-4.512-3.345-8.299-7.817-9.274a21.284 21.284 0 0 1-.966-6.375c0-1.306.12-2.614.353-3.889a1.42 1.42 0 0 0-.383-1.243 1.613 1.613 0 0 0-1.273-.48 5.386 5.386 0 0 1-.37.012c-2.768 0-5.018-2.124-5.018-4.736 0-2.61 2.25-4.735 5.017-4.735 1.308 0 2.541.471 3.481 1.327a19.706 19.706 0 0 0 4.885 4.524 18.713 18.713 0 0 0-.781 5.41c0 3.988 1.207 7.754 3.4 10.605 2.302 2.994 5.412 4.643 8.755 4.643 3.343 0 6.452-1.649 8.755-4.643 2.192-2.851 3.4-6.617 3.4-10.605a18.7 18.7 0 0 0-.782-5.41 19.694 19.694 0 0 0 4.885-4.524 5.145 5.145 0 0 1 3.481-1.327c2.767 0 5.018 2.124 5.018 4.735 0 2.612-2.251 4.736-5.018 4.736-.123 0-.248-.004-.37-.013-.48-.033-.95.144-1.274.48a1.42 1.42 0 0 0-.382 1.244 21.66 21.66 0 0 1 .352 3.89c0 2.48-.417 4.9-1.24 7.192a1.41 1.41 0 0 0 .269 1.407c.34.394.87.595 1.405.532a7.48 7.48 0 0 1 .871-.05c3.837 0 6.959 2.946 6.959 6.567s-3.121 6.567-6.958 6.567zm-31.995-4.953l-.015.054c-.695 2.496-2.912 4.417-5.654 4.82l-.045.007c-.09.012-.181.023-.272.032l-.084.009a6.952 6.952 0 0 1-.25.018l-.091.005c-.11.005-.222.008-.334.008h-.001c-3.358 0-6.168-2.256-6.818-5.246a6.225 6.225 0 0 1 0-2.644c.65-2.99 3.46-5.245 6.818-5.245.133 0 .268.004.403.012l.121.008c.093.007.184.015.276.025 3.461.376 6.158 3.157 6.158 6.523 0 .556-.074 1.097-.212 1.613zm21.65-21.073c0 3.37-.995 6.52-2.803 8.87-1.698 2.209-3.908 3.425-6.222 3.425-2.316 0-4.526-1.216-6.224-3.424-1.808-2.351-2.804-5.502-2.804-8.871 0-1.336.16-2.632.467-3.874a20.902 20.902 0 0 0 8.56 1.815 20.9 20.9 0 0 0 8.56-1.815 16.06 16.06 0 0 1 .467 3.874zM68.975 19.666c0-3.067 2.644-5.562 5.893-5.562 2.316 0 4.426 1.288 5.377 3.28.18.376.516.664.93.794.414.131.866.093 1.249-.105a17.718 17.718 0 0 1 8.118-1.958c2.839 0 5.646.677 8.118 1.958a1.65 1.65 0 0 0 1.25.105c.413-.13.75-.418.93-.793.95-1.993 3.06-3.28 5.376-3.28 3.25 0 5.894 2.494 5.894 5.561 0 2.553-1.83 4.771-4.449 5.393a1.558 1.558 0 0 0-.991.725 1.402 1.402 0 0 0-.109 1.18c.586 1.639.883 3.356.883 5.103 0 8.796-7.582 15.952-16.902 15.952S73.64 40.863 73.64 32.067c0-1.723.29-3.415.86-5.032a15.575 15.575 0 0 1 1.43-2.986c.434-.705.18-1.608-.566-2.018-.747-.41-1.705-.17-2.139.534a18.522 18.522 0 0 0-1.083 2.034c-1.915-.94-3.167-2.821-3.167-4.933zm41.966 43.352a24.44 24.44 0 0 0 .64-8.923c3.877-.59 6.847-3.769 6.847-7.59 0-4.24-3.655-7.689-8.146-7.689-.356 0-.709.024-1.057.066a17.936 17.936 0 0 0 .736-11.466c3.173-1.361 5.277-4.363 5.277-7.75 0-4.695-4.047-8.515-9.022-8.515-2.994 0-5.765 1.407-7.43 3.684a21.108 21.108 0 0 0-8.243-1.673 21.11 21.11 0 0 0-8.245 1.673c-1.665-2.277-4.436-3.684-7.43-3.684-4.974 0-9.021 3.82-9.021 8.515 0 3.387 2.104 6.389 5.276 7.75a17.92 17.92 0 0 0-.611 4.65c0 2.402.478 4.7 1.347 6.816a8.716 8.716 0 0 0-1.057-.066c-4.491 0-8.146 3.449-8.146 7.688 0 3.822 2.97 7.001 6.847 7.59-.103.91-.155 1.829-.155 2.746 0 2.107.267 4.177.796 6.178-.01 0-.018.002-.027.003-.156.015-.31.034-.464.056l-.157.026c-.108.017-.217.034-.325.054-.062.012-.123.026-.184.04-.097.02-.194.04-.29.063-.065.015-.128.033-.192.05a6.502 6.502 0 0 0-.274.073c-.065.018-.13.039-.194.059a7.98 7.98 0 0 0-.262.084l-.194.068a9.395 9.395 0 0 0-.876.362 9.866 9.866 0 0 0-1.058.573l-.167.105-.225.151c-.052.037-.105.072-.157.11-.076.053-.15.11-.223.165l-.146.11a10.2 10.2 0 0 0-.227.186l-.128.106c-.083.072-.165.147-.246.221-.03.03-.063.056-.093.085-.223.21-.434.43-.635.66-.03.033-.057.068-.086.101a9.62 9.62 0 0 0-.206.247c-.035.044-.068.09-.102.134-.058.075-.116.15-.172.227l-.105.152c-.05.073-.102.147-.151.222a7.27 7.27 0 0 0-.102.163c-.046.074-.092.147-.136.223-.034.056-.066.114-.098.171l-.122.225-.09.18a10.294 10.294 0 0 0-.29.646l-.074.19a11.763 11.763 0 0 0-.15.431c-.026.081-.05.163-.074.244a8.414 8.414 0 0 0-.117.448c-.016.065-.032.13-.046.196-.018.087-.033.175-.05.262-.01.065-.023.129-.034.193a8.879 8.879 0 0 0-.037.279c-.008.061-.017.122-.023.184-.011.103-.018.207-.026.311-.003.053-.009.105-.011.158a8.942 8.942 0 0 0 .039 1.446c.518 4.794 4.82 8.548 10.035 8.548h.001c.156 0 .312-.005.466-.011l.114-.006c.142-.007.283-.017.423-.03.012 0 .023-.002.035-.003 3.503-.336 6.52-2.352 8.03-5.289a20.014 20.014 0 0 0 10.302 2.853c3.64 0 7.162-.981 10.3-2.853 1.658 3.224 5.132 5.34 9.07 5.34 5.562 0 10.087-4.272 10.087-9.521 0-4.922-3.978-8.984-9.06-9.471"/><path d="M84.085 31.315c1.292 0 2.346-.994 2.346-2.214s-1.054-2.214-2.346-2.214c-1.293 0-2.347.995-2.347 2.214 0 1.22 1.054 2.214 2.347 2.214m12.913 0c1.293 0 2.346-.994 2.346-2.214s-1.053-2.214-2.346-2.214c-1.292 0-2.346.995-2.346 2.214 0 1.22 1.054 2.214 2.346 2.214m-6.456 5.705c1.292 0 2.346-.995 2.346-2.214 0-1.22-1.054-2.215-2.346-2.215-1.293 0-2.347.995-2.347 2.215 0 1.22 1.054 2.214 2.347 2.214"/></g></svg>