<?xml version="1.0" encoding="UTF-8" standalone="no"?>
<!-- Created with Inkscape (http://www.inkscape.org/) -->

<svg
   xmlns:dc="http://purl.org/dc/elements/1.1/"
   xmlns:cc="http://creativecommons.org/ns#"
   xmlns:rdf="http://www.w3.org/1999/02/22-rdf-syntax-ns#"
   xmlns:svg="http://www.w3.org/2000/svg"
   xmlns="http://www.w3.org/2000/svg"
   xmlns:sodipodi="http://sodipodi.sourceforge.net/DTD/sodipodi-0.dtd"
   xmlns:inkscape="http://www.inkscape.org/namespaces/inkscape"
   version="1.1"
   width="112"
   height="82"
   id="svg2"
   inkscape:version="0.48.5 r10040"
   sodipodi:docname="1.svg">
  <sodipodi:namedview
     pagecolor="#ffffff"
     bordercolor="#666666"
     borderopacity="1"
     objecttolerance="10"
     gridtolerance="10"
     guidetolerance="10"
     inkscape:pageopacity="0"
     inkscape:pageshadow="2"
     inkscape:window-width="1920"
     inkscape:window-height="1027"
     id="namedview30"
     showgrid="false"
     inkscape:zoom="0.89478513"
     inkscape:cx="204.69253"
     inkscape:cy="118.94106"
     inkscape:window-x="-8"
     inkscape:window-y="-8"
     inkscape:window-maximized="1"
     inkscape:current-layer="svg2" />
  <defs
     id="defs4" />
  <metadata
     id="metadata7">
    <rdf:RDF>
      <cc:Work
         rdf:about="">
        <dc:format>image/svg+xml</dc:format>
        <dc:type
           rdf:resource="http://purl.org/dc/dcmitype/StillImage" />
        <dc:title />
      </cc:Work>
    </rdf:RDF>
  </metadata>
  <g
     id="layer1"
     transform="matrix(0.61970259,0,0,0.62721761,-64.340038,-386.07103)">
    <g
       transform="matrix(1.25,0,0,-1.25,96.612916,1157.829)"
       id="g3001" />
    <g
       transform="matrix(1.25,0,0,-1.25,96.612916,1157.829)"
       id="g3003" />
    <g
       transform="matrix(1.25,0,0,-1.25,96.612916,1157.829)"
       id="g3005" />
    <g
       transform="matrix(1.25,0,0,-1.25,96.612916,1157.829)"
       id="g3007" />
    <g
       transform="matrix(1.25,0,0,-1.25,96.612916,1157.829)"
       id="g3009" />
    <g
       transform="matrix(1.25,0,0,-1.25,96.612916,1157.829)"
       id="g3011" />
    <g
       transform="matrix(1.25,0,0,-1.25,96.612916,1157.829)"
       id="g3013" />
    <g
       transform="matrix(1.25,0,0,-1.25,96.612916,1157.829)"
       id="g3015" />
    <g
       transform="matrix(1.25,0,0,-1.25,96.612916,1157.829)"
       id="g3017" />
    <g
       transform="matrix(1.25,0,0,-1.25,96.612916,1157.829)"
       id="g3019" />
    <g
       transform="matrix(1.25,0,0,-1.25,96.612916,1157.829)"
       id="g3021" />
    <g
       transform="matrix(1.25,0,0,-1.25,96.612916,1157.829)"
       id="g3023" />
    <g
       transform="matrix(1.25,0,0,-1.25,96.612916,1157.829)"
       id="g3025" />
    <g
       transform="matrix(1.25,0,0,-1.25,96.612916,1157.829)"
       id="g3027" />
    <g
       transform="matrix(1.25,0,0,-1.25,96.612916,1157.829)"
       id="g3029" />
    <g
       id="g3319">
      <g
         transform="matrix(1.25,0,0,-1.25,96.612916,1157.829)"
         id="g2995">
        <g
           id="g2997">
          <path
             d="m 121.9241,400.5799 c 0.0136,0.0794 0.0212,0.1571 0.0252,0.2384 0.004,0.0947 0.002,0.186 -0.006,0.2807 -0.008,0.0813 -0.0192,0.159 -0.0385,0.2384 -0.0213,0.0929 -0.0505,0.1819 -0.0853,0.2709 -0.0173,0.0465 -0.0213,0.095 -0.0426,0.1395 -0.0155,0.0329 -0.0428,0.0581 -0.06,0.091 -0.0173,0.0329 -0.0253,0.068 -0.0446,0.1006 l -19.3682,30.9895 c -0.089,0.1415 -0.1936,0.2693 -0.3118,0.3816 -0.002,0.002 -0.004,0.002 -0.006,0.004 -0.1664,0.1568 -0.364,0.2693 -0.5752,0.3583 -0.0269,0.0116 -0.0445,0.0349 -0.0734,0.0465 -0.0215,0.008 -0.0448,0.004 -0.066,0.01 -0.1956,0.0657 -0.3971,0.1102 -0.608,0.1102 l -73.5996,0 c -0.2092,0 -0.4085,-0.0445 -0.6004,-0.1083 -0.0213,-0.006 -0.0425,-0.002 -0.0621,-0.01 -0.0289,-0.01 -0.0462,-0.0332 -0.0734,-0.0448 -0.2016,-0.083 -0.3915,-0.1916 -0.5559,-0.3387 -0.0099,-0.01 -0.0232,-0.0156 -0.0329,-0.0233 -0.1202,-0.1122 -0.2267,-0.2421 -0.3157,-0.3835 L 6.0554,401.9417 C 6.0361,401.9108 6.0282,401.874 6.0109,401.8411 5.9936,401.8082 5.9664,401.783 5.9508,401.7501 5.9295,401.7056 5.9255,401.6571 5.9063,401.6106 5.8714,401.5216 5.8422,401.4323 5.8209,401.3393 5.8037,401.26 5.79,401.1806 5.7824,401.0992 c -0.0139,-0.0949 -0.0156,-0.1879 -0.0116,-0.2809 0.0037,-0.0813 0.0116,-0.1587 0.0249,-0.2384 0.0156,-0.0929 0.0408,-0.1839 0.0717,-0.2749 0.0253,-0.0754 0.0522,-0.1491 0.0871,-0.2228 0.0175,-0.0349 0.0232,-0.0734 0.0428,-0.1083 0.0309,-0.0561 0.0773,-0.0987 0.1122,-0.1511 0.0269,-0.0408 0.0425,-0.0853 0.0754,-0.1242 l 56.1467,-69.6985 c 0.004,-0.006 0.0079,-0.01 0.0116,-0.0136 l 0.0097,-0.0136 c 0.0059,-0.008 0.0155,-0.01 0.0215,-0.0173 0.1587,-0.1916 0.3563,-0.337 0.5712,-0.4533 0.0581,-0.0309 0.1122,-0.0581 0.1723,-0.0833 0.2344,-0.0987 0.4822,-0.1684 0.7418,-0.1684 0.2209,0 0.4437,0.0386 0.6642,0.1179 0.0332,0.0119 0.0544,0.0389 0.0873,0.0525 0.0987,0.0405 0.1763,0.1066 0.2653,0.1627 0.1472,0.093 0.2846,0.1899 0.3989,0.3158 0.0272,0.0289 0.068,0.0425 0.0929,0.0734 l 56.1683,69.7257 c 0.0309,0.0389 0.0465,0.0854 0.0757,0.1239 0.0365,0.0525 0.081,0.095 0.1122,0.1514 0.0193,0.0349 0.0252,0.0734 0.0425,0.1083 0.0349,0.0737 0.0621,0.1454 0.0873,0.2228 0.0272,0.091 0.0542,0.1803 0.0698,0.2749 m 0,0 0,0 z"
             id="path2999"
             style="fill:#ececec;fill-opacity:1;fill-rule:evenodd;stroke:none"
             inkscape:connector-curvature="0" />
        </g>
      </g>
      <g
         transform="matrix(1.25,0,0,-1.25,96.612916,1157.829)"
         id="g3031">
        <path
           d="m 99.9417,329.2506 c -2.8029,0 -5.349,1.1444 -7.1958,2.9925 -1.8431,1.8434 -2.9849,4.3878 -2.9849,7.191 0,2.8068 1.1421,5.3526 2.9849,7.1957 1.8434,1.8431 4.3889,2.9852 7.1958,2.9852 2.8066,0 5.3523,-1.1421 7.1954,-2.9852 1.8431,-1.8431 2.9852,-4.3889 2.9852,-7.1957 0,-2.8032 -1.1418,-5.3473 -2.9849,-7.1912 -1.847,-1.8477 -4.3934,-2.9923 -7.1957,-2.9923 z m 0,14.0292 c -1.0644,0 -2.0254,-0.4288 -2.7176,-1.1213 l -0.0068,-0.007 c -0.6925,-0.6923 -1.1214,-1.6532 -1.1214,-2.7176 0,-1.0644 0.432,-2.0291 1.1285,-2.7261 0.6925,-0.6931 1.6534,-1.1225 2.7173,-1.1225 1.0635,0 2.0248,0.4294 2.7173,1.1225 0.6964,0.697 1.1284,1.6617 1.1284,2.7261 0,1.0599 -0.4317,2.0211 -1.1282,2.7176 -0.0249,0.0252 -0.049,0.0507 -0.072,0.0771 -0.6862,0.6508 -1.618,1.051 -2.6455,1.051"
           id="path3033"
           style="fill:#df3d7b;fill-opacity:1;fill-rule:nonzero;stroke:none"
           inkscape:connector-curvature="0" />
        <path
           d="m 119.4457,353.0619 c -0.4016,0 -0.8118,0.0819 -1.2058,0.2441 -0.3816,0.1573 -0.7331,0.3838 -1.0284,0.676 l -0.007,0.007 0,-3e-4 c -2.314,2.3139 -4.9981,4.1037 -7.9107,5.3104 -2.9171,1.2084 -6.0831,1.8422 -9.3554,1.8422 -3.2715,0 -6.4375,-0.6341 -9.3555,-1.8431 -2.9194,-1.2095 -5.6027,-2.9967 -7.9073,-5.3027 l -0.0068,-0.007 c -0.6179,-0.6177 -1.4269,-0.9272 -2.2328,-0.9272 -0.8065,0 -1.6146,0.3095 -2.2329,0.9272 l -0.0031,0.003 -0.0034,-0.003 c -0.6179,0.6176 -0.9275,1.4295 -0.9275,2.2393 0,0.811 0.3096,1.622 0.9275,2.2397 2.8993,2.8995 6.2824,5.1508 9.9703,6.6787 0.0309,0.013 0.0618,0.0244 0.093,0.0354 3.6649,1.5052 7.6158,2.2947 11.6785,2.2947 4.0966,0 8.0793,-0.8011 11.7697,-2.3298 3.6859,-1.5268 7.069,-3.7789 9.972,-6.6824 l 0.003,0.003 c 0.6179,-0.618 0.9272,-1.429 0.9272,-2.2397 0,-0.8098 -0.3093,-1.6214 -0.9272,-2.2393 -0.2954,-0.2954 -0.6483,-0.5236 -1.0324,-0.6823 -0.3926,-0.1627 -0.803,-0.2444 -1.2056,-0.2444"
           id="path3035"
           style="fill:#df3d7b;fill-opacity:1;fill-rule:nonzero;stroke:none"
           inkscape:connector-curvature="0" />
        <path
           d="m 133.3185,366.0361 c -0.4017,0 -0.8121,0.0819 -1.2062,0.2438 -0.3753,0.1547 -0.7256,0.3832 -1.0281,0.6826 l -0.003,0.003 -0.003,-0.003 -0.002,0.002 c -8.5872,8.587 -19.862,12.8798 -31.1334,12.8798 -11.2709,0 -22.5462,-4.2942 -31.1335,-12.8798 l -0.0023,-0.002 -3e-4,-3e-4 c -0.6176,-0.6174 -1.4289,-0.927 -2.239,-0.927 -0.8062,0 -1.6147,0.3096 -2.2326,0.927 l -0.0034,0.003 -0.0034,-0.003 -3e-4,3e-4 -3e-4,2e-4 c -0.0436,0.0437 -0.0845,0.089 -0.1224,0.1361 -0.5358,0.5992 -0.8045,1.3521 -0.8045,2.1033 0,0.8062 0.3095,1.6143 0.9269,2.2323 l 0.0034,0.003 -0.0034,0.003 3e-4,3e-4 3e-4,0 c 9.8149,9.8164 22.7137,14.7243 35.6148,14.7237 12.9013,-6e-4 25.8006,-4.9088 35.617,-14.7237 l 3e-4,0 3e-4,-3e-4 c 0.6173,-0.6177 0.9272,-1.4289 0.9272,-2.2391 0,-0.8062 -0.3099,-1.6146 -0.9272,-2.2326 l -0.003,-0.003 0.003,-0.003 -3e-4,-2e-4 c -0.0471,-0.0471 -0.0964,-0.0908 -0.1471,-0.131 -0.2688,-0.2361 -0.5695,-0.4204 -0.8879,-0.5516 -0.3937,-0.1619 -0.8044,-0.2438 -1.2058,-0.2438"
           id="path3037"
           style="fill:#df3d7b;fill-opacity:1;fill-rule:nonzero;stroke:none"
           inkscape:connector-curvature="0" />
        <path
           d="m 147.1881,378.553 c -0.4016,0 -0.8118,0.082 -1.2058,0.2438 -0.3748,0.1551 -0.7257,0.3827 -1.0282,0.6826 l -0.003,0.003 -0.003,-0.003 c -12.4061,12.4047 -28.7067,18.6086 -45.0079,18.6086 -16.2992,0 -32.5987,-6.2022 -45.0062,-18.6086 -0.618,-0.618 -1.4295,-0.9272 -2.2397,-0.9272 -0.8104,0 -1.6214,0.3092 -2.2394,0.9272 -0.6182,0.618 -0.9272,1.4295 -0.9272,2.2397 0,0.8104 0.309,1.6214 0.9272,2.2393 13.644,13.6443 31.5647,20.4653 49.4842,20.4653 17.9217,0 35.8441,-6.8227 49.4881,-20.4653 0.0436,-0.0436 0.0844,-0.089 0.1224,-0.136 0.5361,-0.599 0.8048,-1.3519 0.8048,-2.1033 0,-0.8059 -0.3096,-1.6149 -0.9272,-2.2329 l -0.003,-0.003 0.003,-0.003 c -0.2954,-0.2954 -0.6483,-0.5236 -1.0324,-0.6823 -0.3929,-0.1624 -0.8034,-0.2441 -1.2059,-0.2441"
           id="path3039"
           style="fill:#df3d7b;fill-opacity:1;fill-rule:nonzero;stroke:none"
           inkscape:connector-curvature="0" />
      </g>
    </g>
  </g>
</svg>
