<?xml version="1.0" encoding="UTF-8" standalone="no"?>
<!-- Created with Inkscape (http://www.inkscape.org/) -->

<svg
   xmlns:dc="http://purl.org/dc/elements/1.1/"
   xmlns:cc="http://creativecommons.org/ns#"
   xmlns:rdf="http://www.w3.org/1999/02/22-rdf-syntax-ns#"
   xmlns:svg="http://www.w3.org/2000/svg"
   xmlns="http://www.w3.org/2000/svg"
   xmlns:sodipodi="http://sodipodi.sourceforge.net/DTD/sodipodi-0.dtd"
   xmlns:inkscape="http://www.inkscape.org/namespaces/inkscape"
   version="1.1"
   width="115"
   height="82"
   id="svg2"
   inkscape:version="0.48.5 r10040"
   sodipodi:docname="2.svg">
  <sodipodi:namedview
     pagecolor="#ffffff"
     bordercolor="#666666"
     borderopacity="1"
     objecttolerance="10"
     gridtolerance="10"
     guidetolerance="10"
     inkscape:pageopacity="0"
     inkscape:pageshadow="2"
     inkscape:window-width="1920"
     inkscape:window-height="1027"
     id="namedview30"
     showgrid="false"
     inkscape:zoom="1.8108832"
     inkscape:cx="194.59657"
     inkscape:cy="35.623854"
     inkscape:window-x="-8"
     inkscape:window-y="-8"
     inkscape:window-maximized="1"
     inkscape:current-layer="svg2" />
  <defs
     id="defs4" />
  <metadata
     id="metadata7">
    <rdf:RDF>
      <cc:Work
         rdf:about="">
        <dc:format>image/svg+xml</dc:format>
        <dc:type
           rdf:resource="http://purl.org/dc/dcmitype/StillImage" />
        <dc:title />
      </cc:Work>
    </rdf:RDF>
  </metadata>
  <g
     id="layer1"
     transform="matrix(0.61260653,0,0,0.62594464,-204.02175,-385.19816)">
    <g
       transform="matrix(1.25,0,0,-1.25,96.612916,1157.829)"
       id="g3001" />
    <g
       transform="matrix(1.25,0,0,-1.25,96.612916,1157.829)"
       id="g3003" />
    <g
       transform="matrix(1.25,0,0,-1.25,96.612916,1157.829)"
       id="g3005" />
    <g
       transform="matrix(1.25,0,0,-1.25,96.612916,1157.829)"
       id="g3007" />
    <g
       transform="matrix(1.25,0,0,-1.25,96.612916,1157.829)"
       id="g3009" />
    <g
       transform="matrix(1.25,0,0,-1.25,96.612916,1157.829)"
       id="g3011" />
    <g
       transform="matrix(1.25,0,0,-1.25,96.612916,1157.829)"
       id="g3013" />
    <g
       transform="matrix(1.25,0,0,-1.25,96.612916,1157.829)"
       id="g3015" />
    <g
       transform="matrix(1.25,0,0,-1.25,96.612916,1157.829)"
       id="g3017" />
    <g
       transform="matrix(1.25,0,0,-1.25,96.612916,1157.829)"
       id="g3019" />
    <g
       transform="matrix(1.25,0,0,-1.25,96.612916,1157.829)"
       id="g3021" />
    <g
       transform="matrix(1.25,0,0,-1.25,96.612916,1157.829)"
       id="g3023" />
    <g
       transform="matrix(1.25,0,0,-1.25,96.612916,1157.829)"
       id="g3025" />
    <g
       transform="matrix(1.25,0,0,-1.25,96.612916,1157.829)"
       id="g3027" />
    <g
       transform="matrix(1.25,0,0,-1.25,96.612916,1157.829)"
       id="g3029" />
    <g
       id="g3309">
      <g
         transform="matrix(1.25,0,0,-1.25,96.612916,1157.829)"
         id="g3041">
        <g
           id="g3043">
          <path
             d="m 305.4129,400.5799 c 0.0134,0.0794 0.0213,0.1571 0.025,0.2384 0.004,0.0947 0.002,0.186 -0.006,0.2807 -0.008,0.0813 -0.0193,0.159 -0.0388,0.2384 -0.0213,0.0929 -0.0502,0.1819 -0.0851,0.2709 -0.0175,0.0465 -0.0212,0.095 -0.0428,0.1395 -0.0153,0.0329 -0.0425,0.0581 -0.0598,0.091 -0.0175,0.0329 -0.0252,0.068 -0.0445,0.1006 l -19.3683,30.9895 c -0.0892,0.1415 -0.1938,0.2693 -0.312,0.3816 -0.002,0.002 -0.004,0.002 -0.006,0.004 -0.1667,0.1568 -0.3643,0.2693 -0.5752,0.3583 -0.0272,0.0116 -0.0445,0.0349 -0.0737,0.0465 -0.0212,0.008 -0.0445,0.004 -0.0657,0.01 -0.1956,0.0657 -0.3972,0.1102 -0.6083,0.1102 l -73.5994,0 c -0.2092,0 -0.4087,-0.0445 -0.6003,-0.1083 -0.0216,-0.006 -0.0428,-0.002 -0.0621,-0.01 -0.0289,-0.01 -0.0465,-0.0332 -0.0737,-0.0448 -0.2013,-0.083 -0.3912,-0.1916 -0.5556,-0.3387 -0.01,-0.01 -0.0232,-0.0156 -0.0332,-0.0233 -0.1199,-0.1122 -0.2265,-0.2421 -0.3155,-0.3835 l -19.3682,-30.9892 c -0.0193,-0.0309 -0.0273,-0.0677 -0.0446,-0.1006 -0.0175,-0.0329 -0.0447,-0.0581 -0.06,-0.091 -0.0213,-0.0445 -0.0253,-0.093 -0.0446,-0.1395 -0.0348,-0.089 -0.064,-0.1783 -0.0853,-0.2713 -0.0173,-0.0793 -0.0309,-0.1587 -0.0388,-0.2401 -0.0136,-0.0949 -0.0156,-0.1879 -0.0116,-0.2809 0.004,-0.0813 0.0116,-0.1587 0.0252,-0.2384 0.0153,-0.0929 0.0405,-0.1839 0.0717,-0.2749 0.0252,-0.0754 0.0522,-0.1491 0.087,-0.2228 0.0173,-0.0349 0.0233,-0.0734 0.0426,-0.1083 0.0311,-0.0561 0.0776,-0.0987 0.1125,-0.1511 0.0269,-0.0408 0.0425,-0.0853 0.0754,-0.1242 l 56.1467,-69.6985 c 0.004,-0.006 0.008,-0.01 0.0116,-0.0136 l 0.01,-0.0136 c 0.006,-0.008 0.0156,-0.01 0.0213,-0.0173 0.159,-0.1916 0.3566,-0.337 0.5715,-0.4533 0.0581,-0.0309 0.1122,-0.0581 0.1723,-0.0833 0.2344,-0.0987 0.4822,-0.1684 0.7418,-0.1684 0.2208,0 0.4434,0.0386 0.6642,0.1179 0.0329,0.0119 0.0541,0.0389 0.0873,0.0525 0.0986,0.0405 0.176,0.1066 0.2653,0.1627 0.1471,0.093 0.2846,0.1899 0.3989,0.3158 0.0272,0.0289 0.0677,0.0425 0.0929,0.0734 l 56.1682,69.7257 c 0.0309,0.0389 0.0465,0.0854 0.0755,0.1239 0.0368,0.0525 0.0813,0.095 0.1122,0.1514 0.0196,0.0349 0.0252,0.0734 0.0428,0.1083 0.0349,0.0737 0.0618,0.1454 0.087,0.2228 0.0275,0.091 0.0545,0.1803 0.07,0.2749 m 0,0 0,0 z"
             id="path3045"
             style="fill:#ececec;fill-opacity:1;fill-rule:evenodd;stroke:#ececec;stroke-width:0.21600001;stroke-linecap:butt;stroke-linejoin:miter;stroke-miterlimit:22.92558479;stroke-opacity:1;stroke-dasharray:none"
             inkscape:connector-curvature="0" />
        </g>
      </g>
      <g
         transform="matrix(1.25,0,0,-1.25,96.612916,1157.829)"
         id="g3047">
        <path
           d="m 328.7945,378.917 c 0.3875,1.8077 0.7574,3.6156 1.0919,5.4811 0.1409,0.7886 0.0176,3.2502 -2.4477,3.2502 l -75.0759,0 c -2.448,0 -2.5888,-2.4616 -2.448,-3.2502 3.9626,-21.2324 10.1792,-38.5798 17.7166,-49.7537 l -11.8874,0 c -1.3737,0 -2.4831,-1.2115 -2.4831,-2.7116 0,-1.5001 1.1094,-2.7119 2.4831,-2.7119 l 68.3133,0 c 1.3736,0 2.4831,1.2118 2.4831,2.7119 0,1.5001 -1.1095,2.7116 -2.4831,2.7116 l -11.8874,0 c 2.219,3.2887 4.3322,7.1351 6.3048,11.4624 8.7525,0.2886 17.6108,7.0198 20.2703,15.5974 1.8314,5.9428 -0.2818,16.905 -9.9505,17.2128 z m -23,-44.2726 -31.7877,0 c -7.7667,9.6162 -14.3002,26.3673 -18.5797,47.5614 l 68.9471,0 c -4.2619,-21.1941 -10.7955,-37.9262 -18.5797,-47.5614 z m 28.2308,28.8099 c -1.726,-5.5196 -7.344,-10.2892 -13.1029,-11.5971 2.5186,6.4429 4.7727,13.7511 6.6748,21.7517 6.9035,-0.0961 7.2734,-7.4623 6.4281,-10.1546"
           id="path3049"
           style="fill:#df3d7b;fill-opacity:1;fill-rule:evenodd;stroke:none"
           inkscape:connector-curvature="0" />
        <path
           d="m 277.5288,410.622 c -1.3737,0 -2.4831,-1.2116 -2.4831,-2.7117 l 0,-10.8085 c -0.0176,-1.5001 1.0919,-2.7116 2.4831,-2.7116 1.3737,0 2.4832,1.2115 2.4832,2.7116 l 0,10.8085 c 0,1.5001 -1.1095,2.7117 -2.4832,2.7117"
           id="path3051"
           style="fill:#df3d7b;fill-opacity:1;fill-rule:evenodd;stroke:none"
           inkscape:connector-curvature="0" />
        <path
           d="m 289.8918,416.0262 c -1.3736,0 -2.4831,-1.2115 -2.4831,-2.7116 l 0,-10.8085 c 0,-1.5001 1.1095,-2.7119 2.4831,-2.7119 1.3737,0 2.4832,1.2118 2.4832,2.7119 l 0,10.8085 c 0.0176,1.5001 -1.1095,2.7116 -2.4832,2.7116"
           id="path3053"
           style="fill:#df3d7b;fill-opacity:1;fill-rule:evenodd;stroke:none"
           inkscape:connector-curvature="0" />
        <path
           d="m 301.3656,410.622 c -1.3736,0 -2.4831,-1.2116 -2.4831,-2.7117 l 0,-10.8085 c 0,-1.5001 1.1095,-2.7116 2.4831,-2.7116 1.3737,0 2.4832,1.2115 2.4832,2.7116 l 0,10.8085 c 0,1.5001 -1.1095,2.7117 -2.4832,2.7117"
           id="path3055"
           style="fill:#df3d7b;fill-opacity:1;fill-rule:evenodd;stroke:none"
           inkscape:connector-curvature="0" />
      </g>
    </g>
  </g>
</svg>
