<?xml version="1.0" encoding="UTF-8" standalone="no"?>
<!-- Created with Inkscape (http://www.inkscape.org/) -->

<svg
   xmlns:dc="http://purl.org/dc/elements/1.1/"
   xmlns:cc="http://creativecommons.org/ns#"
   xmlns:rdf="http://www.w3.org/1999/02/22-rdf-syntax-ns#"
   xmlns:svg="http://www.w3.org/2000/svg"
   xmlns="http://www.w3.org/2000/svg"
   xmlns:sodipodi="http://sodipodi.sourceforge.net/DTD/sodipodi-0.dtd"
   xmlns:inkscape="http://www.inkscape.org/namespaces/inkscape"
   version="1.1"
   width="117"
   height="82"
   id="svg2"
   inkscape:version="0.48.5 r10040"
   sodipodi:docname="6.svg">
  <sodipodi:namedview
     pagecolor="#ffffff"
     bordercolor="#666666"
     borderopacity="1"
     objecttolerance="10"
     gridtolerance="10"
     guidetolerance="10"
     inkscape:pageopacity="0"
     inkscape:pageshadow="2"
     inkscape:window-width="1920"
     inkscape:window-height="1027"
     id="namedview43"
     showgrid="false"
     inkscape:zoom="1.5067294"
     inkscape:cx="63.866905"
     inkscape:cy="64.189691"
     inkscape:window-x="-8"
     inkscape:window-y="-8"
     inkscape:window-maximized="1"
     inkscape:current-layer="svg2" />
  <defs
     id="defs4" />
  <metadata
     id="metadata7">
    <rdf:RDF>
      <cc:Work
         rdf:about="">
        <dc:format>image/svg+xml</dc:format>
        <dc:type
           rdf:resource="http://purl.org/dc/dcmitype/StillImage" />
        <dc:title />
      </cc:Work>
    </rdf:RDF>
  </metadata>
  <g
     id="layer1"
     transform="matrix(0.61849213,0,0,0.6213657,-240.18463,-88.06827)">
    <g
       transform="matrix(1.25,0,0,-1.25,138.76925,798.32947)"
       id="g3001" />
    <g
       transform="matrix(1.25,0,0,-1.25,138.76925,798.32947)"
       id="g3003" />
    <g
       transform="matrix(1.25,0,0,-1.25,138.76925,798.32947)"
       id="g3005" />
    <g
       transform="matrix(1.25,0,0,-1.25,138.76925,798.32947)"
       id="g3007" />
    <g
       transform="matrix(1.25,0,0,-1.25,138.76925,798.32947)"
       id="g3009" />
    <g
       transform="matrix(1.25,0,0,-1.25,138.76925,798.32947)"
       id="g3011" />
    <g
       transform="matrix(1.25,0,0,-1.25,138.76925,798.32947)"
       id="g3013" />
    <g
       transform="matrix(1.25,0,0,-1.25,138.76925,798.32947)"
       id="g3015" />
    <g
       transform="matrix(1.25,0,0,-1.25,138.76925,798.32947)"
       id="g3017" />
    <g
       transform="matrix(1.25,0,0,-1.25,138.76925,798.32947)"
       id="g3019" />
    <g
       transform="matrix(1.25,0,0,-1.25,138.76925,798.32947)"
       id="g3021" />
    <g
       transform="matrix(1.25,0,0,-1.25,138.76925,798.32947)"
       id="g3023" />
    <g
       transform="matrix(1.25,0,0,-1.25,138.76925,798.32947)"
       id="g3025" />
    <g
       transform="matrix(1.25,0,0,-1.25,138.76925,798.32947)"
       id="g3027" />
    <g
       transform="matrix(1.25,0,0,-1.25,138.76925,798.32947)"
       id="g3029" />
    <g
       transform="matrix(1.25,0,0,-1.25,138.76925,798.32947)"
       id="g3121" />
    <g
       transform="matrix(1.25,0,0,-1.25,138.76925,798.32947)"
       id="g3123" />
    <g
       transform="matrix(1.25,0,0,-1.25,138.76925,798.32947)"
       id="g3125" />
    <g
       transform="matrix(1.25,0,0,-1.25,138.76925,798.32947)"
       id="g3127" />
    <g
       transform="matrix(1.25,0,0,-1.25,138.76925,798.32947)"
       id="g3129" />
    <g
       transform="matrix(1.25,0,0,-1.25,138.76925,798.32947)"
       id="g3131" />
    <g
       transform="matrix(1.25,0,0,-1.25,138.76925,798.32947)"
       id="g3133" />
    <g
       transform="matrix(1.25,0,0,-1.25,138.76925,798.32947)"
       id="g3135" />
    <g
       transform="matrix(1.25,0,0,-1.25,138.76925,798.32947)"
       id="g3137" />
    <g
       transform="matrix(1.25,0,0,-1.25,138.76925,798.32947)"
       id="g3139" />
    <g
       transform="matrix(1.25,0,0,-1.25,138.76925,798.32947)"
       id="g3141" />
    <g
       transform="matrix(1.25,0,0,-1.25,138.76925,798.32947)"
       id="g3143" />
    <g
       transform="matrix(1.25,0,0,-1.25,138.76925,798.32947)"
       id="g3145" />
    <g
       transform="matrix(1.25,0,0,-1.25,138.76925,798.32947)"
       id="g3147" />
    <g
       transform="matrix(1.25,0,0,-1.25,138.76925,798.32947)"
       id="g3149" />
    <g
       transform="matrix(1.25,0,0,-1.25,-89.760144,451.92702)"
       id="g3157">
      <g
         id="g3159">
        <path
           d="m 498.7202,214.7873 c 0.0136,0.0794 0.0215,0.1571 0.0252,0.2384 0.004,0.0947 0.002,0.186 -0.006,0.2807 -0.008,0.0813 -0.0195,0.159 -0.0388,0.2384 -0.0212,0.0929 -0.0504,0.1819 -0.0853,0.2709 -0.0173,0.0465 -0.0213,0.095 -0.0425,0.1395 -0.0153,0.0329 -0.0425,0.0581 -0.0601,0.091 -0.0173,0.0329 -0.025,0.068 -0.0445,0.1006 l -19.3683,30.9895 c -0.089,0.1415 -0.1936,0.2693 -0.3118,0.3816 -0.002,0.002 -0.004,0.002 -0.006,0.004 -0.1667,0.1568 -0.3642,0.2693 -0.5751,0.3583 -0.0273,0.0116 -0.0448,0.0349 -0.0737,0.0465 -0.0213,0.008 -0.0445,0.004 -0.0658,0.01 -0.1959,0.0657 -0.3971,0.1102 -0.6083,0.1102 l -73.5993,0 c -0.2092,0 -0.4088,-0.0445 -0.6007,-0.1083 -0.0212,-0.006 -0.0425,-0.002 -0.0618,-0.01 -0.0292,-0.01 -0.0465,-0.0332 -0.0737,-0.0448 -0.2012,-0.083 -0.3912,-0.1916 -0.5559,-0.3387 -0.01,-0.01 -0.0232,-0.0156 -0.0328,-0.0233 -0.1202,-0.1122 -0.2265,-0.2421 -0.3158,-0.3835 l -19.3683,-30.9892 c -0.0193,-0.0309 -0.0269,-0.0677 -0.0445,-0.1006 -0.0173,-0.0329 -0.0445,-0.0581 -0.0601,-0.091 -0.0213,-0.0445 -0.0249,-0.093 -0.0445,-0.1395 -0.0349,-0.089 -0.0638,-0.1783 -0.085,-0.2713 -0.0176,-0.0793 -0.0312,-0.1587 -0.0389,-0.2401 -0.0136,-0.0949 -0.0156,-0.1879 -0.0116,-0.2809 0.004,-0.0813 0.0116,-0.1587 0.0252,-0.2384 0.0153,-0.0929 0.0406,-0.1839 0.0715,-0.2749 0.0252,-0.0754 0.0524,-0.1491 0.0873,-0.2228 0.0173,-0.0349 0.0232,-0.0734 0.0425,-0.1083 0.0309,-0.0561 0.0774,-0.0987 0.1122,-0.1511 0.0273,-0.0408 0.0428,-0.0853 0.0757,-0.1242 l 56.1467,-69.6985 c 0.004,-0.006 0.008,-0.01 0.0116,-0.0136 l 0.01,-0.0136 c 0.006,-0.008 0.0156,-0.01 0.0212,-0.0173 0.1588,-0.1916 0.3563,-0.337 0.5712,-0.4533 0.0581,-0.0309 0.1125,-0.0581 0.1726,-0.0833 0.2342,-0.0987 0.4822,-0.1684 0.7416,-0.1684 0.2208,0 0.4436,0.0386 0.6644,0.1179 0.0329,0.0119 0.0542,0.0389 0.087,0.0525 0.099,0.0405 0.1764,0.1066 0.2654,0.1627 0.1474,0.093 0.2848,0.1899 0.3991,0.3158 0.0269,0.0289 0.0677,0.0425 0.093,0.0734 l 56.1679,69.7257 c 0.0312,0.0389 0.0465,0.0854 0.0757,0.1239 0.0368,0.0525 0.0813,0.095 0.1122,0.1514 0.0193,0.0349 0.0253,0.0734 0.0425,0.1083 0.0349,0.0737 0.0621,0.1454 0.0874,0.2228 0.0272,0.091 0.0544,0.1803 0.07,0.2749 m -3e-4,0 0,0 z"
           id="path3161"
           style="fill:#ececec;fill-opacity:1;fill-rule:evenodd;stroke:#ececec;stroke-width:0.21600001;stroke-linecap:butt;stroke-linejoin:miter;stroke-miterlimit:22.92558479;stroke-opacity:1;stroke-dasharray:none"
           inkscape:connector-curvature="0" />
      </g>
    </g>
    <path
       d="m 489.03311,174.62502 c -5.82912,0 -10.57187,4.74238 -10.57187,10.57137 l 0,73.69263 c 0,5.82875 4.74275,10.5715 10.57187,10.5715 l 73.69263,0 c 5.82875,0 10.57137,-4.74275 10.57137,-10.5715 l 0,-73.69263 c 0,-5.82899 -4.74262,-10.57137 -10.57137,-10.57137 l -73.69263,0 z m 73.69263,98.94075 -73.69263,0 c -8.093,0 -14.67712,-6.58413 -14.67712,-14.67675 l 0,-73.69263 c 0,-8.09287 6.58412,-14.677 14.67712,-14.677 l 73.69263,0 c 8.0925,0 14.67662,6.58413 14.67662,14.677 l 0,73.69263 c 0,8.09262 -6.58412,14.67675 -14.67662,14.67675 z"
       id="path3173"
       style="fill:#df3d7b;fill-opacity:1;fill-rule:evenodd;stroke:#df3d7b;stroke-width:0.27000001;stroke-linecap:round;stroke-linejoin:round;stroke-miterlimit:22.92558479;stroke-opacity:1;stroke-dasharray:none"
       inkscape:connector-curvature="0" />
    <path
       d="m 513.21436,192.34039 0,31.86463 14.47513,0 c 8.94612,0 14.27387,-4.9255 14.27387,-15.37937 l 0,-1.2065 c 0,-10.45413 -5.32775,-15.27876 -14.27387,-15.27876 l -14.47513,0 z m -6.6345,-3.71937 c 0,-1.30675 1.10588,-2.312 2.81475,-2.41225 l 18.49537,0 c 11.66075,0 20.7075,5.7295 20.7075,21.31012 l 0,1.00488 c 0,15.58062 -9.14737,21.41075 -20.908,21.41075 l -14.47512,0 0,27.14038 c 0,1.70887 -1.709,2.6135 -3.31763,2.6135 -1.70862,0 -3.31687,-0.90463 -3.31687,-2.6135 l 0,-68.45388 z"
       id="path3175"
       style="fill:#df3d7b;fill-opacity:1;fill-rule:evenodd;stroke:#df3d7b;stroke-width:0.27000001;stroke-linecap:round;stroke-linejoin:round;stroke-miterlimit:22.92558479;stroke-opacity:1;stroke-dasharray:none"
       inkscape:connector-curvature="0" />
    <path
       d="m 484.79449,227.59777 c -1.24788,0 -2.25988,-1.012 -2.25988,-2.25987 l 0,-0.90426 c 0,-1.24799 1.012,-2.25962 2.25988,-2.25962 1.248,0 2.26,1.01163 2.26,2.25987 l 0,0.904 c 0,1.24788 -1.012,2.25988 -2.26,2.25988 z"
       id="path3177"
       style="fill:#df3d7b;fill-opacity:1;fill-rule:evenodd;stroke:#df3d7b;stroke-width:0.27000001;stroke-linecap:round;stroke-linejoin:round;stroke-miterlimit:22.92558479;stroke-opacity:1;stroke-dasharray:none"
       inkscape:connector-curvature="0" />
    <path
       d="m 484.79449,254.04002 c -1.24788,0 -2.25988,-1.01187 -2.25988,-2.26025 l 0,-18.30612 c 0,-1.24763 1.012,-2.25988 2.25988,-2.25988 1.248,0 2.26,1.01225 2.26,2.25988 l 0,18.30612 c 0,1.24838 -1.012,2.26025 -2.26,2.26025 z"
       id="path3179"
       style="fill:#df3d7b;fill-opacity:1;fill-rule:evenodd;stroke:#df3d7b;stroke-width:0.27000001;stroke-linecap:round;stroke-linejoin:round;stroke-miterlimit:22.92558479;stroke-opacity:1;stroke-dasharray:none"
       inkscape:connector-curvature="0" />
  </g>
</svg>
