<?xml version="1.0" encoding="UTF-8" standalone="no"?>
<!-- Created with Inkscape (http://www.inkscape.org/) -->

<svg
   xmlns:dc="http://purl.org/dc/elements/1.1/"
   xmlns:cc="http://creativecommons.org/ns#"
   xmlns:rdf="http://www.w3.org/1999/02/22-rdf-syntax-ns#"
   xmlns:svg="http://www.w3.org/2000/svg"
   xmlns="http://www.w3.org/2000/svg"
   xmlns:sodipodi="http://sodipodi.sourceforge.net/DTD/sodipodi-0.dtd"
   xmlns:inkscape="http://www.inkscape.org/namespaces/inkscape"
   version="1.1"
   width="128"
   height="82"
   id="svg2"
   inkscape:version="0.48.5 r10040"
   sodipodi:docname="3.svg">
  <sodipodi:namedview
     pagecolor="#ffffff"
     bordercolor="#666666"
     borderopacity="1"
     objecttolerance="10"
     gridtolerance="10"
     guidetolerance="10"
     inkscape:pageopacity="0"
     inkscape:pageshadow="2"
     inkscape:window-width="1920"
     inkscape:window-height="1027"
     id="namedview26"
     showgrid="false"
     inkscape:zoom="1.1877184"
     inkscape:cx="26.341131"
     inkscape:cy="99.163568"
     inkscape:window-x="-8"
     inkscape:window-y="-8"
     inkscape:window-maximized="1"
     inkscape:current-layer="svg2" />
  <defs
     id="defs4" />
  <metadata
     id="metadata7">
    <rdf:RDF>
      <cc:Work
         rdf:about="">
        <dc:format>image/svg+xml</dc:format>
        <dc:type
           rdf:resource="http://purl.org/dc/dcmitype/StillImage" />
        <dc:title />
      </cc:Work>
    </rdf:RDF>
  </metadata>
  <g
     transform="matrix(0.69942604,0,0,0.69484369,0.00237888,-649.23141)"
     id="layer1">
    <g
       transform="matrix(1.0863511,0,0,-1.1260588,-414.15527,1423.0043)"
       id="g2993">
      <g
         id="g2995" />
      <g
         id="g2997" />
      <g
         id="g2999" />
      <g
         id="g3001" />
      <g
         id="g3003" />
      <g
         id="g3005" />
      <g
         id="g3007" />
      <g
         id="g3009" />
      <g
         id="g3011" />
      <g
         id="g3013" />
      <g
         id="g3015" />
      <g
         id="g3017" />
      <g
         id="g3019" />
      <g
         id="g3021" />
      <g
         id="g3023" />
      <g
         id="g3025">
        <g
           id="g3027">
          <path
             d="m 497.4999,400.5799 c 0.0136,0.0794 0.0215,0.1571 0.0252,0.2384 0.004,0.0947 0.002,0.186 -0.006,0.2807 -0.008,0.0813 -0.0195,0.159 -0.0388,0.2384 -0.0213,0.0929 -0.0505,0.1819 -0.0853,0.2709 -0.0173,0.0465 -0.0213,0.095 -0.0425,0.1395 -0.0154,0.0329 -0.0426,0.0581 -0.0601,0.091 -0.0173,0.0329 -0.025,0.068 -0.0445,0.1006 l -19.3683,30.9895 c -0.089,0.1415 -0.1936,0.2693 -0.3118,0.3816 -0.002,0.002 -0.004,0.002 -0.006,0.004 -0.1667,0.1568 -0.3643,0.2693 -0.5752,0.3583 -0.0272,0.0116 -0.0447,0.0349 -0.0737,0.0465 -0.0212,0.008 -0.0445,0.004 -0.0657,0.01 -0.1959,0.0657 -0.3972,0.1102 -0.6083,0.1102 l -73.5993,0 c -0.2092,0 -0.4088,-0.0445 -0.6007,-0.1083 -0.0213,-0.006 -0.0425,-0.002 -0.0618,-0.01 -0.0292,-0.01 -0.0465,-0.0332 -0.0737,-0.0448 -0.2013,-0.083 -0.3912,-0.1916 -0.5559,-0.3387 -0.01,-0.01 -0.0232,-0.0156 -0.0329,-0.0233 -0.1201,-0.1122 -0.2264,-0.2421 -0.3157,-0.3835 l -19.3683,-30.9892 c -0.0193,-0.0309 -0.0269,-0.0677 -0.0445,-0.1006 -0.0173,-0.0329 -0.0445,-0.0581 -0.0601,-0.091 -0.0213,-0.0445 -0.025,-0.093 -0.0445,-0.1395 -0.0349,-0.089 -0.0638,-0.1783 -0.0851,-0.2713 -0.0175,-0.0793 -0.0311,-0.1587 -0.0388,-0.2401 -0.0136,-0.0949 -0.0156,-0.1879 -0.0116,-0.2809 0.004,-0.0813 0.0116,-0.1587 0.0252,-0.2384 0.0153,-0.0929 0.0405,-0.1839 0.0714,-0.2749 0.0253,-0.0754 0.0525,-0.1491 0.0874,-0.2228 0.0172,-0.0349 0.0232,-0.0734 0.0425,-0.1083 0.0309,-0.0561 0.0774,-0.0987 0.1122,-0.1511 0.0272,-0.0408 0.0428,-0.0853 0.0757,-0.1242 l 56.1467,-69.6985 c 0.004,-0.006 0.008,-0.01 0.0116,-0.0136 l 0.01,-0.0136 c 0.006,-0.008 0.0156,-0.01 0.0213,-0.0173 0.1587,-0.1916 0.3563,-0.337 0.5712,-0.4533 0.0581,-0.0309 0.1125,-0.0581 0.1726,-0.0833 0.2342,-0.0987 0.4822,-0.1684 0.7416,-0.1684 0.2208,0 0.4436,0.0386 0.6644,0.1179 0.0329,0.0119 0.0541,0.0389 0.087,0.0525 0.099,0.0405 0.1763,0.1066 0.2653,0.1627 0.1474,0.093 0.2849,0.1899 0.3992,0.3158 0.0269,0.0289 0.0677,0.0425 0.0929,0.0734 l 56.168,69.7257 c 0.0312,0.0389 0.0465,0.0854 0.0757,0.1239 0.0368,0.0525 0.0813,0.095 0.1122,0.1514 0.0193,0.0349 0.0252,0.0734 0.0425,0.1083 0.0349,0.0737 0.0621,0.1454 0.0873,0.2228 0.0273,0.091 0.0545,0.1803 0.0701,0.2749 m -3e-4,0 0,0 z"
             id="path3029"
             style="fill:#ececec;fill-opacity:1;fill-rule:evenodd;stroke:#ececec;stroke-width:0.21600001;stroke-linecap:butt;stroke-linejoin:miter;stroke-miterlimit:22.92558479;stroke-opacity:1;stroke-dasharray:none"
             inkscape:connector-curvature="0" />
        </g>
      </g>
      <path
         d="m 531.3163,333.8048 -29.7235,0 c -2.4091,0 -4.4047,0.4668 -6.0585,1.2523 -0.0737,0.0493 -0.1499,0.0964 -0.2304,0.1375 -2.5651,1.3036 -4.2682,3.3647 -5.3992,5.5505 -1.8564,3.6456 -2.2337,7.8236 -2.2833,10.1322 -0.003,0.191 -0.007,0.3824 -0.007,0.5754 0,0.2438 0.005,0.4839 0.0102,0.7237 0.0604,2.2564 0.4354,6.1398 2.0993,9.6185 0.0219,0.0448 0.0434,0.0899 0.0658,0.1346 0.0119,0.0247 0.0244,0.0496 0.0369,0.0743 0.0907,0.1797 0.187,0.3589 0.2863,0.5377 0.0782,0.1395 0.1567,0.279 0.2386,0.4142 0.01,0.0161 0.019,0.0323 0.0287,0.0487 1.7883,2.9407 4.3939,4.9142 7.6711,5.7014 0.0125,0.003 0.0255,0.005 0.0377,0.008 0.1783,0.0422 0.3591,0.0799 0.5414,0.1151 0.1301,0.0249 0.2631,0.0467 0.3963,0.0683 0.07,0.0113 0.1397,0.0232 0.2103,0.0337 0.1817,0.0267 0.3651,0.051 0.5525,0.0715 l 0,0 c 3e-4,0 3e-4,0 6e-4,0 2e-4,0 8e-4,5e-4 10e-4,5e-4 0.0192,0.002 0.0382,0.005 0.0578,0.007 0.01,10e-4 0.0201,0.002 0.0303,0.003 0.1656,0.017 0.3322,0.0312 0.5012,0.0434 0.006,6e-4 0.011,9e-4 0.0167,10e-4 l 0.1568,0.0105 c 0.1219,0.008 0.2443,0.0131 0.3673,0.0176 l 0.1472,0.006 c 0.1726,0.005 0.3466,0.008 0.5238,0.008 l 29.7235,0 c 0.1919,0 0.381,-0.004 0.5675,-0.009 0.555,-0.0181 1.0987,-0.0627 1.6223,-0.1335 0.0164,-0.002 0.0326,-0.001 0.0487,-0.003 10.8497,-1.4655 11.7392,-13.614 11.7392,-17.5017 0,-4.1397 -1.008,-17.6476 -13.978,-17.6476 z m -60.3334,1.6282 -0.5383,7.7227 13.8365,0 c 8e-4,-0.004 0.002,-0.007 0.003,-0.0114 0.1012,-0.3639 0.2081,-0.7234 0.3234,-1.0763 0.004,-0.0113 0.007,-0.0235 0.0108,-0.0348 0.1117,-0.3393 0.229,-0.6741 0.3535,-1.0024 0.0918,-0.2449 0.1913,-0.4824 0.29,-0.7205 0.0258,-0.0613 0.0496,-0.1245 0.0756,-0.1854 0.1214,-0.2838 0.2486,-0.5607 0.3799,-0.8345 0.003,-0.007 0.007,-0.0142 0.01,-0.0216 0.6795,-1.4167 1.4854,-2.702 2.4194,-3.8358 l -17.1638,0 z m -10.1129,76.5884 49.4439,0 -3.4625,-31.5187 -3.3818,0 2.3548,21.4319 c 0.068,0.6208 -0.1313,1.2413 -0.548,1.7068 -0.4169,0.4651 -1.0119,0.7307 -1.6367,0.7307 l -36.0952,3e-4 c -0.6248,0 -1.2198,-0.2659 -1.6368,-0.731 -0.4169,-0.4652 -0.6159,-1.0857 -0.5479,-1.7068 l 4.5782,-41.6744 c 0.1225,-1.1143 1.0636,-1.9576 2.1844,-1.9576 l 11.8015,0 c -0.0476,-0.2197 -0.093,-0.4411 -0.1361,-0.6644 -0.0218,-0.1128 -0.043,-0.2262 -0.0635,-0.3402 -0.0362,-0.2015 -0.0711,-0.4036 -0.1034,-0.6077 -0.0227,-0.1423 -0.0437,-0.2855 -0.0646,-0.4292 -0.0267,-0.1854 -0.0531,-0.3708 -0.0766,-0.5587 -0.0212,-0.1678 -0.0397,-0.3379 -0.0584,-0.5077 -0.0184,-0.1706 -0.0377,-0.3407 -0.0538,-0.5131 -0.0182,-0.195 -0.0324,-0.392 -0.0471,-0.589 -0.0113,-0.1539 -0.0247,-0.307 -0.034,-0.462 -0.0145,-0.2316 -0.0238,-0.4663 -0.0332,-0.7011 -0.005,-0.1255 -0.0127,-0.2497 -0.0164,-0.3761 -0.0114,-0.3634 -0.0173,-0.7299 -0.0173,-1.1007 0,-0.3504 0.006,-0.6982 0.0162,-1.0443 0.004,-0.1344 0.0104,-0.2667 0.0158,-0.4 0.008,-0.2049 0.017,-0.4093 0.0289,-0.6122 0.01,-0.1684 0.0216,-0.3354 0.0335,-0.5018 0.0116,-0.1587 0.0244,-0.3169 0.0383,-0.4748 0.0164,-0.1899 0.034,-0.3793 0.0532,-0.5672 0.004,-0.0332 0.006,-0.0672 0.01,-0.0998 l -15.4845,0 -7.0606,64.2688 z m 20.4225,-29.503 -9.3779,0 -0.7242,6.5931 14.4972,0 c 1.2141,0 2.198,0.9839 2.198,2.198 0,1.2138 -0.9839,2.1977 -2.198,2.1977 l -14.9802,0 -0.7107,6.4698 31.1902,0 -2.139,-19.4743 -2.6065,0 c -1.2138,0 -2.1977,-0.9839 -2.1977,-2.1977 0,-1.2138 0.9839,-2.1977 2.1977,-2.1977 l 0.4694,0 0,-3.1524 c -2.8459,-0.6945 -5.3407,-2.0512 -7.4029,-4.0283 -1.0848,-1.0386 -2.0449,-2.2451 -2.8693,-3.6088 -0.015,-0.0249 -0.0303,-0.0499 -0.0453,-0.0751 -0.14,-0.2344 -0.2764,-0.4731 -0.4085,-0.7166 -0.0255,-0.0476 -0.051,-0.0955 -0.0759,-0.1432 -0.1228,-0.2299 -0.2424,-0.4626 -0.3578,-0.7004 -0.0323,-0.0663 -0.0626,-0.1344 -0.0941,-0.2013 -0.0816,-0.1729 -0.1613,-0.3478 -0.239,-0.5247 -0.0379,-0.0861 -0.0771,-0.1712 -0.1139,-0.2582 l -11.2119,0 -1.6945,15.4247 8.8948,0 c 1.2138,0 2.1977,0.9839 2.1977,2.1977 0,1.2138 -0.9839,2.1977 -2.1977,2.1977 z m 50.3101,-9.0241 c -0.0952,9e-4 -0.1907,10e-4 -0.2863,10e-4 l -29.7235,0 c -0.0958,0 -0.1913,-5e-4 -0.2866,-10e-4 l 3e-4,2.613 7.5141,0 22.782,0 0,-2.613 z m 13.6747,-6.6963 c -2.3474,3.153 -5.5052,5.2362 -9.2793,6.1566 l 3e-4,3.1524 0.4694,0 c 1.2138,0 2.1977,0.9839 2.1977,2.1977 0,1.2138 -0.9839,2.198 -2.1977,2.198 l -2.6671,0 -22.5275,0 3.678,33.4766 c 0.068,0.6208 -0.1313,1.2416 -0.548,1.7067 -0.4169,0.4655 -1.0122,0.7311 -1.6367,0.7311 l -54.3489,0 c -0.6245,0 -1.2198,-0.2656 -1.6367,-0.7311 -0.3649,-0.407 -0.5627,-0.9328 -0.561,-1.4743 3e-4,-0.0771 0.005,-0.1547 0.013,-0.2324 l 7.5436,-68.665 c 0.1224,-1.114 1.0635,-1.9579 2.1844,-1.9579 l 0.0637,0 0.7161,-10.2745 c 0.0802,-1.1514 1.038,-2.0449 2.1926,-2.0449 l 24.8692,0 c 2.3079,-1.0746 4.9243,-1.6282 7.7904,-1.6282 l 29.7235,0 c 5.8709,0 10.6986,2.3162 13.961,6.698 2.8868,3.8772 4.4127,9.1837 4.4127,15.3453 0,6.1617 -1.5259,11.4687 -4.4127,15.3459"
         id="path3031"
         style="fill:#df3d7b;fill-opacity:1;fill-rule:evenodd;stroke:none"
         inkscape:connector-curvature="0" />
    </g>
  </g>
</svg>
