<?xml version="1.0" encoding="UTF-8" standalone="no"?>
<!-- Created with Inkscape (http://www.inkscape.org/) -->

<svg
   xmlns:dc="http://purl.org/dc/elements/1.1/"
   xmlns:cc="http://creativecommons.org/ns#"
   xmlns:rdf="http://www.w3.org/1999/02/22-rdf-syntax-ns#"
   xmlns:svg="http://www.w3.org/2000/svg"
   xmlns="http://www.w3.org/2000/svg"
   xmlns:sodipodi="http://sodipodi.sourceforge.net/DTD/sodipodi-0.dtd"
   xmlns:inkscape="http://www.inkscape.org/namespaces/inkscape"
   version="1.1"
   width="120"
   height="82"
   id="svg2"
   inkscape:version="0.48.5 r10040"
   sodipodi:docname="4.svg">
  <sodipodi:namedview
     pagecolor="#ffffff"
     bordercolor="#666666"
     borderopacity="1"
     objecttolerance="10"
     gridtolerance="10"
     guidetolerance="10"
     inkscape:pageopacity="0"
     inkscape:pageshadow="2"
     inkscape:window-width="1920"
     inkscape:window-height="1027"
     id="namedview50"
     showgrid="false"
     inkscape:zoom="0.83984374"
     inkscape:cx="255.77294"
     inkscape:cy="230.5969"
     inkscape:window-x="-8"
     inkscape:window-y="-8"
     inkscape:window-maximized="1"
     inkscape:current-layer="svg2" />
  <defs
     id="defs4" />
  <metadata
     id="metadata7">
    <rdf:RDF>
      <cc:Work
         rdf:about="">
        <dc:format>image/svg+xml</dc:format>
        <dc:type
           rdf:resource="http://purl.org/dc/dcmitype/StillImage" />
        <dc:title />
      </cc:Work>
    </rdf:RDF>
  </metadata>
  <g
     id="layer1"
     transform="matrix(0.61776961,0,0,0.62593605,-141.95344,-362.83325)">
    <g
       transform="matrix(1.25,0,0,-1.25,96.612916,1157.829)"
       id="g3001" />
    <g
       transform="matrix(1.25,0,0,-1.25,96.612916,1157.829)"
       id="g3003" />
    <g
       transform="matrix(1.25,0,0,-1.25,96.612916,1157.829)"
       id="g3005" />
    <g
       transform="matrix(1.25,0,0,-1.25,96.612916,1157.829)"
       id="g3007" />
    <g
       transform="matrix(1.25,0,0,-1.25,96.612916,1157.829)"
       id="g3009" />
    <g
       transform="matrix(1.25,0,0,-1.25,96.612916,1157.829)"
       id="g3011" />
    <g
       transform="matrix(1.25,0,0,-1.25,96.612916,1157.829)"
       id="g3013" />
    <g
       transform="matrix(1.25,0,0,-1.25,96.612916,1157.829)"
       id="g3015" />
    <g
       transform="matrix(1.25,0,0,-1.25,96.612916,1157.829)"
       id="g3017" />
    <g
       transform="matrix(1.25,0,0,-1.25,96.612916,1157.829)"
       id="g3019" />
    <g
       transform="matrix(1.25,0,0,-1.25,96.612916,1157.829)"
       id="g3021" />
    <g
       transform="matrix(1.25,0,0,-1.25,96.612916,1157.829)"
       id="g3023" />
    <g
       transform="matrix(1.25,0,0,-1.25,96.612916,1157.829)"
       id="g3025" />
    <g
       transform="matrix(1.25,0,0,-1.25,96.612916,1157.829)"
       id="g3027" />
    <g
       transform="matrix(1.25,0,0,-1.25,96.612916,1157.829)"
       id="g3029" />
    <g
       transform="translate(-610.65781,-35.72093)"
       id="g3279">
      <g
         transform="matrix(1.25,0,0,-1.25,96.612916,1157.829)"
         id="g3075">
        <g
           id="g3077">
          <path
             d="m 711.3348,400.5799 c 0.0136,0.0794 0.0215,0.1571 0.0252,0.2384 0.004,0.0947 0.002,0.186 -0.006,0.2807 -0.008,0.0813 -0.0195,0.159 -0.0388,0.2384 -0.0213,0.0929 -0.0505,0.1819 -0.0853,0.2709 -0.0173,0.0465 -0.0213,0.095 -0.0425,0.1395 -0.0154,0.0329 -0.0426,0.0581 -0.0601,0.091 -0.0173,0.0329 -0.025,0.068 -0.0445,0.1006 l -19.3683,30.9895 c -0.089,0.1415 -0.1936,0.2693 -0.3118,0.3816 -0.002,0.002 -0.004,0.002 -0.006,0.004 -0.1667,0.1568 -0.3643,0.2693 -0.5752,0.3583 -0.0272,0.0116 -0.0447,0.0349 -0.0737,0.0465 -0.0212,0.008 -0.0445,0.004 -0.0657,0.01 -0.1959,0.0657 -0.3972,0.1102 -0.6083,0.1102 l -73.5993,0 c -0.2092,0 -0.4088,-0.0445 -0.6007,-0.1083 -0.0213,-0.006 -0.0425,-0.002 -0.0618,-0.01 -0.0292,-0.01 -0.0465,-0.0332 -0.0737,-0.0448 -0.2013,-0.083 -0.3912,-0.1916 -0.5559,-0.3387 -0.01,-0.01 -0.0232,-0.0156 -0.0329,-0.0233 -0.1201,-0.1122 -0.2264,-0.2421 -0.3157,-0.3835 l -19.3683,-30.9892 c -0.0193,-0.0309 -0.027,-0.0677 -0.0445,-0.1006 -0.0173,-0.0329 -0.0445,-0.0581 -0.0601,-0.091 -0.0213,-0.0445 -0.025,-0.093 -0.0445,-0.1395 -0.0349,-0.089 -0.0638,-0.1783 -0.0851,-0.2713 -0.0175,-0.0793 -0.0311,-0.1587 -0.0388,-0.2401 -0.0136,-0.0949 -0.0156,-0.1879 -0.0116,-0.2809 0.004,-0.0813 0.0116,-0.1587 0.0252,-0.2384 0.0153,-0.0929 0.0405,-0.1839 0.0714,-0.2749 0.0253,-0.0754 0.0525,-0.1491 0.0873,-0.2228 0.0173,-0.0349 0.0233,-0.0734 0.0426,-0.1083 0.0309,-0.0561 0.0774,-0.0987 0.1122,-0.1511 0.0272,-0.0408 0.0428,-0.0853 0.0757,-0.1242 l 56.1467,-69.6985 c 0.004,-0.006 0.008,-0.01 0.0116,-0.0136 l 0.01,-0.0136 c 0.006,-0.008 0.0156,-0.01 0.0213,-0.0173 0.1587,-0.1916 0.3563,-0.337 0.5712,-0.4533 0.0581,-0.0309 0.1125,-0.0581 0.1726,-0.0833 0.2342,-0.0987 0.4822,-0.1684 0.7416,-0.1684 0.2208,0 0.4436,0.0386 0.6644,0.1179 0.0329,0.0119 0.0541,0.0389 0.087,0.0525 0.099,0.0405 0.1763,0.1066 0.2653,0.1627 0.1474,0.093 0.2849,0.1899 0.3992,0.3158 0.0269,0.0289 0.0677,0.0425 0.0929,0.0734 l 56.168,69.7257 c 0.0312,0.0389 0.0465,0.0854 0.0757,0.1239 0.0368,0.0525 0.0813,0.095 0.1122,0.1514 0.0193,0.0349 0.0252,0.0734 0.0425,0.1083 0.0349,0.0737 0.0621,0.1454 0.0873,0.2228 0.0273,0.091 0.0545,0.1803 0.0701,0.2749 m -3e-4,0 0,0 z"
             id="path3079"
             style="fill:#ececec;fill-opacity:1;fill-rule:evenodd;stroke:#ececec;stroke-width:0.21600001;stroke-linecap:butt;stroke-linejoin:miter;stroke-miterlimit:22.92558479;stroke-opacity:1;stroke-dasharray:none"
             inkscape:connector-curvature="0" />
        </g>
      </g>
      <g
         transform="matrix(1.25,0,0,-1.25,96.612916,1157.829)"
         id="g3081">
        <g
           id="g3083">
          <g
             id="g3085">
            <path
               d="m 748.3107,416.3856 c -5.9346,0 -11.6827,-1.7365 -16.6237,-5.0224 l -7.2468,-4.8186 c -1.1364,0.4266 -2.7995,1.1194 -4.7968,1.9514 -8.2894,3.4531 -22.1576,9.2299 -30.4568,9.2398 -0.007,3e-4 -0.0134,3e-4 -0.0173,5e-4 l -1.1951,0.01 c -0.4261,0 -0.8722,-0.01 -1.3167,-0.0286 l -0.072,-0.003 c -0.4085,-0.0181 -0.8382,-0.0465 -1.2762,-0.0845 -8e-4,0 -0.0221,-0.002 -0.0229,-0.002 l -0.0709,-0.006 c -0.398,-0.0355 -0.815,-0.0814 -1.2506,-0.1378 l -0.097,-0.0125 c -0.396,-0.0527 -0.8056,-0.1159 -1.2124,-0.1871 l -0.1131,-0.0198 c -0.3965,-0.0709 -0.8008,-0.1514 -1.2013,-0.2398 l -0.0941,-0.0204 c -0.4005,-0.0896 -0.8045,-0.1888 -1.1965,-0.2934 l -0.0706,-0.0193 c -0.4068,-0.1094 -0.8118,-0.2282 -1.2044,-0.3518 l 0,0 -0.0309,-0.01 c -11.295,-3.5725 -18.8924,-13.2636 -18.906,-24.1183 l 0,-0.0589 c 0.008,-6.6816 2.895,-12.9206 7.7465,-17.5649 l 15.4911,-43.8871 c 0.307,-0.8697 1.129,-1.4514 2.0514,-1.4514 l 10.2235,0 3.1884,0 9.6757,0 c 4.3915,0 7.9643,3.5728 7.9643,7.9642 l 0,14.309 c 0,3.5626 2.8981,6.4608 6.4607,6.4608 3.5626,0 6.4607,-2.8982 6.4607,-6.4608 l 0,-4.2077 c 0,-1.2013 0.974,-2.1753 2.1753,-2.1753 1.2013,0 2.1753,0.974 2.1753,2.1753 l 0,4.2077 c 0,5.9613 -4.8498,10.8117 -10.8113,10.8117 -5.9616,0 -10.8116,-4.8504 -10.8116,-10.8117 l 0,-14.309 c 0,-1.9924 -1.6209,-3.6136 -3.6134,-3.6136 l -6.7407,0 2.0004,6.579 c 1.6458,5.4076 0.29,11.3521 -3.5388,15.5137 -0.3813,0.4141 -0.733,0.8589 -1.0514,1.3258 -0.1134,0.1666 -0.2233,0.3361 -0.3279,0.5082 0,3e-4 -6e-4,9e-4 -6e-4,0.001 -1.1135,1.8304 -1.7019,3.9294 -1.7019,6.0707 0,1.0389 0.138,2.0716 0.4116,3.0702 l 0.3407,1.2484 c 7.5053,1.9032 16.1685,5.5103 22.0368,7.9549 1.9973,0.8319 3.6604,1.5247 4.7968,1.9511 l 7.2468,-4.8187 c 4.9413,-3.2856 10.6897,-5.0224 16.6237,-5.0224 1.2014,0 2.1753,0.974 2.1753,2.1753 l 0,44.0518 c 0,1.2016 -0.9739,2.1753 -2.1753,2.1753 z m -51.3839,-82.7838 -1.576,0 -8.6845,0 -12.8909,36.5204 c 0.7348,-0.3909 1.4945,-0.7497 2.2737,-1.0814 0.108,-0.0462 0.2163,-0.0918 0.3249,-0.1366 0.1428,-0.059 0.2851,-0.1182 0.4291,-0.1749 0.2588,-0.1026 0.5196,-0.2004 0.7818,-0.2957 0.0842,-0.0306 0.1692,-0.0603 0.2546,-0.0901 0.3013,-0.1066 0.6037,-0.2095 0.9088,-0.3061 0.003,-10e-4 0.013,-0.004 0.0201,-0.007 l 0.007,-0.002 c 0.1074,-0.0341 0.218,-0.0664 0.3271,-0.0993 0.2911,-0.0881 0.5845,-0.1734 0.8779,-0.2528 0.002,-3e-4 0.0235,-0.007 0.0252,-0.007 l 0.0425,-0.0119 c 0.01,-0.003 0.0204,-0.005 0.0304,-0.007 0.3843,-0.1023 0.7769,-0.199 1.1752,-0.2883 l 0.0873,-0.0193 c 0.4034,-0.0887 0.8079,-0.1695 1.2016,-0.2398 l 0.1083,-0.019 c 0.4065,-0.0711 0.8158,-0.134 1.2158,-0.1876 l 0.1083,-0.0136 c 0.4232,-0.0553 0.8407,-0.1012 1.2438,-0.1372 l 0.0485,-0.004 0.0439,-0.004 c 0.4456,-0.038 0.8626,-0.0655 1.2762,-0.0836 l 0.0609,-0.002 c 0.1738,-0.007 0.3464,-0.0122 0.5185,-0.017 0.2752,-0.007 0.5471,-0.0122 0.8192,-0.0122 l 1.186,0.0102 c 0.002,0 0.005,3e-4 0.007,3e-4 l 0.009,0 c 0.1361,0 0.2781,0.006 0.4176,0.009 0.9961,0.0224 2.071,0.1145 3.2493,0.2886 -0.2327,-1.0922 -0.3501,-2.2094 -0.3501,-3.3313 0,-2.2666 0.4825,-4.4983 1.4032,-6.5534 -2.473,-2.1668 -3.9484,-5.3371 -3.9484,-8.6752 0,-5.133 3.4004,-9.5414 8.1147,-11.0007 l -1.1466,-3.7692 z m 0.0624,18.8603 c 0.0377,-0.0439 0.0734,-0.0884 0.1103,-0.1327 0.045,-0.0538 0.0907,-0.1071 0.1343,-0.1615 0.038,-0.0474 0.0746,-0.0958 0.112,-0.1437 0.0408,-0.0525 0.0825,-0.1044 0.1222,-0.1574 0.0371,-0.049 0.0723,-0.0989 0.1083,-0.1485 0.0385,-0.053 0.0779,-0.1054 0.1153,-0.159 0.0349,-0.0499 0.0681,-0.1001 0.1018,-0.1505 0.0371,-0.0545 0.0745,-0.1086 0.1108,-0.1636 0.0332,-0.051 0.0647,-0.1026 0.0972,-0.1539 0.0349,-0.0556 0.0706,-0.1103 0.1046,-0.1664 0.0312,-0.0513 0.0607,-0.1035 0.091,-0.1551 0.0335,-0.0569 0.0678,-0.1134 0.1001,-0.1706 0.0289,-0.0513 0.0564,-0.1035 0.0848,-0.1554 0.032,-0.0586 0.0646,-0.1167 0.0955,-0.1757 0.0272,-0.0522 0.0524,-0.1049 0.0788,-0.157 0.03,-0.0599 0.0609,-0.1197 0.0901,-0.1795 0.0247,-0.0513 0.0479,-0.1034 0.072,-0.155 0.0289,-0.0621 0.0587,-0.1242 0.0862,-0.1868 0.0227,-0.0505 0.0437,-0.1018 0.0649,-0.1528 0.0275,-0.0641 0.0553,-0.1284 0.0817,-0.1931 0.0209,-0.0513 0.0402,-0.1037 0.0606,-0.1556 0.0252,-0.0646 0.051,-0.1292 0.0749,-0.1942 0.0192,-0.0521 0.0368,-0.1046 0.0552,-0.1567 0.0233,-0.0658 0.0471,-0.1313 0.0692,-0.1973 0.017,-0.0516 0.0329,-0.1032 0.049,-0.1551 0.0219,-0.0674 0.0437,-0.1349 0.0638,-0.2026 0.0153,-0.0511 0.0289,-0.1021 0.0434,-0.1531 0.0198,-0.0692 0.0397,-0.1383 0.0581,-0.2081 0.0133,-0.0504 0.0255,-0.1012 0.038,-0.1519 0.0176,-0.0706 0.0357,-0.1412 0.0521,-0.2123 0.0114,-0.0502 0.0216,-0.1007 0.0323,-0.1511 0.0156,-0.0717 0.0315,-0.1432 0.0457,-0.2152 0.01,-0.0504 0.0181,-0.1009 0.0275,-0.1513 0.0133,-0.0723 0.0269,-0.1452 0.0391,-0.2177 0.008,-0.0496 0.015,-0.1001 0.0224,-0.15 0.011,-0.074 0.0224,-0.1474 0.0323,-0.2211 0.006,-0.0499 0.0116,-0.0998 0.0176,-0.1497 0.009,-0.0742 0.0178,-0.1482 0.0255,-0.2228 0.005,-0.0504 0.009,-0.1009 0.0128,-0.1513 0.007,-0.074 0.013,-0.1483 0.0181,-0.2225 0.003,-0.0505 0.005,-0.1018 0.008,-0.1523 0.004,-0.0742 0.008,-0.1485 0.0108,-0.2228 0.002,-0.0507 0.002,-0.1017 0.003,-0.1522 0.002,-0.0745 0.004,-0.1488 0.004,-0.2234 0,-0.0513 -10e-4,-0.1029 -0.002,-0.1542 -9e-4,-0.074 -10e-4,-0.1477 -0.004,-0.2219 -10e-4,-0.0522 -0.004,-0.1043 -0.006,-0.1562 -0.003,-0.0731 -0.006,-0.1466 -0.0108,-0.22 -0.003,-0.0524 -0.008,-0.1049 -0.0116,-0.1576 -0.005,-0.0728 -0.0108,-0.1457 -0.0176,-0.2185 -0.005,-0.053 -0.0113,-0.1058 -0.017,-0.1588 -0.008,-0.0723 -0.0156,-0.1445 -0.025,-0.2168 -0.007,-0.0542 -0.0153,-0.1083 -0.0226,-0.1619 -0.0102,-0.0708 -0.0199,-0.1417 -0.0315,-0.2123 -0.009,-0.0556 -0.019,-0.1111 -0.0289,-0.1664 -0.0122,-0.0694 -0.0241,-0.1383 -0.0377,-0.2075 -0.0108,-0.0561 -0.0233,-0.1122 -0.0352,-0.1684 -0.0141,-0.068 -0.0283,-0.136 -0.0436,-0.2043 -0.0133,-0.057 -0.0275,-0.1134 -0.0414,-0.1704 -0.0162,-0.0666 -0.0323,-0.1332 -0.0502,-0.1998 -0.0153,-0.0584 -0.032,-0.1163 -0.0484,-0.1744 -0.0142,-0.0502 -0.0281,-0.1 -0.0428,-0.1499 -2.9223,0.913 -5.0281,3.6518 -5.0281,6.8388 -9e-4,1.8389 0.7191,3.5972 1.953,4.9122 0.1534,-0.1826 0.3107,-0.3614 0.4714,-0.536 0.0862,-0.095 0.171,-0.1908 0.2543,-0.2872 z m 25.3349,41.8975 -21.7692,0 c -1.0616,7.52 -7.5362,13.3245 -15.3442,13.3245 -8.5468,0 -15.4999,-6.9534 -15.4999,-15.4998 0,-8.5465 6.9531,-15.4999 15.4999,-15.4999 7.8083,0 14.2829,5.8045 15.3442,13.3246 l 21.7692,0 0,-8.337 c -1.1608,-0.4518 -2.6385,-1.0672 -4.354,-1.7819 -6.0641,-2.5262 -15.2252,-6.3408 -22.5383,-8.0376 -0.0258,-0.005 -0.0515,-0.007 -0.0776,-0.0125 -1.838,-0.4237 -3.4637,-0.6911 -4.8544,-0.7999 -0.0598,-0.005 -0.1179,-0.007 -0.1771,-0.0113 -0.1661,-0.0117 -0.3311,-0.0224 -0.4901,-0.0292 -0.2271,-0.009 -0.4502,-0.0151 -0.6673,-0.0151 -0.0269,0 -0.0536,-2e-4 -0.0655,-8e-4 l -1.1256,-0.009 c -0.1834,0 -0.3708,0.002 -0.5604,0.006 -0.1885,0.004 -0.3804,0.0102 -0.5786,0.0184 l -0.057,0.002 c -0.3489,0.0153 -0.7174,0.0396 -1.1089,0.0731 l -0.0428,0.003 -0.0266,0.002 c -0.3396,0.0303 -0.6973,0.0694 -1.0678,0.1176 l -0.0879,0.0114 c -0.3399,0.0453 -0.6908,0.0995 -1.0488,0.1621 l -0.0882,0.0153 c -0.3376,0.0598 -0.6843,0.1293 -1.0318,0.2055 l -0.078,0.0173 c -0.3444,0.0771 -0.6896,0.1619 -1.0269,0.252 -0.003,10e-4 -0.0188,0.005 -0.0222,0.006 l -0.036,0.01 c -0.0952,0.0255 -0.1902,0.0533 -0.2854,0.0799 -0.2497,0.0703 -0.4989,0.1435 -0.7447,0.2209 -0.004,10e-4 -0.0215,0.007 -0.0255,0.008 -0.2585,0.0816 -0.5139,0.1689 -0.7682,0.2579 -0.0961,0.034 -0.1919,0.0689 -0.2877,0.1041 -0.1479,0.0538 -0.2948,0.1097 -0.4413,0.1661 -0.1253,0.0487 -0.2512,0.0966 -0.3759,0.1474 -0.0547,0.0221 -0.1083,0.0456 -0.1627,0.068 -2.6337,1.0913 -5.0553,2.6189 -7.0909,4.4864 -0.0187,0.017 -0.0385,0.032 -0.0575,0.0485 -4.1828,3.8701 -6.6762,9.1017 -6.6833,14.6925 l 0,0.0533 c 0.0114,8.9478 6.3879,16.9744 15.874,19.9755 0.007,0.002 0.0139,0.005 0.021,0.006 0.3345,0.1057 0.6803,0.2066 1.0426,0.3042 l 0.0437,0.0121 c 0.3384,0.0905 0.6837,0.1752 1.0343,0.2537 l 0.0712,0.0159 c 0.3452,0.076 0.6925,0.1452 1.0321,0.2061 l 0.0915,0.0153 c 0.3541,0.0621 0.7047,0.1162 1.0446,0.1616 l 0.0901,0.0116 c 0.3671,0.0476 0.726,0.087 1.0831,0.1185 l 0.0641,0.005 c 0.3782,0.0326 0.7472,0.057 1.1016,0.0726 0.01,2e-4 0.0391,10e-4 0.049,0.002 0.3929,0.0167 0.777,0.0252 1.1528,0.0252 l 1.0993,-0.009 c 0.0201,-9e-4 0.0607,-10e-4 0.0805,-10e-4 7.4265,0 20.8092,-5.5746 28.8051,-8.9053 1.7158,-0.7147 3.1933,-1.3301 4.354,-1.7827 l 0,-8.3373 3e-4,0 z m -25.9642,-2.1745 c 0,-6.1477 -5.0017,-11.1492 -11.1492,-11.1492 -6.1475,0 -11.149,5.0015 -11.149,11.1492 0,6.1475 5.0015,11.149 11.149,11.149 6.1475,0 11.1492,-5.0015 11.1492,-11.149 z m 49.7755,-19.7586 c -4.2967,0.3623 -8.4211,1.7972 -12.0396,4.2027 l -7.3692,4.9002 0,8.4801 6.9866,0 c 1.2016,0 2.1756,0.9743 2.1756,2.1756 0,1.2011 -0.974,2.1753 -2.1756,2.1753 l -6.9866,0 0,8.4802 7.3692,4.8999 c 3.6182,2.4058 7.7429,3.8404 12.0396,4.2032 l 0,-39.5172 z"
               id="path3087"
               style="fill:#df3d7b;fill-opacity:1;fill-rule:evenodd;stroke:none"
               inkscape:connector-curvature="0" />
          </g>
        </g>
        <g
           id="g3089">
          <g
             id="g3091">
            <path
               d="m 733.409,340.6272 c -0.0283,0.1392 -0.0694,0.2761 -0.1239,0.4065 -0.0544,0.1306 -0.1219,0.2568 -0.2001,0.3764 -0.0782,0.1174 -0.1695,0.2305 -0.2699,0.3308 -0.102,0.1001 -0.2131,0.1916 -0.3305,0.2699 -0.1199,0.0782 -0.2457,0.1457 -0.3764,0.2001 -0.1307,0.0541 -0.2676,0.0955 -0.4068,0.1239 -0.2806,0.0564 -0.57,0.0564 -0.8507,0 -0.1391,-0.0284 -0.2761,-0.0698 -0.4067,-0.1239 -0.1304,-0.0544 -0.2569,-0.1219 -0.3765,-0.2001 -0.1176,-0.0783 -0.2304,-0.1698 -0.3308,-0.2699 -0.1,-0.1003 -0.1913,-0.2132 -0.2698,-0.3308 -0.0783,-0.1196 -0.1457,-0.2458 -0.1999,-0.3764 -0.0544,-0.1307 -0.0958,-0.2673 -0.1241,-0.4065 -0.0284,-0.1395 -0.0434,-0.2829 -0.0434,-0.4241 0,-0.1437 0.015,-0.2851 0.0434,-0.4263 0.0283,-0.1395 0.0697,-0.2744 0.1241,-0.4068 0.0542,-0.1307 0.1216,-0.2568 0.1999,-0.3742 0.0808,-0.1199 0.1698,-0.231 0.2698,-0.331 0.1024,-0.1021 0.2132,-0.1914 0.3308,-0.2719 0.1196,-0.0782 0.2458,-0.1457 0.3765,-0.2001 0.1304,-0.0542 0.2676,-0.0958 0.4067,-0.1239 0.1415,-0.0283 0.2829,-0.0411 0.4244,-0.0411 0.1434,0 0.2849,0.0131 0.4263,0.0411 0.1392,0.0284 0.2761,0.0697 0.4068,0.1239 0.1304,0.0544 0.2565,0.1219 0.3764,0.2001 0.1174,0.0805 0.2282,0.1695 0.3305,0.2719 0.1001,0.1 0.1917,0.2111 0.2699,0.331 0.0782,0.1174 0.1457,0.2435 0.2001,0.3742 0.0545,0.1324 0.0958,0.2673 0.1239,0.4068 0.0284,0.1412 0.0437,0.2826 0.0437,0.4263 0,0.1412 -0.0153,0.2849 -0.0437,0.4241"
               id="path3093"
               style="fill:#df3d7b;fill-opacity:1;fill-rule:evenodd;stroke:none"
               inkscape:connector-curvature="0" />
          </g>
        </g>
        <g
           id="g3095">
          <g
             id="g3097">
            <path
               d="m 742.5672,392.6092 c -0.0281,0.1392 -0.0695,0.2761 -0.1239,0.4088 -0.0541,0.1306 -0.1219,0.2568 -0.2001,0.3741 -0.0783,0.1196 -0.1695,0.2305 -0.2696,0.3308 -0.1001,0.1001 -0.2112,0.1917 -0.3308,0.2719 -0.1176,0.0782 -0.2458,0.146 -0.3764,0.2004 -0.1304,0.0544 -0.2676,0.0955 -0.4068,0.1239 -0.2806,0.0564 -0.5701,0.0564 -0.8507,0 -0.1369,-0.0284 -0.2741,-0.0695 -0.4068,-0.1239 -0.1304,-0.0542 -0.2568,-0.1219 -0.3741,-0.2004 -0.1197,-0.0802 -0.2305,-0.1715 -0.3308,-0.2719 -0.0998,-0.1 -0.1914,-0.2112 -0.2719,-0.3308 -0.0782,-0.1173 -0.1457,-0.2435 -0.2001,-0.3741 -0.0541,-0.1327 -0.0958,-0.2696 -0.1239,-0.4088 -0.0283,-0.1398 -0.0411,-0.2832 -0.0411,-0.4243 0,-0.1415 0.0131,-0.2852 0.0411,-0.4241 0.0284,-0.1392 0.0698,-0.2761 0.1239,-0.4071 0.0544,-0.1326 0.1219,-0.2585 0.2001,-0.3758 0.0805,-0.1199 0.1721,-0.2311 0.2719,-0.3311 0.1,-0.1001 0.2111,-0.1914 0.3308,-0.2696 0.1176,-0.0782 0.2437,-0.146 0.3741,-0.2001 0.1327,-0.0545 0.2699,-0.0956 0.4068,-0.1239 0.1415,-0.0283 0.2852,-0.0434 0.4263,-0.0434 0.1415,0 0.2852,0.0151 0.4244,0.0434 0.1392,0.0283 0.2761,0.0694 0.4068,0.1239 0.1304,0.0541 0.2588,0.1219 0.3764,0.2001 0.1196,0.0782 0.2305,0.1695 0.3308,0.2696 0.0998,0.1 0.1913,0.2112 0.2696,0.3311 0.0782,0.1173 0.146,0.2435 0.2001,0.3758 0.0544,0.1307 0.0958,0.2676 0.1239,0.4071 0.0283,0.1392 0.0436,0.2826 0.0436,0.4241 0,0.1411 -0.0153,0.2848 -0.0436,0.4243"
               id="path3099"
               style="fill:#df3d7b;fill-opacity:1;fill-rule:evenodd;stroke:none"
               inkscape:connector-curvature="0" />
          </g>
        </g>
        <g
           id="g3101" />
        <g
           id="g3103" />
        <g
           id="g3105" />
        <g
           id="g3107" />
        <g
           id="g3109" />
        <g
           id="g3111" />
        <g
           id="g3113" />
        <g
           id="g3115" />
        <g
           id="g3117" />
        <g
           id="g3119" />
        <g
           id="g3121" />
        <g
           id="g3123" />
        <g
           id="g3125" />
        <g
           id="g3127" />
        <g
           id="g3129" />
      </g>
    </g>
  </g>
</svg>
