<?xml version="1.0" encoding="UTF-8" standalone="no"?>
<!-- Created with Inkscape (http://www.inkscape.org/) -->

<svg
   xmlns:dc="http://purl.org/dc/elements/1.1/"
   xmlns:cc="http://creativecommons.org/ns#"
   xmlns:rdf="http://www.w3.org/1999/02/22-rdf-syntax-ns#"
   xmlns:svg="http://www.w3.org/2000/svg"
   xmlns="http://www.w3.org/2000/svg"
   xmlns:sodipodi="http://sodipodi.sourceforge.net/DTD/sodipodi-0.dtd"
   xmlns:inkscape="http://www.inkscape.org/namespaces/inkscape"
   version="1.1"
   width="120"
   height="82"
   id="svg2"
   inkscape:version="0.48.5 r10040"
   sodipodi:docname="5.svg">
  <sodipodi:namedview
     pagecolor="#ffffff"
     bordercolor="#666666"
     borderopacity="1"
     objecttolerance="10"
     gridtolerance="10"
     guidetolerance="10"
     inkscape:pageopacity="0"
     inkscape:pageshadow="2"
     inkscape:window-width="1920"
     inkscape:window-height="1027"
     id="namedview44"
     showgrid="false"
     inkscape:zoom="1.0654185"
     inkscape:cx="130.20026"
     inkscape:cy="93.698667"
     inkscape:window-x="-8"
     inkscape:window-y="-8"
     inkscape:window-maximized="1"
     inkscape:current-layer="svg2" />
  <defs
     id="defs4" />
  <metadata
     id="metadata7">
    <rdf:RDF>
      <cc:Work
         rdf:about="">
        <dc:format>image/svg+xml</dc:format>
        <dc:type
           rdf:resource="http://purl.org/dc/dcmitype/StillImage" />
        <dc:title />
      </cc:Work>
    </rdf:RDF>
  </metadata>
  <g
     id="layer1"
     transform="matrix(0.64894975,0,0,0.62076182,-78.534715,-87.989886)">
    <g
       transform="matrix(1.25,0,0,-1.25,138.76925,798.32947)"
       id="g3001" />
    <g
       transform="matrix(1.25,0,0,-1.25,138.76925,798.32947)"
       id="g3003" />
    <g
       transform="matrix(1.25,0,0,-1.25,138.76925,798.32947)"
       id="g3005" />
    <g
       transform="matrix(1.25,0,0,-1.25,138.76925,798.32947)"
       id="g3007" />
    <g
       transform="matrix(1.25,0,0,-1.25,138.76925,798.32947)"
       id="g3009" />
    <g
       transform="matrix(1.25,0,0,-1.25,138.76925,798.32947)"
       id="g3011" />
    <g
       transform="matrix(1.25,0,0,-1.25,138.76925,798.32947)"
       id="g3013" />
    <g
       transform="matrix(1.25,0,0,-1.25,138.76925,798.32947)"
       id="g3015" />
    <g
       transform="matrix(1.25,0,0,-1.25,138.76925,798.32947)"
       id="g3017" />
    <g
       transform="matrix(1.25,0,0,-1.25,138.76925,798.32947)"
       id="g3019" />
    <g
       transform="matrix(1.25,0,0,-1.25,138.76925,798.32947)"
       id="g3021" />
    <g
       transform="matrix(1.25,0,0,-1.25,138.76925,798.32947)"
       id="g3023" />
    <g
       transform="matrix(1.25,0,0,-1.25,138.76925,798.32947)"
       id="g3025" />
    <g
       transform="matrix(1.25,0,0,-1.25,138.76925,798.32947)"
       id="g3027" />
    <g
       transform="matrix(1.25,0,0,-1.25,138.76925,798.32947)"
       id="g3029" />
    <g
       transform="matrix(1.25,0,0,-1.25,138.76925,798.32947)"
       id="g3121" />
    <g
       transform="matrix(1.25,0,0,-1.25,138.76925,798.32947)"
       id="g3123" />
    <g
       transform="matrix(1.25,0,0,-1.25,138.76925,798.32947)"
       id="g3125" />
    <g
       transform="matrix(1.25,0,0,-1.25,138.76925,798.32947)"
       id="g3127" />
    <g
       transform="matrix(1.25,0,0,-1.25,138.76925,798.32947)"
       id="g3129" />
    <g
       transform="matrix(1.25,0,0,-1.25,138.76925,798.32947)"
       id="g3131" />
    <g
       transform="matrix(1.25,0,0,-1.25,138.76925,798.32947)"
       id="g3133" />
    <g
       transform="matrix(1.25,0,0,-1.25,138.76925,798.32947)"
       id="g3135" />
    <g
       transform="matrix(1.25,0,0,-1.25,138.76925,798.32947)"
       id="g3137" />
    <g
       transform="matrix(1.25,0,0,-1.25,138.76925,798.32947)"
       id="g3139" />
    <g
       transform="matrix(1.25,0,0,-1.25,138.76925,798.32947)"
       id="g3141" />
    <g
       transform="matrix(1.25,0,0,-1.25,138.76925,798.32947)"
       id="g3143" />
    <g
       transform="matrix(1.25,0,0,-1.25,138.76925,798.32947)"
       id="g3145" />
    <g
       transform="matrix(1.25,0,0,-1.25,138.76925,798.32947)"
       id="g3147" />
    <g
       transform="matrix(1.25,0,0,-1.25,138.76925,798.32947)"
       id="g3149" />
    <g
       transform="matrix(1.25,0,0,-1.25,-89.760144,451.92702)"
       id="g3151">
      <g
         id="g3153">
        <path
           d="m 284.8853,214.7873 c 0.0136,0.0794 0.0215,0.1571 0.0252,0.2384 0.004,0.0947 0.002,0.186 -0.006,0.2807 -0.008,0.0813 -0.0196,0.159 -0.0389,0.2384 -0.0212,0.0929 -0.0504,0.1819 -0.0853,0.2709 -0.0173,0.0465 -0.0213,0.095 -0.0425,0.1395 -0.0153,0.0329 -0.0425,0.0581 -0.0601,0.091 -0.0173,0.0329 -0.025,0.068 -0.0445,0.1006 l -19.3683,30.9895 c -0.089,0.1415 -0.1936,0.2693 -0.3118,0.3816 -0.002,0.002 -0.004,0.002 -0.006,0.004 -0.1667,0.1568 -0.3642,0.2693 -0.5751,0.3583 -0.0273,0.0116 -0.0448,0.0349 -0.0737,0.0465 -0.0213,0.008 -0.0445,0.004 -0.0658,0.01 -0.1959,0.0657 -0.3971,0.1102 -0.6083,0.1102 l -73.5993,0 c -0.2092,0 -0.4088,-0.0445 -0.6007,-0.1083 -0.0212,-0.006 -0.0425,-0.002 -0.0618,-0.01 -0.0292,-0.01 -0.0465,-0.0332 -0.0737,-0.0448 -0.2012,-0.083 -0.3912,-0.1916 -0.5559,-0.3387 -0.01,-0.01 -0.0232,-0.0156 -0.0328,-0.0233 -0.1202,-0.1122 -0.2265,-0.2421 -0.3158,-0.3835 l -19.3683,-30.9892 c -0.0193,-0.0309 -0.0269,-0.0677 -0.0445,-0.1006 -0.0173,-0.0329 -0.0445,-0.0581 -0.0601,-0.091 -0.0213,-0.0445 -0.0249,-0.093 -0.0445,-0.1395 -0.0349,-0.089 -0.0638,-0.1783 -0.085,-0.2713 -0.0176,-0.0793 -0.0312,-0.1587 -0.0389,-0.2401 -0.0136,-0.0949 -0.0156,-0.1879 -0.0116,-0.2809 0.004,-0.0813 0.0116,-0.1587 0.0252,-0.2384 0.0153,-0.0929 0.0406,-0.1839 0.0715,-0.2749 0.0252,-0.0754 0.0524,-0.1491 0.0873,-0.2228 0.0173,-0.0349 0.0232,-0.0734 0.0425,-0.1083 0.0309,-0.0561 0.0774,-0.0987 0.1122,-0.1511 0.0273,-0.0408 0.0428,-0.0853 0.0757,-0.1242 l 56.1467,-69.6985 c 0.004,-0.006 0.008,-0.01 0.0116,-0.0136 l 0.01,-0.0136 c 0.006,-0.008 0.0156,-0.01 0.0212,-0.0173 0.1588,-0.1916 0.3563,-0.337 0.5712,-0.4533 0.0581,-0.0309 0.1125,-0.0581 0.1726,-0.0833 0.2342,-0.0987 0.4822,-0.1684 0.7416,-0.1684 0.2208,0 0.4436,0.0386 0.6644,0.1179 0.0329,0.0119 0.0542,0.0389 0.087,0.0525 0.099,0.0405 0.1764,0.1066 0.2654,0.1627 0.1474,0.093 0.2848,0.1899 0.3991,0.3158 0.0269,0.0289 0.0677,0.0425 0.093,0.0734 l 56.1679,69.7257 c 0.0312,0.0389 0.0465,0.0854 0.0757,0.1239 0.0368,0.0525 0.0813,0.095 0.1122,0.1514 0.0193,0.0349 0.0253,0.0734 0.0426,0.1083 0.0348,0.0737 0.062,0.1454 0.0873,0.2228 0.0272,0.091 0.0544,0.1803 0.07,0.2749 m -3e-4,0 0,0 z"
           id="path3155"
           style="fill:#ececec;fill-opacity:1;fill-rule:evenodd;stroke:#ececec;stroke-width:0.21600001;stroke-linecap:butt;stroke-linejoin:miter;stroke-miterlimit:22.92558479;stroke-opacity:1;stroke-dasharray:none"
           inkscape:connector-curvature="0" />
      </g>
    </g>
    <g
       transform="matrix(1.25,0,0,-1.25,-89.760144,451.92702)"
       id="g3163">
      <path
         d="m 304.1175,146.2626 c -3.9957,0 -7.4282,2.6748 -8.3477,6.505 -0.021,0.0893 -0.0505,0.1751 -0.0839,0.259 -0.1165,0.5593 -0.1789,1.1294 -0.1789,1.6997 0,0.9247 0.1525,1.8383 0.4533,2.7145 0.3412,0.9952 -0.1993,2.0752 -1.2079,2.4122 -1.0086,0.3371 -2.1036,-0.1964 -2.4452,-1.1916 -0.4359,-1.2703 -0.657,-2.5943 -0.657,-3.9351 0,-0.5306 0.0385,-1.061 0.1083,-1.5871 -3.4714,-2.4044 -7.4296,-3.6726 -11.5203,-3.6726 -4.1026,0 -8.0714,1.2748 -11.5487,3.6919 0.0667,0.5136 0.1049,1.0363 0.1049,1.5675 0,5.8153 -4.1235,10.6951 -9.6361,11.952 -0.79,2.6374 -1.1908,5.3955 -1.1908,8.2154 0,1.6832 0.1463,3.3695 0.4343,5.0122 0.1012,0.5771 -0.0726,1.1682 -0.4712,1.6021 -0.3985,0.434 -0.9788,0.6625 -1.5698,0.6194 -0.1516,-0.011 -0.3058,-0.0164 -0.4572,-0.0164 -3.4107,0 -6.1855,2.7377 -6.1855,6.103 0,3.365 2.7748,6.1027 6.1855,6.1027 1.6126,0 3.1323,-0.6075 4.2914,-1.7104 1.6548,-2.2649 3.6938,-4.2393 6.0222,-5.8298 -0.6395,-2.2192 -0.9638,-4.5578 -0.9638,-6.9726 0,-5.139 1.4887,-9.9927 4.1916,-13.6673 2.8386,-3.8582 6.6719,-5.9834 10.7932,-5.9834 4.121,0 7.9537,2.1249 10.7923,5.9834 2.7031,3.6746 4.1916,8.5283 4.1916,13.6673 0,2.4148 -0.324,4.7534 -0.9635,6.9726 2.3284,1.5903 4.3674,3.5646 6.0219,5.8298 1.1588,1.1026 2.6785,1.7104 4.2914,1.7104 3.4109,0 6.1855,-2.7377 6.1855,-6.1027 0,-3.3653 -2.7748,-6.103 -6.1855,-6.103 -0.1519,0 -0.3059,0.005 -0.4569,0.0164 -0.5913,0.0434 -1.171,-0.1857 -1.5699,-0.6194 -0.3988,-0.4339 -0.5728,-1.025 -0.4714,-1.6018 0.288,-1.645 0.4343,-3.3313 0.4343,-5.0125 0,-3.1969 -0.5145,-6.3159 -1.5293,-9.2702 -0.2132,-0.6202 -0.0879,-1.305 0.3317,-1.8124 0.4195,-0.5077 1.0734,-0.7671 1.7325,-0.6863 0.3552,0.0437 0.7163,0.0658 1.0738,0.0658 4.7304,0 8.5784,-3.797 8.5784,-8.4643 9e-4,-4.6667 -3.8474,-8.4634 -8.5776,-8.4634 z m -39.4421,6.3842 c -0.006,-0.0238 -0.0125,-0.0468 -0.0187,-0.0703 -0.8566,-3.217 -3.5887,-5.6917 -6.969,-6.2124 -0.0184,-0.003 -0.0371,-0.005 -0.0558,-0.008 -0.1114,-0.0162 -0.2234,-0.0298 -0.3359,-0.042 -0.0346,-0.004 -0.0689,-0.008 -0.1035,-0.011 -0.102,-0.01 -0.2049,-0.0168 -0.3081,-0.023 -0.0372,-0.002 -0.0746,-0.005 -0.112,-0.007 -0.1363,-0.006 -0.2733,-0.01 -0.4113,-0.01 -6e-4,0 -0.001,0 -0.002,0 -4.1391,0 -7.6031,2.9069 -8.4044,6.7601 -0.1143,0.5505 -0.1744,1.1202 -0.1744,1.7036 0,0.5834 0.0601,1.1531 0.1744,1.7039 0.8013,3.8531 4.2653,6.7601 8.4044,6.7604 0.1647,0 0.3311,-0.006 0.4969,-0.0154 0.0502,-0.003 0.1001,-0.008 0.15,-0.0113 0.1136,-0.009 0.2267,-0.0184 0.3396,-0.0312 4.267,-0.4847 7.592,-4.0688 7.592,-8.4064 0,-0.7174 -0.0916,-1.4139 -0.2625,-2.0795 z m 26.6905,27.1573 c 0,-4.3424 -1.2272,-8.4024 -3.4563,-11.4324 -2.0934,-2.8457 -4.8178,-4.4132 -7.6709,-4.4132 -2.8539,0 -5.5783,1.5672 -7.6719,4.4132 -2.2289,3.0297 -3.4563,7.0897 -3.4563,11.4321 0,1.7221 0.1959,3.3925 0.5746,4.993 3.202,-1.4998 6.7799,-2.34 10.5536,-2.34 3.7732,0 7.3508,0.8402 10.5529,2.34 0.3787,-1.6005 0.5743,-3.2706 0.5743,-4.9927 z m -37.7144,42.9971 c 0,3.9526 3.2587,7.1679 7.2646,7.1679 2.8542,0 5.4558,-1.6594 6.6282,-4.2276 0.2211,-0.4838 0.6361,-0.8549 1.1461,-1.023 0.5102,-0.1686 1.0684,-0.119 1.5398,0.1361 3.0484,1.6506 6.5092,2.5228 10.0083,2.5228 3.4988,0 6.9593,-0.8722 10.0077,-2.5228 0.4717,-0.2551 1.0295,-0.3047 1.5395,-0.1361 0.5099,0.1684 0.9255,0.5392 1.1463,1.0228 1.1727,2.5684 3.7743,4.2278 6.6285,4.2278 4.006,0 7.2652,-3.2153 7.2652,-7.1679 0,-3.2905 -2.2549,-6.1487 -5.4839,-6.9506 -0.5215,-0.1298 -0.9643,-0.4686 -1.222,-0.934 -0.2577,-0.4657 -0.3061,-1.0165 -0.1341,-1.5194 0.7223,-2.1129 1.0888,-4.3259 1.0888,-6.5775 0,-11.3354 -9.3472,-20.558 -20.836,-20.558 -11.4894,0 -20.837,9.2226 -20.837,20.558 0,2.2198 0.3575,4.4008 1.0596,6.4851 0.0122,0.0298 0.0244,0.0595 0.0349,0.0904 0.4462,1.304 1.0281,2.5679 1.7289,3.7574 0.5351,0.9085 0.2225,2.0729 -0.6979,2.601 -0.921,0.5278 -2.1011,0.2197 -2.6363,-0.6888 -0.4977,-0.8447 -0.9436,-1.7217 -1.3356,-2.6212 -2.3602,1.2113 -3.9036,3.636 -3.9036,6.3576 z m 51.7331,-55.8689 c 0.6514,2.5789 0.9805,5.2466 0.9805,7.9614 0,1.1809 -0.0638,2.3649 -0.1905,3.5382 4.7784,0.7591 8.4399,4.8566 8.4399,9.7821 0,5.4632 -4.5048,9.9079 -10.042,9.9079 -0.4391,0 -0.8737,-0.0306 -1.3023,-0.085 1.0718,2.7263 1.6609,5.688 1.6609,8.7828 0,2.0344 -0.2532,4.0431 -0.7535,5.9944 3.9107,1.7536 6.5047,5.622 6.5047,9.9871 3e-4,6.0508 -4.989,10.9732 -11.1218,10.9732 -3.691,0 -7.1064,-1.8134 -9.159,-4.7469 -3.1776,1.4142 -6.6549,2.1551 -10.1628,2.1551 -3.5081,0 -6.9859,-0.7409 -10.1636,-2.1551 -2.0525,2.9335 -5.468,4.7469 -9.159,4.7469 -6.1325,0 -11.1215,-4.9224 -11.1215,-10.9732 0,-4.3648 2.5937,-8.2335 6.5041,-9.9871 -0.5006,-1.9505 -0.7534,-3.9594 -0.7534,-5.9944 0,-3.0948 0.5893,-6.0568 1.6608,-8.7828 -0.4289,0.0547 -0.8631,0.085 -1.3022,0.085 -5.5372,0 -10.042,-4.4447 -10.042,-9.9079 0,-4.9255 3.6615,-9.023 8.4401,-9.7821 -0.1264,-1.1727 -0.1905,-2.3565 -0.1905,-3.5382 0,-2.7153 0.3291,-5.3827 0.9805,-7.9614 -3e-4,0 -5e-4,0 -8e-4,0 -0.0108,-9e-4 -0.0213,-0.003 -0.0318,-0.004 -0.1922,-0.0198 -0.3826,-0.0439 -0.572,-0.0723 -0.0652,-0.01 -0.1293,-0.0221 -0.1939,-0.0332 -0.1338,-0.0221 -0.2681,-0.0442 -0.4005,-0.0705 -0.0763,-0.0153 -0.1514,-0.0335 -0.2271,-0.0502 -0.1196,-0.0261 -0.2392,-0.0519 -0.3574,-0.0816 -0.0797,-0.0199 -0.1582,-0.0426 -0.2373,-0.0638 -0.1128,-0.0306 -0.2253,-0.061 -0.3367,-0.0947 -0.0805,-0.0241 -0.1602,-0.0507 -0.2399,-0.0765 -0.108,-0.0349 -0.2157,-0.0701 -0.3228,-0.108 -0.0802,-0.0284 -0.1593,-0.0587 -0.2387,-0.0885 -0.1049,-0.0394 -0.2089,-0.0793 -0.3121,-0.1216 -0.0788,-0.0323 -0.157,-0.0657 -0.2353,-0.0995 -0.1014,-0.0439 -0.2029,-0.0887 -0.303,-0.1355 -0.0771,-0.0357 -0.1536,-0.0725 -0.2302,-0.11 -0.0989,-0.0484 -0.197,-0.098 -0.2945,-0.1491 -0.0751,-0.0391 -0.1497,-0.0788 -0.2239,-0.1193 -0.097,-0.0533 -0.1925,-0.108 -0.2877,-0.1636 -0.0723,-0.0422 -0.1443,-0.0844 -0.2158,-0.1281 -0.0949,-0.0581 -0.1887,-0.1179 -0.2817,-0.1783 -0.0689,-0.0448 -0.1378,-0.089 -0.2058,-0.1352 -0.0938,-0.0635 -0.186,-0.129 -0.2775,-0.1947 -0.0649,-0.0465 -0.1301,-0.0927 -0.1942,-0.1404 -0.093,-0.0697 -0.184,-0.1414 -0.2752,-0.2137 -0.0601,-0.0473 -0.1205,-0.0938 -0.1798,-0.1423 -0.0946,-0.0779 -0.1868,-0.1582 -0.2792,-0.2387 -0.0524,-0.0459 -0.1063,-0.0904 -0.1579,-0.1369 -0.1029,-0.093 -0.2032,-0.189 -0.303,-0.2851 -0.0383,-0.0372 -0.0777,-0.0723 -0.1156,-0.1097 -0.2739,-0.271 -0.5349,-0.5545 -0.7827,-0.8493 -0.0363,-0.0431 -0.07,-0.0879 -0.1054,-0.131 -0.0856,-0.1051 -0.1712,-0.2103 -0.2535,-0.3183 -0.0433,-0.057 -0.0844,-0.1151 -0.1267,-0.1729 -0.0714,-0.097 -0.1425,-0.1939 -0.2111,-0.2928 -0.0443,-0.0641 -0.0865,-0.1299 -0.1299,-0.1948 -0.0629,-0.0952 -0.1258,-0.1899 -0.1865,-0.2868 -0.0434,-0.0692 -0.0845,-0.1398 -0.1261,-0.2095 -0.0567,-0.0953 -0.1134,-0.1905 -0.1676,-0.2872 -0.0411,-0.0734 -0.0802,-0.1474 -0.1199,-0.2213 -0.0513,-0.0961 -0.1017,-0.1925 -0.1505,-0.2897 -0.0382,-0.0766 -0.0748,-0.1537 -0.1117,-0.2311 -0.0459,-0.0978 -0.0912,-0.1953 -0.1349,-0.2945 -0.0351,-0.0788 -0.0689,-0.1584 -0.102,-0.2384 -0.0414,-0.0992 -0.0814,-0.1993 -0.1202,-0.3002 -0.0312,-0.0813 -0.0615,-0.1627 -0.0916,-0.2446 -0.0363,-0.1018 -0.0711,-0.2041 -0.1054,-0.307 -0.0273,-0.0828 -0.0545,-0.1655 -0.08,-0.2492 -0.0317,-0.1043 -0.0615,-0.2094 -0.0907,-0.3146 -0.0232,-0.0839 -0.0465,-0.1678 -0.0683,-0.2523 -0.0272,-0.1074 -0.0519,-0.216 -0.076,-0.3246 -0.019,-0.0839 -0.0385,-0.1681 -0.0558,-0.2528 -0.0224,-0.112 -0.0417,-0.2251 -0.061,-0.3376 -0.0141,-0.0831 -0.0297,-0.1656 -0.0425,-0.2492 -0.0178,-0.1188 -0.032,-0.2389 -0.0462,-0.3588 -0.01,-0.0791 -0.0207,-0.1577 -0.0286,-0.2367 -0.0133,-0.1333 -0.0221,-0.2676 -0.0312,-0.402 -0.004,-0.0675 -0.0113,-0.1346 -0.0144,-0.2024 -0.0103,-0.2027 -0.0156,-0.4065 -0.0156,-0.6114 0,-0.4229 0.0215,-0.8408 0.064,-1.2526 0.6381,-6.179 5.9426,-11.0163 12.3707,-11.0163 3e-4,0 6e-4,0 6e-4,0 l 0,0 c 3e-4,0 5e-4,0 8e-4,0 0.1928,0 0.3844,0.006 0.5749,0.0144 0.047,0.002 0.0935,0.005 0.1403,0.007 0.1746,0.01 0.3487,0.0227 0.5216,0.0394 0.0141,0.001 0.0283,0.002 0.0428,0.004 4.3183,0.4325 8.0385,3.0311 9.8997,6.8153 3.8684,-2.4123 8.2111,-3.6757 12.6989,-3.6757 4.487,0 8.8299,1.2637 12.6987,3.6757 2.0429,-4.1539 6.3252,-6.8802 11.1801,-6.8802 6.857,0 12.435,5.504 12.435,12.2689 -3e-4,6.3431 -4.9042,11.5775 -11.1682,12.2057"
         id="path3165"
         style="fill:#df3d7b;fill-opacity:1;fill-rule:evenodd;stroke:none"
         inkscape:connector-curvature="0" />
      <path
         d="m 272.2791,207.7883 c 1.593,0 2.8921,1.2818 2.8921,2.8537 0,1.5715 -1.2991,2.8533 -2.8921,2.8533 -1.5934,0 -2.8925,-1.2818 -2.8925,-2.8533 0,-1.5719 1.2991,-2.8537 2.8925,-2.8537"
         id="path3167"
         style="fill:#df3d7b;fill-opacity:1;fill-rule:evenodd;stroke:none"
         inkscape:connector-curvature="0" />
      <path
         d="m 288.1981,207.7883 c 1.5934,0 2.8925,1.2818 2.8925,2.8537 0,1.5715 -1.2991,2.8533 -2.8925,2.8533 -1.593,0 -2.8924,-1.2818 -2.8924,-2.8533 0,-1.5719 1.2994,-2.8537 2.8924,-2.8537"
         id="path3169"
         style="fill:#df3d7b;fill-opacity:1;fill-rule:evenodd;stroke:none"
         inkscape:connector-curvature="0" />
      <path
         d="m 280.2387,200.4369 c 1.5931,0 2.8922,1.2816 2.8922,2.8534 0,1.5718 -1.2991,2.8536 -2.8922,2.8536 -1.593,0 -2.8924,-1.2818 -2.8924,-2.8536 0,-1.5718 1.2994,-2.8534 2.8924,-2.8534"
         id="path3171"
         style="fill:#df3d7b;fill-opacity:1;fill-rule:evenodd;stroke:none"
         inkscape:connector-curvature="0" />
    </g>
  </g>
</svg>
