<svg xmlns="http://www.w3.org/2000/svg" width="35" height="31"><path fill-rule="evenodd" fill="#DF3D7B" d="M34.991 9.782a.575.575 0 0 0-.039-.234c-.005-.014-.006-.028-.013-.041-.004-.01-.013-.017-.018-.027-.005-.01-.007-.02-.013-.03L29.074.265a.538.538 0 0 0-.094-.113l-.001-.001a.575.575 0 0 0-.174-.107c-.008-.003-.013-.01-.022-.013-.006-.003-.013-.001-.02-.003a.56.56 0 0 0-.183-.033H6.414a.574.574 0 0 0-.181.032c-.007.002-.013.001-.019.003-.009.003-.014.01-.022.013a.57.57 0 0 0-.167.101l-.01.007a.514.514 0 0 0-.095.113L.086 9.45c-.006.009-.008.019-.013.029-.005.01-.014.018-.018.027-.007.014-.008.028-.014.041A.627.627 0 0 0 0 9.782a.44.44 0 0 0 .03.152.422.422 0 0 0 .026.067c.005.01.007.021.013.032.009.016.023.029.034.045.008.012.012.025.022.036l16.911 20.659.003.004.003.004.006.005c.048.057.108.1.172.134.018.01.034.017.052.025.071.029.146.05.224.05a.59.59 0 0 0 .2-.035c.01-.003.016-.011.026-.015.03-.013.053-.032.08-.049a.55.55 0 0 0 .12-.093c.008-.009.021-.013.028-.022l16.917-20.667c.009-.011.014-.025.023-.036.011-.016.024-.029.033-.045.006-.011.008-.022.013-.032a.552.552 0 0 0 .055-.219zM27.74 1.144l-2.835 7.489-6.183-7.489h9.018zM11.139 9.181l6.357-7.7 6.358 7.7H11.139zM7.247 1.144h9.023l-6.224 7.539-2.799-7.539zm10.147 27.329l-6.737-18.144h13.606l-6.869 18.144zM33.36 9.181h-7.418l2.77-7.318 4.648 7.318zm-24.372 0H1.632l4.642-7.31 2.714 7.31zm6.75 18.177L1.798 10.329h7.617l6.323 17.029zm9.769-17.029h7.686L18.894 27.798l6.613-17.469z"/></svg>