<svg xmlns="http://www.w3.org/2000/svg" width="212" height="70"><path d="M200.366 2.333h3.716c.754 0 1.347.223 1.723.555.378.389.592.89.755 1.555.107.667.216 1.5.216 2.388 0 .888 0 1.889-.055 2.944v5.164c0 .722 0 1.222-.054 1.665v.946c-.054.277-.054.555-.161.944-.054.333-.216.72-.377 1.054a2.54 2.54 0 0 1-.809.889c-.323.278-.753.39-1.292.39h-3.662V2.332zm10.987 4.442c0-1.332-.27-2.443-.753-3.331-.432-.833-1.079-1.5-1.832-2-.754-.499-1.508-.833-2.37-1-.862-.221-1.67-.332-2.425-.277h-8.348l-.054 47.202h4.74V23.324h.485l6.571 24.045H212c0-.056-.109-.389-.323-1.111a93.267 93.267 0 0 1-.809-2.888c-.377-1.222-.754-2.554-1.185-4.054-.484-1.499-.915-3.054-1.4-4.664-.485-1.61-.916-3.11-1.347-4.61-.43-1.499-.86-2.831-1.184-3.998-.378-1.165-.647-2.11-.863-2.72 2.101-.39 3.717-1.056 4.794-2.055 1.078-.999 1.617-2.388 1.67-4.11V6.776zM179.575.167V10.33c.054 1.998.054 4.164.054 6.442v30.597h12.28v-2.444h-7.487V34.153c0-1.389-.053-2.721-.053-3.998v-6.831h7.055v-2.389h-7.055V2.612h7.594V.167h-12.388zm-20.683 0l.053 47.202h4.687V23.267h6.84V47.37h4.686V.167h-4.686v20.714h-6.84V.167h-4.74zm-20.898 2.444h5.709v44.758h4.74V2.61h5.817V.167h-16.266v2.444zM131.96.167v33.54L120.38.168h-2.37V47.37h2.37V13.495l11.633 33.874h2.317V.167h-2.37zM105.569 7.22l3.34 28.987h-6.841l3.07-28.987h.43zM103.252.167s-.053.444-.107 1.277c-.107.89-.216 2.056-.377 3.61-.162 1.5-.377 3.276-.593 5.276-.214 1.998-.43 4.164-.7 6.442-.215 2.276-.484 4.608-.754 6.996-.27 2.333-.484 4.664-.754 6.941-.216 2.278-.485 4.443-.7 6.442-.216 2-.377 3.776-.54 5.275-.16 1.555-.322 2.722-.376 3.61-.107.832-.16 1.277-.16 1.333h2.529c0-.056 0-.278.054-.667.054-.444.162-.944.216-1.61.107-.666.214-1.333.323-2.11.107-.722.215-1.444.27-2.055.107-.666.214-1.222.268-1.61.054-.444.054-.666.054-.666h7.38s0 .222.053.665c.054.389.161.945.216 1.61.054.612.161 1.334.268 2.056.054.777.163 1.444.216 2.11.108.666.161 1.166.216 1.61.054.389.054.611.054.667h4.308c0-.056-.053-.5-.16-1.333-.11-.888-.27-2.055-.433-3.61-.16-1.5-.376-3.275-.645-5.275-.216-1.999-.485-4.164-.755-6.442-.268-2.277-.592-4.608-.861-6.941-.27-2.388-.593-4.72-.862-6.996-.269-2.278-.538-4.444-.754-6.442-.27-2-.43-3.776-.647-5.276-.16-1.554-.323-2.72-.43-3.61-.108-.833-.161-1.277-.161-1.277h-5.657zm-19.12 2.166h4.31c.753 0 1.291.223 1.668.555.377.389.646.89.755 1.555.161.667.215 1.443.215 2.388v5.774c0 .834 0 1.611-.054 2.334v2.22s0 .112-.054.39c0 .222-.053.555-.107.888-.109.333-.216.722-.432 1.11-.16.334-.43.611-.754.889-.323.222-.753.333-1.293.39h-4.254V2.332zm11.526 4.442c0-1.332-.215-2.443-.592-3.331-.377-.833-.97-1.5-1.616-2a6.042 6.042 0 0 0-2.37-1 8.895 8.895 0 0 0-2.747-.277h-8.887l-.054 47.202h4.686V23.268h4.363c2.424 0 4.255-.5 5.44-1.499 1.185-1.055 1.777-2.555 1.777-4.61V6.776zM62.21 47.37h4.739l-7.81-32.097L66.681 0h-2.37l-9.049 18.326V0h-4.686v47.369h4.686V23.102l.754-1.555 6.195 25.822zM43.735.167v33.54L32.155.168h-2.37V47.37h2.37V13.495l11.689 33.874h2.315V.167h-2.424zM20.144 47.48h4.74V.167h-4.74V47.48zM4.794 2.333h4.254c.754 0 1.294.223 1.67.555.377.389.647.89.808 1.555.108.667.162 1.443.162 2.388v8.108c-.054.666-.054 1.222-.054 1.61v1a12.99 12.99 0 0 0-.162.888c-.053.333-.215.722-.43 1.11-.162.334-.431.611-.754.889-.323.222-.755.333-1.293.39H4.794V2.332zM16.32 6.775c-.054-1.332-.216-2.443-.646-3.331-.378-.833-.915-1.5-1.616-2a6.047 6.047 0 0 0-2.37-1A8.898 8.898 0 0 0 8.941.168H.054L0 47.37h4.685V23.268h4.363c2.424 0 4.255-.5 5.44-1.499 1.186-1.055 1.832-2.555 1.832-4.61V6.776zM.034 53.96h1.908v9.98h5.277v-9.98h1.907v9.98h1.23v4.905h-1.57v-3.288H.034V53.96zm19.869 4.684h6.283c-.084-.974-.324-1.707-.72-2.194-.608-.758-1.395-1.136-2.363-1.136-.876 0-1.612.303-2.208.907-.598.604-.928 1.412-.992 2.423zm6.263 3.178l1.97.252c-.31 1.186-.886 2.107-1.727 2.762-.84.655-1.914.983-3.221.983-1.646 0-2.952-.522-3.915-1.566-.965-1.046-1.447-2.51-1.447-4.397 0-1.95.487-3.465 1.463-4.542.974-1.076 2.238-1.616 3.793-1.616 1.505 0 2.734.528 3.688 1.584.954 1.055 1.43 2.54 1.43 4.454 0 .117-.004.292-.01.524h-8.393c.07 1.275.42 2.25 1.05 2.926.628.68 1.413 1.017 2.352 1.017.7 0 1.296-.19 1.79-.568.495-.378.887-.983 1.177-1.813m10.406-7.862h1.907v4.827h5.287V53.96h1.908v11.597h-1.908v-5.143H38.48v5.143h-1.907V53.96zm16.976 0h9.144v1.627h-3.624v9.97h-1.896v-9.97h-3.624V53.96zm18.724 5.863c0 1.494.292 2.596.88 3.31.585.713 1.296 1.07 2.13 1.07.847 0 1.574-.37 2.177-1.109.604-.739.905-1.883.905-3.434 0-1.478-.294-2.584-.884-3.32-.59-.735-1.295-1.102-2.114-1.102-.812 0-1.531.392-2.157 1.174-.625.783-.937 1.919-.937 3.411zM70.545 70V53.96h1.737v1.507c.41-.59.873-1.032 1.389-1.326.515-.296 1.14-.443 1.876-.443.96 0 1.808.256 2.542.764.734.51 1.29 1.229 1.664 2.156.374.93.563 1.947.563 3.054 0 1.186-.209 2.254-.62 3.205-.415.948-1.015 1.678-1.802 2.183-.789.506-1.616.76-2.486.76-.636 0-1.206-.138-1.71-.417a3.926 3.926 0 0 1-1.246-1.047V70h-1.907zm24.117-16.04h1.908v5.013c.608 0 1.033-.121 1.277-.362.243-.24.602-.939 1.075-2.095.375-.918.679-1.523.911-1.813.233-.29.502-.488.806-.59.304-.102.791-.153 1.463-.153h.381v1.627l-.53-.01c-.502 0-.823.076-.964.228-.148.16-.375.638-.678 1.431-.29.758-.555 1.281-.795 1.572-.24.291-.611.558-1.113.797.82.226 1.625 1.013 2.416 2.359l2.088 3.593h-2.098l-2.034-3.593c-.419-.72-.782-1.196-1.093-1.424-.31-.23-.681-.344-1.112-.344v5.361h-1.908V53.96zm17.263 5.863c0 1.494.293 2.596.88 3.31.585.713 1.295 1.07 2.13 1.07.847 0 1.573-.37 2.176-1.109.604-.739.907-1.883.907-3.434 0-1.478-.296-2.584-.885-3.32-.59-.735-1.294-1.102-2.114-1.102-.812 0-1.532.392-2.157 1.174-.625.783-.937 1.919-.937 3.411zM110.196 70V53.96h1.739v1.507c.41-.59.873-1.032 1.389-1.326.515-.296 1.14-.443 1.874-.443.962 0 1.81.256 2.544.764.734.51 1.29 1.229 1.664 2.156.375.93.562 1.947.562 3.054 0 1.186-.208 2.254-.62 3.205-.413.948-1.014 1.678-1.802 2.183-.789.506-1.616.76-2.485.76-.636 0-1.207-.138-1.71-.417a3.944 3.944 0 0 1-1.247-1.047V70h-1.908zm25.285-10.264c-.692.292-1.731.54-3.117.743-.782.116-1.337.248-1.663.393-.324.146-.574.36-.752.639-.176.28-.264.592-.264.934 0 .523.192.96.578 1.31.385.349.948.523 1.69.523.734 0 1.387-.163 1.96-.495a3.032 3.032 0 0 0 1.26-1.36c.206-.444.308-1.1.308-1.965v-.722zm.16 4.39c-.706.62-1.387 1.056-2.04 1.312a5.748 5.748 0 0 1-2.103.381c-1.238 0-2.188-.312-2.852-.934-.663-.622-.995-1.418-.995-2.385 0-.569.124-1.087.376-1.557.25-.47.577-.846.985-1.13a4.565 4.565 0 0 1 1.372-.644c.374-.102.939-.2 1.695-.294 1.54-.191 2.674-.416 3.402-.679.007-.268.01-.44.01-.513 0-.8-.179-1.364-.54-1.692-.487-.444-1.211-.667-2.172-.667-.897 0-1.56.164-1.986.487-.429.323-.745.898-.95 1.72l-1.864-.262c.17-.823.448-1.487.837-1.993.388-.506.95-.895 1.684-1.169.735-.273 1.586-.409 2.554-.409.961 0 1.74.116 2.343.35.6.232 1.042.525 1.324.879.282.353.48.799.593 1.338.064.334.094.938.094 1.811v2.62c0 1.829.043 2.985.124 3.47.08.483.242.947.482 1.39h-1.992a4.267 4.267 0 0 1-.382-1.43m18.1-2.818l1.876.252c-.206 1.333-.731 2.374-1.574 3.129-.846.753-1.883 1.13-3.112 1.13-1.54 0-2.778-.518-3.713-1.556-.937-1.037-1.404-2.525-1.404-4.46 0-1.254.2-2.348.604-3.287.401-.94 1.016-1.644 1.838-2.113a5.31 5.31 0 0 1 2.687-.705c1.222 0 2.221.319 2.998.956.777.638 1.276 1.54 1.494 2.712l-1.854.296c-.177-.78-.489-1.365-.938-1.759-.45-.393-.99-.59-1.627-.59-.96 0-1.74.356-2.342 1.066-.6.71-.9 1.832-.9 3.369 0 1.557.29 2.69.868 3.396.58.706 1.337 1.059 2.269 1.059.75 0 1.374-.237 1.875-.711.502-.472.82-1.2.954-2.184m10.789-1.549c0 1.485.312 2.596.942 3.336.63.739 1.42 1.107 2.373 1.107.947 0 1.735-.37 2.365-1.113.627-.743.942-1.875.942-3.397 0-1.433-.316-2.519-.948-3.258-.633-.739-1.419-1.11-2.359-1.11-.954 0-1.744.368-2.373 1.104-.63.736-.942 1.846-.942 3.331zm-1.961 0c0-2.148.578-3.74 1.738-4.773.967-.858 2.147-1.288 3.538-1.288 1.548 0 2.812.523 3.795 1.567.981 1.044 1.472 2.488 1.472 4.33 0 1.491-.217 2.666-.652 3.522a4.679 4.679 0 0 1-1.896 1.992c-.83.473-1.736.71-2.719.71-1.575 0-2.848-.52-3.82-1.561-.971-1.04-1.456-2.541-1.456-4.499m17.781-5.799h9.146v1.627h-3.626v9.97h-1.896v-9.97h-3.624V53.96zm27.709 0h1.908v11.597h-1.908V53.96zm-8.763 9.98h2.002c1.209 0 2.071-.152 2.586-.458.515-.305.775-.783.775-1.432 0-.5-.192-.948-.574-1.341-.381-.393-1.224-.59-2.532-.59h-2.257v3.822zm-1.907-9.98h1.907v4.532h2.416c1.576 0 2.788.316 3.64.944.85.63 1.277 1.497 1.277 2.605 0 .968-.355 1.796-1.065 2.484s-1.845 1.032-3.407 1.032h-4.768V53.96z" fill="#fff"/></svg>