<svg xmlns="http://www.w3.org/2000/svg" width="262" height="60"><path d="M80.406 23.516l-4.013-4.776 6.19 2.427-2.177 2.349zm-7.973 4.84l2.987-8.967 3.463 5.022-6.45 3.945zm-5.398 7.727l4.543-4.918 3.917-2.156-8.46 7.074zm-5.32 3.802l-1.928 2.121-13.291 11.922 1.678-3.173.699-1.318 11.599-9.993 5.038-4.054-3.794 4.495zM43.939 53.773c-.391.737-.775 1.5-1.158 2.238-.382-.738-.767-1.502-1.158-2.24-.676-1.296-1.367-2.504-2.058-3.779.63-3.006 1.228-6.02 1.777-9.047.291-1.588.556-3.183.816-4.78.138-.796.248-1.568.371-2.367.092-.6.362-1.678.362-1.678.068.543.204 1.107.282 1.649.118.799.22 1.594.351 2.39.248 1.595.5 3.18.777 4.768a342.765 342.765 0 0 0 1.697 9.02c-.691 1.281-1.383 2.53-2.06 3.826zM25.77 42.006l-1.929-2.12-3.794-4.496 5.038 4.054 11.6 9.993.698 1.318 1.678 3.173-13.29-11.922zM10.063 29.009l3.917 2.156 4.543 4.918-8.46-7.074zm.075-9.62l2.987 8.967-6.45-3.945 3.463-5.022zm-7.163 1.778l6.19-2.427-4.012 4.776-2.178-2.349zM11.706 9.45l.39-.473 4.084-.346.007.072-5.689 8.45-.068.03-6.946 2.269L11.706 9.45zm6.537-4.235l-2.14 2.598-3.338.282 5.478-2.88zM21.735 3.9l5.066-.86c1.788-.297 3.573-.62 5.358-.937C33.945 1.79 42.182.376 42.86.373c.673.003 8.848 1.416 10.62 1.73 1.772.317 3.543.64 5.317.936l5.027.86 3.447 3.95-2.677 2.152-1.707 1.232-4.836.32c-1.708.105-3.414.241-5.12.37l-10.151.775-10.15-.775c-3.32-.253-6.643-.476-9.964-.698l-1.73-1.248-2.647-2.128L21.735 3.9zm51.058 4.194l-3.338-.282-2.138-2.597 5.476 2.88zm-7.38 3.888l.389-.295 3.49-2.375 3.832 6.432-7.71-3.762zm-6.686 8.476l4.347-6.913 10.362 4.468-2.867 11.162h-.012l-11.83-8.718zm1.066 11.884l.766-.094 8.021-.494-.223.264-8.199 7.014-10.473 8.364 10.108-15.054zm-2.375.16L47.716 48.15a335.23 335.23 0 0 0-2.025-7.555 261.733 261.733 0 0 0-1.36-4.632c-.224-.773-.478-1.538-.716-2.307-.159-.508-.33-1.013-.5-1.518l14.303.366zm.092-12.94l-.304.434-9.972-5.196 5.863-.499c1.706-.133 3.41-.32 5.114-.478l3.54-.315-4.24 6.054zm1.294 10.537l-13.546.411 11.744-8.808 1.16 4.115.642 4.282zm-.357-4.338l-.451-2.935 10.228 6.584-8.04.807-.784.053-.953-4.509zm-29.255-4.35l13.587-6.21 13.587 6.21-13.587 9.081-13.587-9.08zm-1.051 11.092l.813-.021 1.43.002a142.27 142.27 0 0 0 2.104-.092l10.109-.259c-.174.505-.35 1.01-.514 1.518-.246.768-.505 1.531-.737 2.303a244.34 244.34 0 0 0-1.4 4.626 336.103 336.103 0 0 0-2.1 7.578l-9.705-15.655zm-6.884-.485c.661.076 1.323.14 1.985.22.867.096 1.735.154 2.604.226l10.027 14.932L25.4 39.032l-8.2-7.014-.222-.264 4.28.264zm7.283-12.12l-3.985-6.302c2.635.243 5.27.501 7.906.704l5.864.499-9.785 5.1zm-2.342 10.18c-.926-.07-1.852-.136-2.78-.184-.735-.03-1.47-.069-2.206-.095l-3.878-.389 10.228-6.584-.451 2.935-.913 4.316zm1.197-4.261l1.256-4.044L40.3 30.51l-7.801-.237c-.703-.039-1.407-.074-2.11-.102l-2.065-.065c-.523-.01-1.046-.013-1.568-.017l.64-4.272zM12.002 16.47l4.264-7.158 3.415 2.324.73.555L12 16.47zm9.728-2.92l4.912 7.048L15 29.176l-.012-.001-2.986-11.622 9.727-4.002zm52.122-4.1l8.222 10-7.112-2.417-5.59-8.331.006-.072 4.085.346.39.473zm1.097-1.143L65.58 3.38 45.512.487c-.203-.04-.407-.082-.611-.12-.674-.13-1.35-.242-2.026-.364L42.86 0l-.015.003c-.68.121-1.362.234-2.04.363l-.623.122L19.978 3.38 10.61 8.307 0 21.439l4.61 4.568 19.604 15.966L42.8 60l18.544-18.027L80.948 26.02l4.223-4.091.43-.386L74.95 8.307z" fill="#e60c80"/><path d="M253.44 6.974h2.735c.554 0 .99.165 1.268.413.277.29.435.662.554 1.157.08.496.16 1.117.16 1.777 0 .661 0 1.406-.041 2.191v3.844c0 .537 0 .91-.04 1.24v.703c-.039.206-.039.413-.118.702-.04.248-.159.537-.277.785-.16.29-.358.497-.595.661-.238.207-.555.29-.95.29h-2.696V6.974zm8.084 3.306c0-.992-.198-1.819-.554-2.48a4.001 4.001 0 0 0-1.348-1.488c-.555-.371-1.11-.62-1.744-.744-.633-.165-1.228-.248-1.783-.206h-6.142l-.04 35.132h3.488V22.597h.356l4.834 17.897H262c0-.042-.08-.29-.238-.827a70.053 70.053 0 0 1-.595-2.15c-.277-.909-.555-1.9-.871-3.017-.357-1.115-.674-2.273-1.03-3.471a268.358 268.358 0 0 1-.991-3.431c-.317-1.116-.634-2.108-.872-2.976-.278-.867-.475-1.57-.634-2.025 1.545-.29 2.734-.785 3.527-1.53.792-.743 1.189-1.777 1.228-3.058v-7.73zm-23.38-4.918v7.564c.04 1.487.04 3.1.04 4.794v22.774h9.036v-1.82h-5.509v-8.017c0-1.034-.04-2.025-.04-2.976v-5.084h5.191V20.82h-5.191V7.18h5.589V5.362h-9.114zm-15.216 0l.04 35.132h3.447V22.555h5.033v17.939h3.447V5.362h-3.447v15.417h-5.033V5.362h-3.487zM207.553 7.18h4.2v33.314h3.488V7.18h4.28V5.362h-11.968V7.18zm-4.438-1.818v24.964l-8.52-24.964h-1.743v35.132h1.743V15.28l8.56 25.213h1.703V5.362h-1.743zm-19.417 5.249l2.457 21.575h-5.032l2.258-21.575h.317zm-1.704-5.25s-.04.331-.08.951c-.078.662-.158 1.53-.276 2.687-.12 1.116-.278 2.438-.437 3.927-.158 1.487-.316 3.1-.515 4.794-.158 1.695-.356 3.43-.554 5.208-.199 1.736-.356 3.471-.555 5.166-.159 1.695-.357 3.307-.515 4.795-.159 1.488-.277 2.81-.397 3.926-.118 1.157-.237 2.026-.277 2.687-.079.62-.118.95-.118.992h1.862c0-.042 0-.207.039-.496.04-.331.12-.703.159-1.199.079-.496.158-.992.238-1.57.079-.537.158-1.075.198-1.53.079-.496.158-.91.198-1.199.04-.33.04-.495.04-.495h5.428s0 .165.04.495c.04.29.118.703.159 1.199.04.455.118.993.197 1.53.04.578.12 1.074.16 1.57.078.496.117.868.158 1.199.04.289.04.454.04.496h3.168c0-.042-.04-.373-.118-.992-.08-.661-.199-1.53-.318-2.687a152.383 152.383 0 0 0-.475-3.926c-.159-1.488-.357-3.1-.555-4.795-.198-1.695-.436-3.43-.634-5.166-.198-1.778-.436-3.513-.634-5.208-.198-1.695-.396-3.307-.555-4.794-.198-1.489-.317-2.81-.476-3.927-.118-1.157-.238-2.025-.316-2.687-.08-.62-.119-.95-.119-.95h-4.161zm-14.067 1.613h3.17c.555 0 .95.165 1.228.413.277.29.476.662.555 1.157.12.496.158 1.074.158 1.777v4.299c0 .62 0 1.198-.039 1.736v1.653s0 .083-.04.29c0 .165-.04.413-.079.66-.08.249-.158.538-.317.827-.119.249-.317.455-.555.661-.238.166-.554.249-.951.29h-3.13V6.974zm8.48 3.306c0-.992-.159-1.819-.436-2.48a3.967 3.967 0 0 0-1.189-1.488 4.418 4.418 0 0 0-1.744-.744 6.471 6.471 0 0 0-2.02-.206h-6.538l-.04 35.132h3.447V22.555h3.21c1.783 0 3.13-.371 4.002-1.115.872-.786 1.307-1.902 1.307-3.43v-7.73zm-24.608 30.214h3.487l-5.746-23.89 5.548-11.367h-1.744l-6.657 13.64V5.237h-3.447v35.257h3.447V22.432l.555-1.158 4.557 19.22zM138.207 5.362v24.964l-8.52-24.964h-1.743v35.132h1.743V15.28l8.6 25.213h1.703V5.362h-1.783zM120.85 40.576h3.487V5.362h-3.487v35.214zM109.557 6.974h3.13c.555 0 .952.165 1.23.413.276.29.475.662.593 1.157.08.496.12 1.074.12 1.777v6.035c-.04.496-.04.91-.04 1.199v.744a9.77 9.77 0 0 0-.12.66c-.039.249-.158.538-.316.827-.12.249-.317.455-.555.661-.237.166-.555.249-.95.29h-3.092V6.974zm8.48 3.306c-.04-.992-.158-1.819-.475-2.48a3.618 3.618 0 0 0-1.189-1.488 4.422 4.422 0 0 0-1.743-.744 6.474 6.474 0 0 0-2.021-.206h-6.539l-.04 35.132h3.448V22.555h3.21c1.783 0 3.13-.371 4.002-1.115.872-.786 1.347-1.902 1.347-3.43v-7.73zM106.056 45.4h1.403v7.428h3.882V45.4h1.404v7.428h.904v3.65h-1.154v-2.446h-6.44V45.4zm14.617 3.486h4.623c-.062-.725-.239-1.27-.53-1.633-.447-.564-1.026-.845-1.738-.845-.645 0-1.187.225-1.625.674-.44.45-.683 1.051-.73 1.804zm4.608 2.365l1.45.188c-.229.883-.653 1.568-1.271 2.056-.619.487-1.408.732-2.37.732-1.21 0-2.171-.39-2.88-1.167-.71-.778-1.065-1.868-1.065-3.272 0-1.451.359-2.579 1.076-3.38.717-.802 1.647-1.203 2.791-1.203 1.107 0 2.012.392 2.713 1.178.702.786 1.053 1.892 1.053 3.316 0 .087-.003.217-.008.39h-6.175c.052.949.31 1.675.773 2.178a2.246 2.246 0 0 0 1.73.757c.515 0 .954-.142 1.317-.424.364-.28.653-.73.866-1.349m7.655-5.851h1.404v3.593h3.89V45.4h1.403v8.632h-1.403v-3.829h-3.89v3.829h-1.404V45.4zm12.49 0h6.727v1.21h-2.666v7.422h-1.395V46.61h-2.666V45.4zm13.775 4.364c0 1.112.215 1.932.647 2.463.432.531.954.797 1.568.797.623 0 1.158-.276 1.601-.826.445-.55.667-1.401.667-2.556 0-1.1-.217-1.923-.65-2.47-.435-.548-.954-.821-1.556-.821-.598 0-1.127.291-1.587.874-.46.582-.69 1.428-.69 2.539zm-1.27 7.574V45.4h1.278v1.122c.302-.44.642-.769 1.022-.988.379-.22.838-.33 1.38-.33.706 0 1.33.19 1.87.57.54.378.949.914 1.224 1.604.275.691.414 1.45.414 2.273 0 .883-.153 1.678-.456 2.385-.305.706-.747 1.25-1.325 1.625-.58.377-1.19.565-1.83.565-.467 0-.887-.102-1.258-.309a2.897 2.897 0 0 1-.916-.78v4.201h-1.403zM175.674 45.4h1.404v3.731c.447 0 .76-.09.94-.27.178-.178.442-.698.79-1.56.275-.682.5-1.132.67-1.348.172-.217.37-.363.593-.44.224-.076.582-.113 1.076-.113h.281v1.21l-.39-.008c-.37 0-.606.058-.71.17-.108.12-.275.475-.498 1.066-.214.564-.409.954-.585 1.17-.177.217-.45.415-.819.593.603.168 1.195.754 1.778 1.756l1.536 2.675h-1.544l-1.496-2.675c-.308-.536-.575-.89-.804-1.06a1.328 1.328 0 0 0-.818-.256v3.99h-1.404V45.4zm12.7 4.364c0 1.112.216 1.932.648 2.463.43.531.953.797 1.566.797.624 0 1.158-.276 1.602-.826.444-.55.667-1.401.667-2.556 0-1.1-.217-1.923-.651-2.47-.435-.548-.952-.821-1.556-.821-.597 0-1.126.291-1.586.874-.46.582-.69 1.428-.69 2.539zm-1.271 7.574V45.4h1.278v1.122c.302-.44.643-.769 1.022-.988.38-.22.84-.33 1.38-.33.707 0 1.33.19 1.87.57.541.378.95.914 1.225 1.604a6.08 6.08 0 0 1 .414 2.273c0 .883-.153 1.678-.457 2.385-.304.706-.746 1.25-1.325 1.625-.58.377-1.189.565-1.828.565-.468 0-.889-.102-1.26-.309a2.91 2.91 0 0 1-.916-.78v4.201h-1.403zm18.602-7.639c-.51.217-1.274.4-2.293.552-.576.087-.984.185-1.224.293a1.25 1.25 0 0 0-.748 1.17c0 .39.142.715.425.976.284.26.698.39 1.243.39.541 0 1.021-.122 1.443-.37.42-.246.73-.584.927-1.011.151-.331.227-.818.227-1.463v-.537zm.117 3.268c-.52.46-1.02.785-1.501.975-.481.19-.997.284-1.547.284-.91 0-1.61-.232-2.098-.695-.488-.463-.732-1.055-.732-1.775a2.44 2.44 0 0 1 1.001-2c.298-.211.636-.37 1.01-.48.275-.075.69-.149 1.247-.219 1.133-.142 1.967-.309 2.503-.504.005-.2.007-.328.007-.382 0-.596-.131-1.015-.398-1.26-.358-.33-.89-.496-1.597-.496-.66 0-1.147.122-1.461.362-.316.24-.549.669-.7 1.28l-1.37-.194c.124-.613.33-1.107.615-1.484.286-.376.699-.666 1.24-.87.54-.203 1.166-.304 1.878-.304.707 0 1.28.086 1.724.26.44.173.766.391.974.654.207.263.353.595.436.996.047.249.07.698.07 1.349v1.95c0 1.36.03 2.221.09 2.581.06.36.179.706.355 1.036h-1.466a3.205 3.205 0 0 1-.28-1.064m13.315-2.097l1.38.187c-.15.991-.537 1.767-1.157 2.328-.622.56-1.385.84-2.29.84-1.132 0-2.043-.384-2.731-1.157-.69-.772-1.033-1.879-1.033-3.32 0-.932.147-1.747.445-2.446.295-.7.747-1.224 1.352-1.573a3.871 3.871 0 0 1 1.976-.525c.9 0 1.635.238 2.206.712.571.475.938 1.147 1.1 2.019l-1.365.22c-.13-.58-.36-1.016-.69-1.309a1.744 1.744 0 0 0-1.197-.439c-.707 0-1.28.265-1.723.793-.44.528-.662 1.364-.662 2.507 0 1.16.213 2.002.639 2.528.427.525.983.788 1.669.788.551 0 1.01-.176 1.38-.529.368-.351.603-.893.701-1.625m7.937-1.153c0 1.105.23 1.932.693 2.483.464.55 1.045.824 1.747.824.696 0 1.276-.276 1.74-.829.46-.553.693-1.396.693-2.528 0-1.066-.233-1.875-.698-2.425-.466-.55-1.044-.826-1.735-.826-.702 0-1.283.274-1.747.822-.463.547-.693 1.373-.693 2.479zm-1.442 0c0-1.599.425-2.783 1.279-3.553.711-.638 1.58-.958 2.603-.958 1.138 0 2.069.389 2.791 1.166.722.777 1.083 1.852 1.083 3.222 0 1.11-.16 1.985-.48 2.622a3.465 3.465 0 0 1-1.394 1.483 3.935 3.935 0 0 1-2 .528c-1.16 0-2.096-.387-2.81-1.162-.715-.774-1.072-1.891-1.072-3.348m13.082-4.316h6.728v1.21h-2.667v7.422h-1.395V46.61h-2.666V45.4zm20.386 0h1.402v8.631H259.1v-8.632zm-6.448 7.428h1.473c.89 0 1.524-.114 1.903-.341.379-.227.57-.583.57-1.066 0-.372-.142-.706-.422-.998-.28-.293-.901-.44-1.863-.44h-1.66v2.845zM251.25 45.4h1.403v3.374h1.777c1.16 0 2.052.235 2.679.703.626.468.939 1.114.939 1.939 0 .72-.261 1.336-.783 1.848-.523.512-1.358.768-2.507.768h-3.508V45.4z" fill="#2b2b2a"/></svg>